<?xml version="1.0" encoding="UTF-8" standalone="no"?><!DOCTYPE svg PUBLIC "-//W3C//DTD SVG 1.1//EN" "http://www.w3.org/Graphics/SVG/1.1/DTD/svg11.dtd"><svg width="100%" height="100%" viewBox="0 0 4961 3508" version="1.1" xmlns="http://www.w3.org/2000/svg" xmlns:xlink="http://www.w3.org/1999/xlink" xml:space="preserve" xmlns:serif="http://www.serif.com/" style="fill-rule:evenodd;clip-rule:evenodd;stroke-linecap:round;stroke-linejoin:round;stroke-miterlimit:1.5;"><g><path d="M4865.514,191.248l0,3125.378c0,55.051 -44.695,99.746 -99.746,99.746l-4570.907,0c-55.051,0 -99.746,-44.695 -99.746,-99.746l0,-3125.378c0,-55.051 44.695,-99.746 99.746,-99.746l4570.907,0c55.051,0 99.746,44.695 99.746,99.746Z" style="fill:#9ac99e;fill-opacity:0.68;"/><g><g><path d="M813.731,1501.031l-78.894,0l0,-322.663l524.77,0l0,66.35l172.856,0l0,1006.991l-618.732,0l0,-750.679Z" style="fill:#97b899;fill-opacity:0.6;"/><path d="M1522.771,641.978c0,0 210.37,-129.694 235.901,-190.144c25.531,-60.45 166.813,5.462 257.173,-68.582c90.361,-74.044 116.99,-291.75 293.122,-291.75l743.918,0c67.526,53.701 112.217,76.922 192.636,164.917c386.048,422.416 1009.623,968.855 1074.363,1341.762c64.739,372.908 92.424,718.806 120.877,822.513c2.175,7.928 -47.939,54.945 -52.192,58.617c-29.398,25.379 -197.563,-132.488 -197.563,-132.488l-2714.779,-886.574l46.545,-818.272Z" style="fill:#97b899;"/><path id="reception_area" d="M2777.152,1169.06c155.13,66.023 294.839,-11.81 374.076,-97.508c79.237,-85.698 223.017,-140.315 308.48,-115.237c85.463,25.079 201.841,90.72 228.701,161.331c26.86,70.611 26.593,78.006 26.593,78.006c0,0 -62.859,36.459 -47.868,109.918c14.992,73.46 88.644,83.325 88.644,83.325l10.637,92.189l173.741,273.022l1.773,273.022c0,0 205.662,37.239 375.849,207.426c170.187,170.187 130.945,292.246 97.508,354.574c-4.383,8.17 -26.651,22.63 -26.651,22.63l-419.684,91.388c0,0 -50.067,20.551 -113.893,-9.418c-63.826,-29.969 -159.559,-124.101 -159.559,-124.101c0,0 40.492,-105.917 44.322,-143.603c3.83,-37.686 5.319,-143.603 5.319,-143.603l-927.212,-21.274l-5.319,157.786l-173.741,-3.546l0,-58.505l-312.026,-1.773l-5.319,205.653l313.798,10.637l0,-10.637l171.969,3.546l-8.864,234.019c0,0 -69.637,76.566 -132.965,76.234c-63.329,-0.332 -134.365,-56.819 -156.013,-56.732c-21.648,0.087 -37.669,38.818 -97.508,37.23c-59.839,-1.588 -99.75,-41.634 -163.104,-111.691c-63.355,-70.057 -80.843,-95.613 -83.325,-145.376c-2.482,-49.762 1.773,-163.104 1.773,-163.104l-242.884,-214.518c0,0 -66.819,-74.214 -132.965,-58.505c-66.147,15.709 -169.744,150.066 -182.606,189.697c-12.862,39.631 -36.389,125.755 21.274,234.019c57.663,108.264 175.02,252.169 274.795,303.161c99.775,50.992 109.918,54.959 109.918,54.959l-81.552,189.697c0,0 -197.08,-90.395 -278.341,-168.423c-81.261,-78.028 -151.54,-154.866 -196.789,-253.521c-45.249,-98.655 -69.142,-122.328 -69.142,-122.328c0,0 -67.388,-0.495 -113.464,-12.41c-46.076,-11.915 -145.951,-81.899 -170.196,-127.647c-24.245,-45.748 -51.413,-74.461 -51.413,-74.461c0,0 -177.707,29.719 -306.707,-99.281c-129,-129 -121.036,-270.299 -115.237,-345.71c5.8,-75.411 80.085,-157.546 95.735,-179.06c15.65,-21.514 81.706,-51.842 56.732,-115.237c-24.974,-63.395 -63.901,-72.77 -108.145,-78.006c-44.244,-5.236 -162.517,-76.68 -166.65,-175.514c-4.133,-98.835 22.535,-171.372 83.325,-207.426c60.79,-36.054 95.849,-28.761 120.555,-40.776c24.706,-12.015 64.259,-35.273 67.369,-65.596c3.111,-30.323 -2.338,-53.266 53.186,-60.278c55.524,-7.011 263.785,-58.032 345.71,-175.514c81.925,-117.483 74.907,-113.47 102.827,-111.691c27.919,1.779 28.366,14.183 28.366,14.183c0,0 112.133,-120.264 209.199,-86.871c97.066,33.393 123.787,57.165 157.786,113.464c33.999,56.299 15.956,166.65 15.956,166.65c0,0 129.758,15.628 209.199,83.325c79.441,67.697 158.052,115.788 184.379,134.738c26.326,18.95 66.006,23.005 90.416,7.091c24.411,-15.913 113.337,-123.045 177.287,-148.921c63.95,-25.877 163.229,-41.848 253.521,42.549c90.291,84.397 100.864,93.575 168.423,122.328Zm-1794.885,509.258c0.975,92.859 -78.852,177.369 -124.101,212.745c-45.249,35.376 -115.436,304.934 131.193,304.934c246.628,0 179.06,-251.748 179.06,-251.748c0,0 34.313,6.234 101.054,-17.729c66.741,-23.963 119.93,-69.964 120.555,-147.148c0.625,-77.184 -143.603,-170.196 -143.603,-170.196c0,0 -6.287,-29.842 -19.502,-86.871c-13.215,-57.029 -150.907,-190.154 -262.385,-223.382c-111.479,-33.228 -200.33,16.157 -200.335,58.505c-0.004,42.348 95.932,60.797 132.965,104.599c37.033,43.803 83.823,94.926 85.098,216.29Z" style="fill:#fbf7f0;stroke:#a99a8e;stroke-width:8.33px;"/><path id="reception_area1" serif:id="reception_area" d="M2807.291,2564.311l5.319,-145.376l-173.741,-3.546l0,-58.505l-312.026,-1.773l-5.319,205.653l313.798,10.637l0,-10.637l171.969,3.546Z" style="fill:#ffedce;stroke:#a99a8e;stroke-width:8.33px;"/><path d="M4236.89,2335.643l64.355,294.95l-332.538,72.556l-64.355,-294.95l332.538,-72.556Z" style="fill:#ffedce;stroke:#a99a8e;stroke-width:8.33px;"/></g><g id="tables"><g id="table_12"><g id="table"><path d="M3674.437,1811.366c0,-8.317 6.752,-15.069 15.069,-15.069c8.317,0 15.069,6.752 15.069,15.069c0,8.317 -6.752,15.069 -15.069,15.069c-8.317,0 -15.069,-6.752 -15.069,-15.069Z" style="fill:#e8b7ae;fill-opacity:0.6;"/><path d="M3704.576,1638.293c0,8.317 -6.752,15.069 -15.069,15.069c-8.317,0 -15.069,-6.752 -15.069,-15.069c0,-8.317 6.752,-15.069 15.069,-15.069c8.317,0 15.069,6.752 15.069,15.069Z" style="fill:#e8b7ae;fill-opacity:0.6;"/><path d="M3617.66,1775.364c5.881,-5.881 15.43,-5.881 21.311,0c5.881,5.881 5.881,15.43 -0,21.311c-5.881,5.881 -15.43,5.881 -21.311,0c-5.881,-5.881 -5.881,-15.43 -0,-21.311Z" style="fill:#e8b7ae;fill-opacity:0.6;"/><path d="M3761.353,1674.294c-5.881,5.881 -15.43,5.881 -21.311,0c-5.881,-5.881 -5.881,-15.43 0,-21.311c5.881,-5.881 15.43,-5.881 21.311,0c5.881,5.881 5.881,15.43 0,21.311Z" style="fill:#e8b7ae;fill-opacity:0.6;"/><path d="M3602.97,1709.76c8.317,0 15.069,6.752 15.069,15.069c0,8.317 -6.752,15.069 -15.069,15.069c-8.317,0 -15.069,-6.752 -15.069,-15.069c0,-8.317 6.752,-15.069 15.069,-15.069Z" style="fill:#e8b7ae;fill-opacity:0.6;"/><path d="M3776.043,1739.899c-8.317,0 -15.069,-6.752 -15.069,-15.069c0,-8.317 6.752,-15.069 15.069,-15.069c8.317,0 15.069,6.752 15.069,15.069c0,8.317 -6.752,15.069 -15.069,15.069Z" style="fill:#e8b7ae;fill-opacity:0.6;"/><path d="M3638.971,1652.983c5.881,5.881 5.881,15.43 0,21.311c-5.881,5.881 -15.43,5.881 -21.311,-0c-5.881,-5.881 -5.881,-15.43 -0,-21.311c5.881,-5.881 15.43,-5.881 21.311,-0Z" style="fill:#e8b7ae;fill-opacity:0.6;"/><path d="M3740.041,1796.676c-5.881,-5.881 -5.881,-15.43 0,-21.311c5.881,-5.881 15.43,-5.881 21.311,0c5.881,5.881 5.881,15.43 0,21.311c-5.881,5.881 -15.43,5.881 -21.311,0Z" style="fill:#e8b7ae;fill-opacity:0.6;"/><path d="M3626.688,1724.829c0,-34.67 28.148,-62.818 62.818,-62.818c34.67,0 62.818,28.148 62.818,62.818c0,34.67 -28.148,62.818 -62.818,62.818c-34.67,0 -62.818,-28.148 -62.818,-62.818Z" style="fill:#e8b7ae;"/></g></g><g id="table_11"><g id="table1" serif:id="table"><path d="M3684.327,2104.733c0,-8.317 6.752,-15.069 15.069,-15.069c8.317,0 15.069,6.752 15.069,15.069c0,8.317 -6.752,15.069 -15.069,15.069c-8.317,0 -15.069,-6.752 -15.069,-15.069Z" style="fill:#e8b7ae;fill-opacity:0.6;"/><path d="M3714.466,1931.66c0,8.317 -6.752,15.069 -15.069,15.069c-8.317,0 -15.069,-6.752 -15.069,-15.069c0,-8.317 6.752,-15.069 15.069,-15.069c8.317,0 15.069,6.752 15.069,15.069Z" style="fill:#e8b7ae;fill-opacity:0.6;"/><path d="M3627.55,2068.731c5.881,-5.881 15.43,-5.881 21.311,0c5.881,5.881 5.881,15.43 -0,21.311c-5.881,5.881 -15.43,5.881 -21.311,0c-5.881,-5.881 -5.881,-15.43 -0,-21.311Z" style="fill:#e8b7ae;fill-opacity:0.6;"/><path d="M3771.243,1967.661c-5.881,5.881 -15.43,5.881 -21.311,0c-5.881,-5.881 -5.881,-15.43 0,-21.311c5.881,-5.881 15.43,-5.881 21.311,0c5.881,5.881 5.881,15.43 0,21.311Z" style="fill:#e8b7ae;fill-opacity:0.6;"/><path d="M3612.86,2003.127c8.317,0 15.069,6.752 15.069,15.069c0,8.317 -6.752,15.069 -15.069,15.069c-8.317,0 -15.069,-6.752 -15.069,-15.069c0,-8.317 6.752,-15.069 15.069,-15.069Z" style="fill:#e8b7ae;fill-opacity:0.6;"/><path d="M3785.933,2033.266c-8.317,0 -15.069,-6.752 -15.069,-15.069c0,-8.317 6.752,-15.069 15.069,-15.069c8.317,0 15.069,6.752 15.069,15.069c0,8.317 -6.752,15.069 -15.069,15.069Z" style="fill:#e8b7ae;fill-opacity:0.6;"/><path d="M3648.861,1946.35c5.881,5.881 5.881,15.43 0,21.311c-5.881,5.881 -15.43,5.881 -21.311,-0c-5.881,-5.881 -5.881,-15.43 -0,-21.311c5.881,-5.881 15.43,-5.881 21.311,-0Z" style="fill:#e8b7ae;fill-opacity:0.6;"/><path d="M3749.931,2090.043c-5.881,-5.881 -5.881,-15.43 0,-21.311c5.881,-5.881 15.43,-5.881 21.311,0c5.881,5.881 5.881,15.43 0,21.311c-5.881,5.881 -15.43,5.881 -21.311,0Z" style="fill:#e8b7ae;fill-opacity:0.6;"/><path d="M3636.578,2018.196c0,-34.67 28.148,-62.818 62.818,-62.818c34.67,0 62.818,28.148 62.818,62.818c0,34.67 -28.148,62.818 -62.818,62.818c-34.67,0 -62.818,-28.148 -62.818,-62.818Z" style="fill:#e8b7ae;"/></g></g><g id="table_10"><g id="table2" serif:id="table"><path d="M3396.642,1812.391c0,-8.317 6.752,-15.069 15.069,-15.069c8.317,0 15.069,6.752 15.069,15.069c0,8.317 -6.752,15.069 -15.069,15.069c-8.317,0 -15.069,-6.752 -15.069,-15.069Z" style="fill:#e8b7ae;fill-opacity:0.6;"/><path d="M3426.78,1639.317c0,8.317 -6.752,15.069 -15.069,15.069c-8.317,0 -15.069,-6.752 -15.069,-15.069c0,-8.317 6.752,-15.069 15.069,-15.069c8.317,0 15.069,6.752 15.069,15.069Z" style="fill:#e8b7ae;fill-opacity:0.6;"/><path d="M3339.865,1776.389c5.881,-5.881 15.43,-5.881 21.311,0c5.881,5.881 5.881,15.43 -0,21.311c-5.881,5.881 -15.43,5.881 -21.311,0c-5.881,-5.881 -5.881,-15.43 -0,-21.311Z" style="fill:#e8b7ae;fill-opacity:0.6;"/><path d="M3483.557,1675.319c-5.881,5.881 -15.43,5.881 -21.311,0c-5.881,-5.881 -5.881,-15.43 0,-21.311c5.881,-5.881 15.43,-5.881 21.311,0c5.881,5.881 5.881,15.43 0,21.311Z" style="fill:#e8b7ae;fill-opacity:0.6;"/><path d="M3325.174,1710.785c8.317,0 15.069,6.752 15.069,15.069c0,8.317 -6.752,15.069 -15.069,15.069c-8.317,0 -15.069,-6.752 -15.069,-15.069c0,-8.317 6.752,-15.069 15.069,-15.069Z" style="fill:#e8b7ae;fill-opacity:0.6;"/><path d="M3498.248,1740.923c-8.317,0 -15.069,-6.752 -15.069,-15.069c0,-8.317 6.752,-15.069 15.069,-15.069c8.317,0 15.069,6.752 15.069,15.069c0,8.317 -6.752,15.069 -15.069,15.069Z" style="fill:#e8b7ae;fill-opacity:0.6;"/><path d="M3361.176,1654.008c5.881,5.881 5.881,15.43 0,21.311c-5.881,5.881 -15.43,5.881 -21.311,-0c-5.881,-5.881 -5.881,-15.43 -0,-21.311c5.881,-5.881 15.43,-5.881 21.311,-0Z" style="fill:#e8b7ae;fill-opacity:0.6;"/><path d="M3462.246,1797.7c-5.881,-5.881 -5.881,-15.43 0,-21.311c5.881,-5.881 15.43,-5.881 21.311,0c5.881,5.881 5.881,15.43 0,21.311c-5.881,5.881 -15.43,5.881 -21.311,0Z" style="fill:#e8b7ae;fill-opacity:0.6;"/><path d="M3348.893,1725.854c0,-34.67 28.148,-62.818 62.818,-62.818c34.67,0 62.818,28.148 62.818,62.818c0,34.67 -28.148,62.818 -62.818,62.818c-34.67,0 -62.818,-28.148 -62.818,-62.818Z" style="fill:#e8b7ae;"/></g></g><g id="table_9"><g id="table3" serif:id="table"><path d="M3396.179,2106.372c0,-8.317 6.752,-15.069 15.069,-15.069c8.317,0 15.069,6.752 15.069,15.069c0,8.317 -6.752,15.069 -15.069,15.069c-8.317,0 -15.069,-6.752 -15.069,-15.069Z" style="fill:#e8b7ae;fill-opacity:0.6;"/><path d="M3426.318,1933.299c0,8.317 -6.752,15.069 -15.069,15.069c-8.317,0 -15.069,-6.752 -15.069,-15.069c0,-8.317 6.752,-15.069 15.069,-15.069c8.317,0 15.069,6.752 15.069,15.069Z" style="fill:#e8b7ae;fill-opacity:0.6;"/><path d="M3339.402,2070.371c5.881,-5.881 15.43,-5.881 21.311,0c5.881,5.881 5.881,15.43 -0,21.311c-5.881,5.881 -15.43,5.881 -21.311,0c-5.881,-5.881 -5.881,-15.43 -0,-21.311Z" style="fill:#e8b7ae;fill-opacity:0.6;"/><path d="M3483.095,1969.301c-5.881,5.881 -15.43,5.881 -21.311,0c-5.881,-5.881 -5.881,-15.43 0,-21.311c5.881,-5.881 15.43,-5.881 21.311,0c5.881,5.881 5.881,15.43 0,21.311Z" style="fill:#e8b7ae;fill-opacity:0.6;"/><path d="M3324.712,2004.766c8.317,0 15.069,6.752 15.069,15.069c0,8.317 -6.752,15.069 -15.069,15.069c-8.317,0 -15.069,-6.752 -15.069,-15.069c0,-8.317 6.752,-15.069 15.069,-15.069Z" style="fill:#e8b7ae;fill-opacity:0.6;"/><path d="M3497.785,2034.905c-8.317,0 -15.069,-6.752 -15.069,-15.069c0,-8.317 6.752,-15.069 15.069,-15.069c8.317,0 15.069,6.752 15.069,15.069c0,8.317 -6.752,15.069 -15.069,15.069Z" style="fill:#e8b7ae;fill-opacity:0.6;"/><path d="M3360.713,1947.989c5.881,5.881 5.881,15.43 0,21.311c-5.881,5.881 -15.43,5.881 -21.311,-0c-5.881,-5.881 -5.881,-15.43 -0,-21.311c5.881,-5.881 15.43,-5.881 21.311,-0Z" style="fill:#e8b7ae;fill-opacity:0.6;"/><path d="M3461.783,2091.682c-5.881,-5.881 -5.881,-15.43 0,-21.311c5.881,-5.881 15.43,-5.881 21.311,0c5.881,5.881 5.881,15.43 0,21.311c-5.881,5.881 -15.43,5.881 -21.311,0Z" style="fill:#e8b7ae;fill-opacity:0.6;"/><path d="M3348.43,2019.836c0,-34.67 28.148,-62.818 62.818,-62.818c34.67,0 62.818,28.148 62.818,62.818c0,34.67 -28.148,62.818 -62.818,62.818c-34.67,0 -62.818,-28.148 -62.818,-62.818Z" style="fill:#e8b7ae;"/></g></g><g id="table_8"><g id="table4" serif:id="table"><path d="M3131.724,1794.828c0,-8.317 6.752,-15.069 15.069,-15.069c8.317,0 15.069,6.752 15.069,15.069c0,8.317 -6.752,15.069 -15.069,15.069c-8.317,0 -15.069,-6.752 -15.069,-15.069Z" style="fill:#e8b7ae;fill-opacity:0.6;"/><path d="M3161.863,1621.754c0,8.317 -6.752,15.069 -15.069,15.069c-8.317,0 -15.069,-6.752 -15.069,-15.069c0,-8.317 6.752,-15.069 15.069,-15.069c8.317,0 15.069,6.752 15.069,15.069Z" style="fill:#e8b7ae;fill-opacity:0.6;"/><path d="M3074.947,1758.826c5.881,-5.881 15.43,-5.881 21.311,0c5.881,5.881 5.881,15.43 -0,21.311c-5.881,5.881 -15.43,5.881 -21.311,0c-5.881,-5.881 -5.881,-15.43 -0,-21.311Z" style="fill:#e8b7ae;fill-opacity:0.6;"/><path d="M3218.64,1657.756c-5.881,5.881 -15.43,5.881 -21.311,0c-5.881,-5.881 -5.881,-15.43 0,-21.311c5.881,-5.881 15.43,-5.881 21.311,0c5.881,5.881 5.881,15.43 0,21.311Z" style="fill:#e8b7ae;fill-opacity:0.6;"/><path d="M3060.257,1693.222c8.317,0 15.069,6.752 15.069,15.069c0,8.317 -6.752,15.069 -15.069,15.069c-8.317,0 -15.069,-6.752 -15.069,-15.069c0,-8.317 6.752,-15.069 15.069,-15.069Z" style="fill:#e8b7ae;fill-opacity:0.6;"/><path d="M3233.33,1723.36c-8.317,0 -15.069,-6.752 -15.069,-15.069c0,-8.317 6.752,-15.069 15.069,-15.069c8.317,0 15.069,6.752 15.069,15.069c0,8.317 -6.752,15.069 -15.069,15.069Z" style="fill:#e8b7ae;fill-opacity:0.6;"/><path d="M3096.258,1636.445c5.881,5.881 5.881,15.43 0,21.311c-5.881,5.881 -15.43,5.881 -21.311,-0c-5.881,-5.881 -5.881,-15.43 -0,-21.311c5.881,-5.881 15.43,-5.881 21.311,-0Z" style="fill:#e8b7ae;fill-opacity:0.6;"/><path d="M3197.328,1780.137c-5.881,-5.881 -5.881,-15.43 0,-21.311c5.881,-5.881 15.43,-5.881 21.311,0c5.881,5.881 5.881,15.43 0,21.311c-5.881,5.881 -15.43,5.881 -21.311,0Z" style="fill:#e8b7ae;fill-opacity:0.6;"/><path d="M3083.975,1708.291c0,-34.67 28.148,-62.818 62.818,-62.818c34.67,0 62.818,28.148 62.818,62.818c0,34.67 -28.148,62.818 -62.818,62.818c-34.67,0 -62.818,-28.148 -62.818,-62.818Z" style="fill:#e8b7ae;"/></g></g><g id="table_7"><g id="table5" serif:id="table"><path d="M3130.248,2095.735c0,-8.317 6.752,-15.069 15.069,-15.069c8.317,0 15.069,6.752 15.069,15.069c0,8.317 -6.752,15.069 -15.069,15.069c-8.317,0 -15.069,-6.752 -15.069,-15.069Z" style="fill:#e8b7ae;fill-opacity:0.6;"/><path d="M3160.387,1922.662c0,8.317 -6.752,15.069 -15.069,15.069c-8.317,0 -15.069,-6.752 -15.069,-15.069c0,-8.317 6.752,-15.069 15.069,-15.069c8.317,0 15.069,6.752 15.069,15.069Z" style="fill:#e8b7ae;fill-opacity:0.6;"/><path d="M3073.471,2059.733c5.881,-5.881 15.43,-5.881 21.311,0c5.881,5.881 5.881,15.43 0,21.311c-5.881,5.881 -15.43,5.881 -21.311,0c-5.881,-5.881 -5.881,-15.43 -0,-21.311Z" style="fill:#e8b7ae;fill-opacity:0.6;"/><path d="M3217.164,1958.663c-5.881,5.881 -15.43,5.881 -21.311,0c-5.881,-5.881 -5.881,-15.43 0,-21.311c5.881,-5.881 15.43,-5.881 21.311,0c5.881,5.881 5.881,15.43 0,21.311Z" style="fill:#e8b7ae;fill-opacity:0.6;"/><path d="M3058.781,1994.129c8.317,0 15.069,6.752 15.069,15.069c0,8.317 -6.752,15.069 -15.069,15.069c-8.317,0 -15.069,-6.752 -15.069,-15.069c0,-8.317 6.752,-15.069 15.069,-15.069Z" style="fill:#e8b7ae;fill-opacity:0.6;"/><path d="M3231.854,2024.268c-8.317,0 -15.069,-6.752 -15.069,-15.069c0,-8.317 6.752,-15.069 15.069,-15.069c8.317,0 15.069,6.752 15.069,15.069c0,8.317 -6.752,15.069 -15.069,15.069Z" style="fill:#e8b7ae;fill-opacity:0.6;"/><path d="M3094.783,1937.352c5.881,5.881 5.881,15.43 0,21.311c-5.881,5.881 -15.43,5.881 -21.311,-0c-5.881,-5.881 -5.881,-15.43 -0,-21.311c5.881,-5.881 15.43,-5.881 21.311,-0Z" style="fill:#e8b7ae;fill-opacity:0.6;"/><path d="M3195.853,2081.045c-5.881,-5.881 -5.881,-15.43 0,-21.311c5.881,-5.881 15.43,-5.881 21.311,0c5.881,5.881 5.881,15.43 0,21.311c-5.881,5.881 -15.43,5.881 -21.311,0Z" style="fill:#e8b7ae;fill-opacity:0.6;"/><path d="M3082.499,2009.198c0,-34.67 28.148,-62.818 62.818,-62.818c34.67,0 62.818,28.148 62.818,62.818c0,34.67 -28.148,62.818 -62.818,62.818c-34.67,0 -62.818,-28.148 -62.818,-62.818Z" style="fill:#e8b7ae;"/></g></g><g id="table_6"><g id="table6" serif:id="table"><path d="M2466.088,1798.196c0,-8.317 6.752,-15.069 15.069,-15.069c8.317,0 15.069,6.752 15.069,15.069c0,8.317 -6.752,15.069 -15.069,15.069c-8.317,0 -15.069,-6.752 -15.069,-15.069Z" style="fill:#e8b7ae;fill-opacity:0.6;"/><path d="M2496.227,1625.123c0,8.317 -6.752,15.069 -15.069,15.069c-8.317,0 -15.069,-6.752 -15.069,-15.069c0,-8.317 6.752,-15.069 15.069,-15.069c8.317,0 15.069,6.752 15.069,15.069Z" style="fill:#e8b7ae;fill-opacity:0.6;"/><path d="M2409.311,1762.194c5.881,-5.881 15.43,-5.881 21.311,0c5.881,5.881 5.881,15.43 -0,21.311c-5.881,5.881 -15.43,5.881 -21.311,0c-5.881,-5.881 -5.881,-15.43 -0,-21.311Z" style="fill:#e8b7ae;fill-opacity:0.6;"/><path d="M2553.004,1661.124c-5.881,5.881 -15.43,5.881 -21.311,0c-5.881,-5.881 -5.881,-15.43 0,-21.311c5.881,-5.881 15.43,-5.881 21.311,0c5.881,5.881 5.881,15.43 0,21.311Z" style="fill:#e8b7ae;fill-opacity:0.6;"/><path d="M2394.621,1696.59c8.317,0 15.069,6.752 15.069,15.069c0,8.317 -6.752,15.069 -15.069,15.069c-8.317,0 -15.069,-6.752 -15.069,-15.069c0,-8.317 6.752,-15.069 15.069,-15.069Z" style="fill:#e8b7ae;fill-opacity:0.6;"/><path d="M2567.694,1726.729c-8.317,0 -15.069,-6.752 -15.069,-15.069c0,-8.317 6.752,-15.069 15.069,-15.069c8.317,0 15.069,6.752 15.069,15.069c0,8.317 -6.752,15.069 -15.069,15.069Z" style="fill:#e8b7ae;fill-opacity:0.6;"/><path d="M2430.622,1639.813c5.881,5.881 5.881,15.43 0,21.311c-5.881,5.881 -15.43,5.881 -21.311,-0c-5.881,-5.881 -5.881,-15.43 -0,-21.311c5.881,-5.881 15.43,-5.881 21.311,-0Z" style="fill:#e8b7ae;fill-opacity:0.6;"/><path d="M2531.692,1783.506c-5.881,-5.881 -5.881,-15.43 0,-21.311c5.881,-5.881 15.43,-5.881 21.311,0c5.881,5.881 5.881,15.43 0,21.311c-5.881,5.881 -15.43,5.881 -21.311,0Z" style="fill:#e8b7ae;fill-opacity:0.6;"/><path d="M2418.339,1711.659c0,-34.67 28.148,-62.818 62.818,-62.818c34.67,0 62.818,28.148 62.818,62.818c0,34.67 -28.148,62.818 -62.818,62.818c-34.67,0 -62.818,-28.148 -62.818,-62.818Z" style="fill:#e8b7ae;"/></g></g><g id="table_5"><g id="table7" serif:id="table"><path d="M2462.839,2106.88c0,-8.317 6.752,-15.069 15.069,-15.069c8.317,0 15.069,6.752 15.069,15.069c0,8.317 -6.752,15.069 -15.069,15.069c-8.317,0 -15.069,-6.752 -15.069,-15.069Z" style="fill:#e8b7ae;fill-opacity:0.6;"/><path d="M2492.978,1933.807c0,8.317 -6.752,15.069 -15.069,15.069c-8.317,0 -15.069,-6.752 -15.069,-15.069c0,-8.317 6.752,-15.069 15.069,-15.069c8.317,0 15.069,6.752 15.069,15.069Z" style="fill:#e8b7ae;fill-opacity:0.6;"/><path d="M2406.063,2070.879c5.881,-5.881 15.43,-5.881 21.311,0c5.881,5.881 5.881,15.43 -0,21.311c-5.881,5.881 -15.43,5.881 -21.311,0c-5.881,-5.881 -5.881,-15.43 -0,-21.311Z" style="fill:#e8b7ae;fill-opacity:0.6;"/><path d="M2549.755,1969.809c-5.881,5.881 -15.43,5.881 -21.311,0c-5.881,-5.881 -5.881,-15.43 0,-21.311c5.881,-5.881 15.43,-5.881 21.311,0c5.881,5.881 5.881,15.43 0,21.311Z" style="fill:#e8b7ae;fill-opacity:0.6;"/><path d="M2391.372,2005.274c8.317,0 15.069,6.752 15.069,15.069c0,8.317 -6.752,15.069 -15.069,15.069c-8.317,0 -15.069,-6.752 -15.069,-15.069c0,-8.317 6.752,-15.069 15.069,-15.069Z" style="fill:#e8b7ae;fill-opacity:0.6;"/><path d="M2564.446,2035.413c-8.317,0 -15.069,-6.752 -15.069,-15.069c0,-8.317 6.752,-15.069 15.069,-15.069c8.317,0 15.069,6.752 15.069,15.069c0,8.317 -6.752,15.069 -15.069,15.069Z" style="fill:#e8b7ae;fill-opacity:0.6;"/><path d="M2427.374,1948.497c5.881,5.881 5.881,15.43 0,21.311c-5.881,5.881 -15.43,5.881 -21.311,-0c-5.881,-5.881 -5.881,-15.43 -0,-21.311c5.881,-5.881 15.43,-5.881 21.311,-0Z" style="fill:#e8b7ae;fill-opacity:0.6;"/><path d="M2528.444,2092.19c-5.881,-5.881 -5.881,-15.43 0,-21.311c5.881,-5.881 15.43,-5.881 21.311,0c5.881,5.881 5.881,15.43 0,21.311c-5.881,5.881 -15.43,5.881 -21.311,0Z" style="fill:#e8b7ae;fill-opacity:0.6;"/><path d="M2415.091,2020.344c0,-34.67 28.148,-62.818 62.818,-62.818c34.67,0 62.818,28.148 62.818,62.818c0,34.67 -28.148,62.818 -62.818,62.818c-34.67,0 -62.818,-28.148 -62.818,-62.818Z" style="fill:#e8b7ae;"/></g></g><g id="table_4"><g id="table8" serif:id="table"><path d="M2196.732,1795.546c0,-8.317 6.752,-15.069 15.069,-15.069c8.317,0 15.069,6.752 15.069,15.069c0,8.317 -6.752,15.069 -15.069,15.069c-8.317,0 -15.069,-6.752 -15.069,-15.069Z" style="fill:#e8b7ae;fill-opacity:0.6;"/><path d="M2226.871,1622.472c0,8.317 -6.752,15.069 -15.069,15.069c-8.317,0 -15.069,-6.752 -15.069,-15.069c0,-8.317 6.752,-15.069 15.069,-15.069c8.317,0 15.069,6.752 15.069,15.069Z" style="fill:#e8b7ae;fill-opacity:0.6;"/><path d="M2139.955,1759.544c5.881,-5.881 15.43,-5.881 21.311,0c5.881,5.881 5.881,15.43 -0,21.311c-5.881,5.881 -15.43,5.881 -21.311,0c-5.881,-5.881 -5.881,-15.43 -0,-21.311Z" style="fill:#e8b7ae;fill-opacity:0.6;"/><path d="M2283.648,1658.474c-5.881,5.881 -15.43,5.881 -21.311,0c-5.881,-5.881 -5.881,-15.43 0,-21.311c5.881,-5.881 15.43,-5.881 21.311,0c5.881,5.881 5.881,15.43 0,21.311Z" style="fill:#e8b7ae;fill-opacity:0.6;"/><path d="M2125.264,1693.94c8.317,0 15.069,6.752 15.069,15.069c0,8.317 -6.752,15.069 -15.069,15.069c-8.317,0 -15.069,-6.752 -15.069,-15.069c0,-8.317 6.752,-15.069 15.069,-15.069Z" style="fill:#e8b7ae;fill-opacity:0.6;"/><path d="M2298.338,1724.078c-8.317,0 -15.069,-6.752 -15.069,-15.069c0,-8.317 6.752,-15.069 15.069,-15.069c8.317,0 15.069,6.752 15.069,15.069c0,8.317 -6.752,15.069 -15.069,15.069Z" style="fill:#e8b7ae;fill-opacity:0.6;"/><path d="M2161.266,1637.163c5.881,5.881 5.881,15.43 0,21.311c-5.881,5.881 -15.43,5.881 -21.311,-0c-5.881,-5.881 -5.881,-15.43 -0,-21.311c5.881,-5.881 15.43,-5.881 21.311,-0Z" style="fill:#e8b7ae;fill-opacity:0.6;"/><path d="M2262.336,1780.855c-5.881,-5.881 -5.881,-15.43 0,-21.311c5.881,-5.881 15.43,-5.881 21.311,0c5.881,5.881 5.881,15.43 0,21.311c-5.881,5.881 -15.43,5.881 -21.311,0Z" style="fill:#e8b7ae;fill-opacity:0.6;"/><path d="M2148.983,1709.009c0,-34.67 28.148,-62.818 62.818,-62.818c34.67,0 62.818,28.148 62.818,62.818c0,34.67 -28.148,62.818 -62.818,62.818c-34.67,0 -62.818,-28.148 -62.818,-62.818Z" style="fill:#e8b7ae;"/></g></g><g id="table_3"><g id="table9" serif:id="table"><path d="M2186.097,2096.479c0,-8.317 6.752,-15.069 15.069,-15.069c8.317,0 15.069,6.752 15.069,15.069c0,8.317 -6.752,15.069 -15.069,15.069c-8.317,0 -15.069,-6.752 -15.069,-15.069Z" style="fill:#e8b7ae;fill-opacity:0.6;"/><path d="M2216.236,1923.405c0,8.317 -6.752,15.069 -15.069,15.069c-8.317,0 -15.069,-6.752 -15.069,-15.069c0,-8.317 6.752,-15.069 15.069,-15.069c8.317,0 15.069,6.752 15.069,15.069Z" style="fill:#e8b7ae;fill-opacity:0.6;"/><path d="M2129.32,2060.477c5.881,-5.881 15.43,-5.881 21.311,0c5.881,5.881 5.881,15.43 -0,21.311c-5.881,5.881 -15.43,5.881 -21.311,0c-5.881,-5.881 -5.881,-15.43 -0,-21.311Z" style="fill:#e8b7ae;fill-opacity:0.6;"/><path d="M2273.013,1959.407c-5.881,5.881 -15.43,5.881 -21.311,0c-5.881,-5.881 -5.881,-15.43 0,-21.311c5.881,-5.881 15.43,-5.881 21.311,0c5.881,5.881 5.881,15.43 0,21.311Z" style="fill:#e8b7ae;fill-opacity:0.6;"/><path d="M2114.63,1994.873c8.317,0 15.069,6.752 15.069,15.069c0,8.317 -6.752,15.069 -15.069,15.069c-8.317,0 -15.069,-6.752 -15.069,-15.069c0,-8.317 6.752,-15.069 15.069,-15.069Z" style="fill:#e8b7ae;fill-opacity:0.6;"/><path d="M2287.703,2025.012c-8.317,0 -15.069,-6.752 -15.069,-15.069c0,-8.317 6.752,-15.069 15.069,-15.069c8.317,0 15.069,6.752 15.069,15.069c0,8.317 -6.752,15.069 -15.069,15.069Z" style="fill:#e8b7ae;fill-opacity:0.6;"/><path d="M2150.631,1938.096c5.881,5.881 5.881,15.43 0,21.311c-5.881,5.881 -15.43,5.881 -21.311,-0c-5.881,-5.881 -5.881,-15.43 -0,-21.311c5.881,-5.881 15.43,-5.881 21.311,-0Z" style="fill:#e8b7ae;fill-opacity:0.6;"/><path d="M2251.701,2081.789c-5.881,-5.881 -5.881,-15.43 0,-21.311c5.881,-5.881 15.43,-5.881 21.311,0c5.881,5.881 5.881,15.43 0,21.311c-5.881,5.881 -15.43,5.881 -21.311,0Z" style="fill:#e8b7ae;fill-opacity:0.6;"/><path d="M2138.348,2009.942c0,-34.67 28.148,-62.818 62.818,-62.818c34.67,0 62.818,28.148 62.818,62.818c0,34.67 -28.148,62.818 -62.818,62.818c-34.67,0 -62.818,-28.148 -62.818,-62.818Z" style="fill:#e8b7ae;"/></g></g><g id="table_2"><g id="table10" serif:id="table"><path d="M1944.341,1705.02c0,-8.317 6.752,-15.069 15.069,-15.069c8.317,0 15.069,6.752 15.069,15.069c0,8.317 -6.752,15.069 -15.069,15.069c-8.317,0 -15.069,-6.752 -15.069,-15.069Z" style="fill:#e8b7ae;fill-opacity:0.6;"/><path d="M1974.48,1531.947c0,8.317 -6.752,15.069 -15.069,15.069c-8.317,0 -15.069,-6.752 -15.069,-15.069c0,-8.317 6.752,-15.069 15.069,-15.069c8.317,0 15.069,6.752 15.069,15.069Z" style="fill:#e8b7ae;fill-opacity:0.6;"/><path d="M1887.564,1669.018c5.881,-5.881 15.43,-5.881 21.311,0c5.881,5.881 5.881,15.43 -0,21.311c-5.881,5.881 -15.43,5.881 -21.311,0c-5.881,-5.881 -5.881,-15.43 -0,-21.311Z" style="fill:#e8b7ae;fill-opacity:0.6;"/><path d="M2031.256,1567.948c-5.881,5.881 -15.43,5.881 -21.311,0c-5.881,-5.881 -5.881,-15.43 0,-21.311c5.881,-5.881 15.43,-5.881 21.311,0c5.881,5.881 5.881,15.43 0,21.311Z" style="fill:#e8b7ae;fill-opacity:0.6;"/><path d="M1872.873,1603.414c8.317,0 15.069,6.752 15.069,15.069c0,8.317 -6.752,15.069 -15.069,15.069c-8.317,0 -15.069,-6.752 -15.069,-15.069c0,-8.317 6.752,-15.069 15.069,-15.069Z" style="fill:#e8b7ae;fill-opacity:0.6;"/><path d="M2045.947,1633.553c-8.317,0 -15.069,-6.752 -15.069,-15.069c0,-8.317 6.752,-15.069 15.069,-15.069c8.317,0 15.069,6.752 15.069,15.069c0,8.317 -6.752,15.069 -15.069,15.069Z" style="fill:#e8b7ae;fill-opacity:0.6;"/><path d="M1908.875,1546.637c5.881,5.881 5.881,15.43 0,21.311c-5.881,5.881 -15.43,5.881 -21.311,-0c-5.881,-5.881 -5.881,-15.43 -0,-21.311c5.881,-5.881 15.43,-5.881 21.311,-0Z" style="fill:#e8b7ae;fill-opacity:0.6;"/><path d="M2009.945,1690.33c-5.881,-5.881 -5.881,-15.43 0,-21.311c5.881,-5.881 15.43,-5.881 21.311,0c5.881,5.881 5.881,15.43 0,21.311c-5.881,5.881 -15.43,5.881 -21.311,0Z" style="fill:#e8b7ae;fill-opacity:0.6;"/><path d="M1896.592,1618.483c0,-34.67 28.148,-62.818 62.818,-62.818c34.67,0 62.818,28.148 62.818,62.818c0,34.67 -28.148,62.818 -62.818,62.818c-34.67,0 -62.818,-28.148 -62.818,-62.818Z" style="fill:#e8b7ae;"/></g></g><g id="table_1"><g id="table11" serif:id="table"><path d="M1928.429,1996.645c0,-8.317 6.752,-15.069 15.069,-15.069c8.317,0 15.069,6.752 15.069,15.069c0,8.317 -6.752,15.069 -15.069,15.069c-8.317,0 -15.069,-6.752 -15.069,-15.069Z" style="fill:#e8b7ae;fill-opacity:0.6;"/><path d="M1958.568,1823.572c0,8.317 -6.752,15.069 -15.069,15.069c-8.317,0 -15.069,-6.752 -15.069,-15.069c0,-8.317 6.752,-15.069 15.069,-15.069c8.317,0 15.069,6.752 15.069,15.069Z" style="fill:#e8b7ae;fill-opacity:0.6;"/><path d="M1871.652,1960.643c5.881,-5.881 15.43,-5.881 21.311,0c5.881,5.881 5.881,15.43 -0,21.311c-5.881,5.881 -15.43,5.881 -21.311,0c-5.881,-5.881 -5.881,-15.43 -0,-21.311Z" style="fill:#e8b7ae;fill-opacity:0.6;"/><path d="M2015.345,1859.573c-5.881,5.881 -15.43,5.881 -21.311,0c-5.881,-5.881 -5.881,-15.43 0,-21.311c5.881,-5.881 15.43,-5.881 21.311,0c5.881,5.881 5.881,15.43 0,21.311Z" style="fill:#e8b7ae;fill-opacity:0.6;"/><path d="M1856.962,1895.039c8.317,0 15.069,6.752 15.069,15.069c0,8.317 -6.752,15.069 -15.069,15.069c-8.317,0 -15.069,-6.752 -15.069,-15.069c0,-8.317 6.752,-15.069 15.069,-15.069Z" style="fill:#e8b7ae;fill-opacity:0.6;"/><path d="M2030.035,1925.178c-8.317,0 -15.069,-6.752 -15.069,-15.069c0,-8.317 6.752,-15.069 15.069,-15.069c8.317,0 15.069,6.752 15.069,15.069c0,8.317 -6.752,15.069 -15.069,15.069Z" style="fill:#e8b7ae;fill-opacity:0.6;"/><path d="M1892.963,1838.262c5.881,5.881 5.881,15.43 0,21.311c-5.881,5.881 -15.43,5.881 -21.311,-0c-5.881,-5.881 -5.881,-15.43 -0,-21.311c5.881,-5.881 15.43,-5.881 21.311,-0Z" style="fill:#e8b7ae;fill-opacity:0.6;"/><path d="M1994.033,1981.955c-5.881,-5.881 -5.881,-15.43 0,-21.311c5.881,-5.881 15.43,-5.881 21.311,0c5.881,5.881 5.881,15.43 0,21.311c-5.881,5.881 -15.43,5.881 -21.311,0Z" style="fill:#e8b7ae;fill-opacity:0.6;"/><path d="M1880.68,1910.108c0,-34.67 28.148,-62.818 62.818,-62.818c34.67,0 62.818,28.148 62.818,62.818c0,34.67 -28.148,62.818 -62.818,62.818c-34.67,0 -62.818,-28.148 -62.818,-62.818Z" style="fill:#e8b7ae;"/></g></g></g><g id="ceremony_seating"><g><g><g id="chair"><path d="M3325.218,756.576c-2.241,-8.364 -10.85,-13.336 -19.215,-11.096c-8.364,2.241 -13.336,10.85 -11.096,19.215c2.241,8.364 10.85,13.336 19.215,11.096c8.364,-2.241 13.336,-10.85 11.096,-19.215Z" style="fill:#fff;"/></g><g id="chair1" serif:id="chair"><path d="M3273.492,770.432c-2.241,-8.364 -10.85,-13.336 -19.215,-11.096c-8.364,2.241 -13.336,10.85 -11.096,19.215c2.241,8.364 10.85,13.336 19.215,11.096c8.364,-2.241 13.336,-10.85 11.096,-19.215Z" style="fill:#fff;"/></g><g id="chair2" serif:id="chair"><path d="M3016.275,841.118c-2.241,-8.364 -10.85,-13.336 -19.215,-11.096c-8.364,2.241 -13.336,10.85 -11.096,19.215c2.241,8.364 10.85,13.336 19.215,11.096c8.364,-2.241 13.336,-10.85 11.096,-19.215Z" style="fill:#fff;"/></g><g id="chair3" serif:id="chair"><path d="M3068,827.262c-2.241,-8.364 -10.85,-13.336 -19.215,-11.096c-8.364,2.241 -13.336,10.85 -11.096,19.215c2.241,8.364 10.85,13.336 19.215,11.096c8.364,-2.241 13.336,-10.85 11.096,-19.215Z" style="fill:#fff;"/></g><g id="chair4" serif:id="chair"><path d="M3119.725,813.407c-2.241,-8.364 -10.85,-13.336 -19.215,-11.096c-8.364,2.241 -13.336,10.85 -11.096,19.215c2.241,8.364 10.85,13.336 19.215,11.096c8.364,-2.241 13.336,-10.85 11.096,-19.215Z" style="fill:#fff;"/></g><g id="chair5" serif:id="chair"><path d="M3170.042,798.143c-2.241,-8.364 -10.85,-13.336 -19.215,-11.096c-8.364,2.241 -13.336,10.85 -11.096,19.215c2.241,8.364 10.85,13.336 19.215,11.096c8.364,-2.241 13.336,-10.85 11.096,-19.215Z" style="fill:#fff;"/></g><g id="chair6" serif:id="chair"><path d="M3221.767,784.287c-2.241,-8.364 -10.85,-13.336 -19.215,-11.096c-8.364,2.241 -13.336,10.85 -11.096,19.215c2.241,8.364 10.85,13.336 19.215,11.096c8.364,-2.241 13.336,-10.85 11.096,-19.215Z" style="fill:#fff;"/></g></g><g><g id="chair7" serif:id="chair"><path d="M3318.126,683.303c-2.241,-8.364 -10.85,-13.336 -19.215,-11.096c-8.364,2.241 -13.336,10.85 -11.096,19.215c2.241,8.364 10.85,13.336 19.215,11.096c8.364,-2.241 13.336,-10.85 11.096,-19.215Z" style="fill:#fff;"/></g><g id="chair8" serif:id="chair"><path d="M3266.401,697.158c-2.241,-8.364 -10.85,-13.336 -19.215,-11.096c-8.364,2.241 -13.336,10.85 -11.096,19.215c2.241,8.364 10.85,13.336 19.215,11.096c8.364,-2.241 13.336,-10.85 11.096,-19.215Z" style="fill:#fff;"/></g><g id="chair9" serif:id="chair"><path d="M3009.183,767.844c-2.241,-8.364 -10.85,-13.336 -19.215,-11.096c-8.364,2.241 -13.336,10.85 -11.096,19.215c2.241,8.364 10.85,13.336 19.215,11.096c8.364,-2.241 13.336,-10.85 11.096,-19.215Z" style="fill:#fff;"/></g><g id="chair10" serif:id="chair"><path d="M3060.909,753.989c-2.241,-8.364 -10.85,-13.336 -19.215,-11.096c-8.364,2.241 -13.336,10.85 -11.096,19.215c2.241,8.364 10.85,13.336 19.215,11.096c8.364,-2.241 13.336,-10.85 11.096,-19.215Z" style="fill:#fff;"/></g><g id="chair11" serif:id="chair"><path d="M3112.634,740.133c-2.241,-8.364 -10.85,-13.336 -19.215,-11.096c-8.364,2.241 -13.336,10.85 -11.096,19.215c2.241,8.364 10.85,13.336 19.215,11.096c8.364,-2.241 13.336,-10.85 11.096,-19.215Z" style="fill:#fff;"/></g><g id="chair12" serif:id="chair"><path d="M3162.95,724.869c-2.241,-8.364 -10.85,-13.336 -19.215,-11.096c-8.364,2.241 -13.336,10.85 -11.096,19.215c2.241,8.364 10.85,13.336 19.215,11.096c8.364,-2.241 13.336,-10.85 11.096,-19.215Z" style="fill:#fff;"/></g><g id="chair13" serif:id="chair"><path d="M3214.676,711.014c-2.241,-8.364 -10.85,-13.336 -19.215,-11.096c-8.364,2.241 -13.336,10.85 -11.096,19.215c2.241,8.364 10.85,13.336 19.215,11.096c8.364,-2.241 13.336,-10.85 11.096,-19.215Z" style="fill:#fff;"/></g></g><g><g id="chair14" serif:id="chair"><path d="M3311.007,607.654c-2.241,-8.364 -10.85,-13.336 -19.215,-11.096c-8.364,2.241 -13.336,10.85 -11.096,19.215c2.241,8.364 10.85,13.336 19.215,11.096c8.364,-2.241 13.336,-10.85 11.096,-19.215Z" style="fill:#fff;"/></g><g id="chair15" serif:id="chair"><path d="M3259.282,621.51c-2.241,-8.364 -10.85,-13.336 -19.215,-11.096c-8.364,2.241 -13.336,10.85 -11.096,19.215c2.241,8.364 10.85,13.336 19.215,11.096c8.364,-2.241 13.336,-10.85 11.096,-19.215Z" style="fill:#fff;"/></g><g id="chair16" serif:id="chair"><path d="M3002.064,692.196c-2.241,-8.364 -10.85,-13.336 -19.215,-11.096c-8.364,2.241 -13.336,10.85 -11.096,19.215c2.241,8.364 10.85,13.336 19.215,11.096c8.364,-2.241 13.336,-10.85 11.096,-19.215Z" style="fill:#fff;"/></g><g id="chair17" serif:id="chair"><path d="M3053.789,678.34c-2.241,-8.364 -10.85,-13.336 -19.215,-11.096c-8.364,2.241 -13.336,10.85 -11.096,19.215c2.241,8.364 10.85,13.336 19.215,11.096c8.364,-2.241 13.336,-10.85 11.096,-19.215Z" style="fill:#fff;"/></g><g id="chair18" serif:id="chair"><path d="M3105.515,664.485c-2.241,-8.364 -10.85,-13.336 -19.215,-11.096c-8.364,2.241 -13.336,10.85 -11.096,19.215c2.241,8.364 10.85,13.336 19.215,11.096c8.364,-2.241 13.336,-10.85 11.096,-19.215Z" style="fill:#fff;"/></g><g id="chair19" serif:id="chair"><path d="M3155.831,649.22c-2.241,-8.364 -10.85,-13.336 -19.215,-11.096c-8.364,2.241 -13.336,10.85 -11.096,19.215c2.241,8.364 10.85,13.336 19.215,11.096c8.364,-2.241 13.336,-10.85 11.096,-19.215Z" style="fill:#fff;"/></g><g id="chair20" serif:id="chair"><path d="M3207.556,635.365c-2.241,-8.364 -10.85,-13.336 -19.215,-11.096c-8.364,2.241 -13.336,10.85 -11.096,19.215c2.241,8.364 10.85,13.336 19.215,11.096c8.364,-2.241 13.336,-10.85 11.096,-19.215Z" style="fill:#fff;"/></g></g><g><g id="chair21" serif:id="chair"><path d="M3303.89,536.798c-2.241,-8.364 -10.85,-13.336 -19.215,-11.096c-8.364,2.241 -13.336,10.85 -11.096,19.215c2.241,8.364 10.85,13.336 19.215,11.096c8.364,-2.241 13.336,-10.85 11.096,-19.215Z" style="fill:#fff;"/></g><g id="chair22" serif:id="chair"><path d="M3252.164,550.654c-2.241,-8.364 -10.85,-13.336 -19.215,-11.096c-8.364,2.241 -13.336,10.85 -11.096,19.215c2.241,8.364 10.85,13.336 19.215,11.096c8.364,-2.241 13.336,-10.85 11.096,-19.215Z" style="fill:#fff;"/></g><g id="chair23" serif:id="chair"><path d="M2994.947,621.34c-2.241,-8.364 -10.85,-13.336 -19.215,-11.096c-8.364,2.241 -13.336,10.85 -11.096,19.215c2.241,8.364 10.85,13.336 19.215,11.096c8.364,-2.241 13.336,-10.85 11.096,-19.215Z" style="fill:#fff;"/></g><g id="chair24" serif:id="chair"><path d="M3046.672,607.484c-2.241,-8.364 -10.85,-13.336 -19.215,-11.096c-8.364,2.241 -13.336,10.85 -11.096,19.215c2.241,8.364 10.85,13.336 19.215,11.096c8.364,-2.241 13.336,-10.85 11.096,-19.215Z" style="fill:#fff;"/></g><g id="chair25" serif:id="chair"><path d="M3098.398,593.629c-2.241,-8.364 -10.85,-13.336 -19.215,-11.096c-8.364,2.241 -13.336,10.85 -11.096,19.215c2.241,8.364 10.85,13.336 19.215,11.096c8.364,-2.241 13.336,-10.85 11.096,-19.215Z" style="fill:#fff;"/></g><g id="chair26" serif:id="chair"><path d="M3148.714,578.365c-2.241,-8.364 -10.85,-13.336 -19.215,-11.096c-8.364,2.241 -13.336,10.85 -11.096,19.215c2.241,8.364 10.85,13.336 19.215,11.096c8.364,-2.241 13.336,-10.85 11.096,-19.215Z" style="fill:#fff;"/></g><g id="chair27" serif:id="chair"><path d="M3200.439,564.509c-2.241,-8.364 -10.85,-13.336 -19.215,-11.096c-8.364,2.241 -13.336,10.85 -11.096,19.215c2.241,8.364 10.85,13.336 19.215,11.096c8.364,-2.241 13.336,-10.85 11.096,-19.215Z" style="fill:#fff;"/></g></g><g><g id="chair28" serif:id="chair"><path d="M3296.798,460.565c-2.241,-8.364 -10.85,-13.336 -19.215,-11.096c-8.364,2.241 -13.336,10.85 -11.096,19.215c2.241,8.364 10.85,13.336 19.215,11.096c8.364,-2.241 13.336,-10.85 11.096,-19.215Z" style="fill:#fff;"/></g><g id="chair29" serif:id="chair"><path d="M3245.073,474.42c-2.241,-8.364 -10.85,-13.336 -19.215,-11.096c-8.364,2.241 -13.336,10.85 -11.096,19.215c2.241,8.364 10.85,13.336 19.215,11.096c8.364,-2.241 13.336,-10.85 11.096,-19.215Z" style="fill:#fff;"/></g><g id="chair30" serif:id="chair"><path d="M2987.856,545.106c-2.241,-8.364 -10.85,-13.336 -19.215,-11.096c-8.364,2.241 -13.336,10.85 -11.096,19.215c2.241,8.364 10.85,13.336 19.215,11.096c8.364,-2.241 13.336,-10.85 11.096,-19.215Z" style="fill:#fff;"/></g><g id="chair31" serif:id="chair"><path d="M3039.581,531.251c-2.241,-8.364 -10.85,-13.336 -19.215,-11.096c-8.364,2.241 -13.336,10.85 -11.096,19.215c2.241,8.364 10.85,13.336 19.215,11.096c8.364,-2.241 13.336,-10.85 11.096,-19.215Z" style="fill:#fff;"/></g><g id="chair32" serif:id="chair"><path d="M3091.306,517.395c-2.241,-8.364 -10.85,-13.336 -19.215,-11.096c-8.364,2.241 -13.336,10.85 -11.096,19.215c2.241,8.364 10.85,13.336 19.215,11.096c8.364,-2.241 13.336,-10.85 11.096,-19.215Z" style="fill:#fff;"/></g><g id="chair33" serif:id="chair"><path d="M3141.622,502.131c-2.241,-8.364 -10.85,-13.336 -19.215,-11.096c-8.364,2.241 -13.336,10.85 -11.096,19.215c2.241,8.364 10.85,13.336 19.215,11.096c8.364,-2.241 13.336,-10.85 11.096,-19.215Z" style="fill:#fff;"/></g><g id="chair34" serif:id="chair"><path d="M3193.348,488.276c-2.241,-8.364 -10.85,-13.336 -19.215,-11.096c-8.364,2.241 -13.336,10.85 -11.096,19.215c2.241,8.364 10.85,13.336 19.215,11.096c8.364,-2.241 13.336,-10.85 11.096,-19.215Z" style="fill:#fff;"/></g></g><g><g id="chair35" serif:id="chair"><path d="M3286.161,386.104c-2.241,-8.364 -10.85,-13.336 -19.215,-11.096c-8.364,2.241 -13.336,10.85 -11.096,19.215c2.241,8.364 10.85,13.336 19.215,11.096c8.364,-2.241 13.336,-10.85 11.096,-19.215Z" style="fill:#fff;"/></g><g id="chair36" serif:id="chair"><path d="M3234.436,399.96c-2.241,-8.364 -10.85,-13.336 -19.215,-11.096c-8.364,2.241 -13.336,10.85 -11.096,19.215c2.241,8.364 10.85,13.336 19.215,11.096c8.364,-2.241 13.336,-10.85 11.096,-19.215Z" style="fill:#fff;"/></g><g id="chair37" serif:id="chair"><path d="M2977.218,470.646c-2.241,-8.364 -10.85,-13.336 -19.215,-11.096c-8.364,2.241 -13.336,10.85 -11.096,19.215c2.241,8.364 10.85,13.336 19.215,11.096c8.364,-2.241 13.336,-10.85 11.096,-19.215Z" style="fill:#fff;"/></g><g id="chair38" serif:id="chair"><path d="M3028.944,456.79c-2.241,-8.364 -10.85,-13.336 -19.215,-11.096c-8.364,2.241 -13.336,10.85 -11.096,19.215c2.241,8.364 10.85,13.336 19.215,11.096c8.364,-2.241 13.336,-10.85 11.096,-19.215Z" style="fill:#fff;"/></g><g id="chair39" serif:id="chair"><path d="M3080.669,442.935c-2.241,-8.364 -10.85,-13.336 -19.215,-11.096c-8.364,2.241 -13.336,10.85 -11.096,19.215c2.241,8.364 10.85,13.336 19.215,11.096c8.364,-2.241 13.336,-10.85 11.096,-19.215Z" style="fill:#fff;"/></g><g id="chair40" serif:id="chair"><path d="M3130.985,427.67c-2.241,-8.364 -10.85,-13.336 -19.215,-11.096c-8.364,2.241 -13.336,10.85 -11.096,19.215c2.241,8.364 10.85,13.336 19.215,11.096c8.364,-2.241 13.336,-10.85 11.096,-19.215Z" style="fill:#fff;"/></g><g id="chair41" serif:id="chair"><path d="M3182.71,413.815c-2.241,-8.364 -10.85,-13.336 -19.215,-11.096c-8.364,2.241 -13.336,10.85 -11.096,19.215c2.241,8.364 10.85,13.336 19.215,11.096c8.364,-2.241 13.336,-10.85 11.096,-19.215Z" style="fill:#fff;"/></g></g></g><g><g><g id="chair42" serif:id="chair"><path d="M2480.413,832.719c0.696,-8.631 8.269,-15.074 16.9,-14.378c8.631,0.696 15.074,8.269 14.378,16.9c-0.696,8.631 -8.269,15.074 -16.9,14.378c-8.631,-0.696 -15.074,-8.269 -14.378,-16.9Z" style="fill:#fff;"/></g><g id="chair43" serif:id="chair"><path d="M2533.788,837.024c0.696,-8.631 8.269,-15.074 16.9,-14.378c8.631,0.696 15.074,8.269 14.378,16.9c-0.696,8.631 -8.269,15.074 -16.9,14.378c-8.631,-0.696 -15.074,-8.269 -14.378,-16.9Z" style="fill:#fff;"/></g><g id="chair44" serif:id="chair"><path d="M2799.534,860.187c0.696,-8.631 8.269,-15.074 16.9,-14.378c8.631,0.696 15.074,8.269 14.378,16.9c-0.696,8.631 -8.269,15.074 -16.9,14.378c-8.631,-0.696 -15.074,-8.269 -14.378,-16.9Z" style="fill:#fff;"/></g><g id="chair45" serif:id="chair"><path d="M2746.159,855.882c0.696,-8.631 8.269,-15.074 16.9,-14.378c8.631,0.696 15.074,8.269 14.378,16.9c-0.696,8.631 -8.269,15.074 -16.9,14.378c-8.631,-0.696 -15.074,-8.269 -14.378,-16.9Z" style="fill:#fff;"/></g><g id="chair46" serif:id="chair"><path d="M2692.783,851.578c0.696,-8.631 8.269,-15.074 16.9,-14.378c8.631,0.696 15.074,8.269 14.378,16.9c-0.696,8.631 -8.269,15.074 -16.9,14.378c-8.631,-0.696 -15.074,-8.269 -14.378,-16.9Z" style="fill:#fff;"/></g><g id="chair47" serif:id="chair"><path d="M2640.539,845.633c0.696,-8.631 8.269,-15.074 16.9,-14.378c8.631,0.696 15.074,8.269 14.378,16.9c-0.696,8.631 -8.269,15.074 -16.9,14.378c-8.631,-0.696 -15.074,-8.269 -14.378,-16.9Z" style="fill:#fff;"/></g><g id="chair48" serif:id="chair"><path d="M2587.164,841.328c0.696,-8.631 8.269,-15.074 16.9,-14.378c8.631,0.696 15.074,8.269 14.378,16.9c-0.696,8.631 -8.269,15.074 -16.9,14.378c-8.631,-0.696 -15.074,-8.269 -14.378,-16.9Z" style="fill:#fff;"/></g></g><g><g id="chair49" serif:id="chair"><path d="M2474.18,759.367c0.696,-8.631 8.269,-15.074 16.9,-14.378c8.631,0.696 15.074,8.269 14.378,16.9c-0.696,8.631 -8.269,15.074 -16.9,14.378c-8.631,-0.696 -15.074,-8.269 -14.378,-16.9Z" style="fill:#fff;"/></g><g id="chair50" serif:id="chair"><path d="M2527.556,763.672c0.696,-8.631 8.269,-15.074 16.9,-14.378c8.631,0.696 15.074,8.269 14.378,16.9c-0.696,8.631 -8.269,15.074 -16.9,14.378c-8.631,-0.696 -15.074,-8.269 -14.378,-16.9Z" style="fill:#fff;"/></g><g id="chair51" serif:id="chair"><path d="M2793.302,786.836c0.696,-8.631 8.269,-15.074 16.9,-14.378c8.631,0.696 15.074,8.269 14.378,16.9c-0.696,8.631 -8.269,15.074 -16.9,14.378c-8.631,-0.696 -15.074,-8.269 -14.378,-16.9Z" style="fill:#fff;"/></g><g id="chair52" serif:id="chair"><path d="M2739.926,782.531c0.696,-8.631 8.269,-15.074 16.9,-14.378c8.631,0.696 15.074,8.269 14.378,16.9c-0.696,8.631 -8.269,15.074 -16.9,14.378c-8.631,-0.696 -15.074,-8.269 -14.378,-16.9Z" style="fill:#fff;"/></g><g id="chair53" serif:id="chair"><path d="M2686.551,778.226c0.696,-8.631 8.269,-15.074 16.9,-14.378c8.631,0.696 15.074,8.269 14.378,16.9c-0.696,8.631 -8.269,15.074 -16.9,14.378c-8.631,-0.696 -15.074,-8.269 -14.378,-16.9Z" style="fill:#fff;"/></g><g id="chair54" serif:id="chair"><path d="M2634.307,772.282c0.696,-8.631 8.269,-15.074 16.9,-14.378c8.631,0.696 15.074,8.269 14.378,16.9c-0.696,8.631 -8.269,15.074 -16.9,14.378c-8.631,-0.696 -15.074,-8.269 -14.378,-16.9Z" style="fill:#fff;"/></g><g id="chair55" serif:id="chair"><path d="M2580.931,767.977c0.696,-8.631 8.269,-15.074 16.9,-14.378c8.631,0.696 15.074,8.269 14.378,16.9c-0.696,8.631 -8.269,15.074 -16.9,14.378c-8.631,-0.696 -15.074,-8.269 -14.378,-16.9Z" style="fill:#fff;"/></g></g><g><g id="chair56" serif:id="chair"><path d="M2467.547,683.675c0.696,-8.631 8.269,-15.074 16.9,-14.378c8.631,0.696 15.074,8.269 14.378,16.9c-0.696,8.631 -8.269,15.074 -16.9,14.378c-8.631,-0.696 -15.074,-8.269 -14.378,-16.9Z" style="fill:#fff;"/></g><g id="chair57" serif:id="chair"><path d="M2520.923,687.979c0.696,-8.631 8.269,-15.074 16.9,-14.378c8.631,0.696 15.074,8.269 14.378,16.9c-0.696,8.631 -8.269,15.074 -16.9,14.378c-8.631,-0.696 -15.074,-8.269 -14.378,-16.9Z" style="fill:#fff;"/></g><g id="chair58" serif:id="chair"><path d="M2786.668,711.143c0.696,-8.631 8.269,-15.074 16.9,-14.378c8.631,0.696 15.074,8.269 14.378,16.9c-0.696,8.631 -8.269,15.074 -16.9,14.378c-8.631,-0.696 -15.074,-8.269 -14.378,-16.9Z" style="fill:#fff;"/></g><g id="chair59" serif:id="chair"><path d="M2733.293,706.838c0.696,-8.631 8.269,-15.074 16.9,-14.378c8.631,0.696 15.074,8.269 14.378,16.9c-0.696,8.631 -8.269,15.074 -16.9,14.378c-8.631,-0.696 -15.074,-8.269 -14.378,-16.9Z" style="fill:#fff;"/></g><g id="chair60" serif:id="chair"><path d="M2679.917,702.533c0.696,-8.631 8.269,-15.074 16.9,-14.378c8.631,0.696 15.074,8.269 14.378,16.9c-0.696,8.631 -8.269,15.074 -16.9,14.378c-8.631,-0.696 -15.074,-8.269 -14.378,-16.9Z" style="fill:#fff;"/></g><g id="chair61" serif:id="chair"><path d="M2627.674,696.589c0.696,-8.631 8.269,-15.074 16.9,-14.378c8.631,0.696 15.074,8.269 14.378,16.9c-0.696,8.631 -8.269,15.074 -16.9,14.378c-8.631,-0.696 -15.074,-8.269 -14.378,-16.9Z" style="fill:#fff;"/></g><g id="chair62" serif:id="chair"><path d="M2574.298,692.284c0.696,-8.631 8.269,-15.074 16.9,-14.378c8.631,0.696 15.074,8.269 14.378,16.9c-0.696,8.631 -8.269,15.074 -16.9,14.378c-8.631,-0.696 -15.074,-8.269 -14.378,-16.9Z" style="fill:#fff;"/></g></g><g><g id="chair63" serif:id="chair"><path d="M2461.776,612.696c0.696,-8.631 8.269,-15.074 16.9,-14.378c8.631,0.696 15.074,8.269 14.378,16.9c-0.696,8.631 -8.269,15.074 -16.9,14.378c-8.631,-0.696 -15.074,-8.269 -14.378,-16.9Z" style="fill:#fff;"/></g><g id="chair64" serif:id="chair"><path d="M2515.151,617.001c0.696,-8.631 8.269,-15.074 16.9,-14.378c8.631,0.696 15.074,8.269 14.378,16.9c-0.696,8.631 -8.269,15.074 -16.9,14.378c-8.631,-0.696 -15.074,-8.269 -14.378,-16.9Z" style="fill:#fff;"/></g><g id="chair65" serif:id="chair"><path d="M2780.897,640.165c0.696,-8.631 8.269,-15.074 16.9,-14.378c8.631,0.696 15.074,8.269 14.378,16.9c-0.696,8.631 -8.269,15.074 -16.9,14.378c-8.631,-0.696 -15.074,-8.269 -14.378,-16.9Z" style="fill:#fff;"/></g><g id="chair66" serif:id="chair"><path d="M2727.521,635.86c0.696,-8.631 8.269,-15.074 16.9,-14.378c8.631,0.696 15.074,8.269 14.378,16.9c-0.696,8.631 -8.269,15.074 -16.9,14.378c-8.631,-0.696 -15.074,-8.269 -14.378,-16.9Z" style="fill:#fff;"/></g><g id="chair67" serif:id="chair"><path d="M2674.146,631.555c0.696,-8.631 8.269,-15.074 16.9,-14.378c8.631,0.696 15.074,8.269 14.378,16.9c-0.696,8.631 -8.269,15.074 -16.9,14.378c-8.631,-0.696 -15.074,-8.269 -14.378,-16.9Z" style="fill:#fff;"/></g><g id="chair68" serif:id="chair"><path d="M2621.902,625.611c0.696,-8.631 8.269,-15.074 16.9,-14.378c8.631,0.696 15.074,8.269 14.378,16.9c-0.696,8.631 -8.269,15.074 -16.9,14.378c-8.631,-0.696 -15.074,-8.269 -14.378,-16.9Z" style="fill:#fff;"/></g><g id="chair69" serif:id="chair"><path d="M2568.527,621.306c0.696,-8.631 8.269,-15.074 16.9,-14.378c8.631,0.696 15.074,8.269 14.378,16.9c-0.696,8.631 -8.269,15.074 -16.9,14.378c-8.631,-0.696 -15.074,-8.269 -14.378,-16.9Z" style="fill:#fff;"/></g></g><g><g id="chair70" serif:id="chair"><path d="M2455.01,536.433c0.696,-8.631 8.269,-15.074 16.9,-14.378c8.631,0.696 15.074,8.269 14.378,16.9c-0.696,8.631 -8.269,15.074 -16.9,14.378c-8.631,-0.696 -15.074,-8.269 -14.378,-16.9Z" style="fill:#fff;"/></g><g id="chair71" serif:id="chair"><path d="M2508.385,540.738c0.696,-8.631 8.269,-15.074 16.9,-14.378c8.631,0.696 15.074,8.269 14.378,16.9c-0.696,8.631 -8.269,15.074 -16.9,14.378c-8.631,-0.696 -15.074,-8.269 -14.378,-16.9Z" style="fill:#fff;"/></g><g id="chair72" serif:id="chair"><path d="M2774.131,563.902c0.696,-8.631 8.269,-15.074 16.9,-14.378c8.631,0.696 15.074,8.269 14.378,16.9c-0.696,8.631 -8.269,15.074 -16.9,14.378c-8.631,-0.696 -15.074,-8.269 -14.378,-16.9Z" style="fill:#fff;"/></g><g id="chair73" serif:id="chair"><path d="M2720.755,559.597c0.696,-8.631 8.269,-15.074 16.9,-14.378c8.631,0.696 15.074,8.269 14.378,16.9c-0.696,8.631 -8.269,15.074 -16.9,14.378c-8.631,-0.696 -15.074,-8.269 -14.378,-16.9Z" style="fill:#fff;"/></g><g id="chair74" serif:id="chair"><path d="M2667.38,555.292c0.696,-8.631 8.269,-15.074 16.9,-14.378c8.631,0.696 15.074,8.269 14.378,16.9c-0.696,8.631 -8.269,15.074 -16.9,14.378c-8.631,-0.696 -15.074,-8.269 -14.378,-16.9Z" style="fill:#fff;"/></g><g id="chair75" serif:id="chair"><path d="M2615.136,549.348c0.696,-8.631 8.269,-15.074 16.9,-14.378c8.631,0.696 15.074,8.269 14.378,16.9c-0.696,8.631 -8.269,15.074 -16.9,14.378c-8.631,-0.696 -15.074,-8.269 -14.378,-16.9Z" style="fill:#fff;"/></g><g id="chair76" serif:id="chair"><path d="M2561.761,545.043c0.696,-8.631 8.269,-15.074 16.9,-14.378c8.631,0.696 15.074,8.269 14.378,16.9c-0.696,8.631 -8.269,15.074 -16.9,14.378c-8.631,-0.696 -15.074,-8.269 -14.378,-16.9Z" style="fill:#fff;"/></g></g><g><g id="chair77" serif:id="chair"><path d="M2452.051,461.275c0.696,-8.631 8.269,-15.074 16.9,-14.378c8.631,0.696 15.074,8.269 14.378,16.9c-0.696,8.631 -8.269,15.074 -16.9,14.378c-8.631,-0.696 -15.074,-8.269 -14.378,-16.9Z" style="fill:#fff;"/></g><g id="chair78" serif:id="chair"><path d="M2505.426,465.58c0.696,-8.631 8.269,-15.074 16.9,-14.378c8.631,0.696 15.074,8.269 14.378,16.9c-0.696,8.631 -8.269,15.074 -16.9,14.378c-8.631,-0.696 -15.074,-8.269 -14.378,-16.9Z" style="fill:#fff;"/></g><g id="chair79" serif:id="chair"><path d="M2771.172,488.743c0.696,-8.631 8.269,-15.074 16.9,-14.378c8.631,0.696 15.074,8.269 14.378,16.9c-0.696,8.631 -8.269,15.074 -16.9,14.378c-8.631,-0.696 -15.074,-8.269 -14.378,-16.9Z" style="fill:#fff;"/></g><g id="chair80" serif:id="chair"><path d="M2717.797,484.439c0.696,-8.631 8.269,-15.074 16.9,-14.378c8.631,0.696 15.074,8.269 14.378,16.9c-0.696,8.631 -8.269,15.074 -16.9,14.378c-8.631,-0.696 -15.074,-8.269 -14.378,-16.9Z" style="fill:#fff;"/></g><g id="chair81" serif:id="chair"><path d="M2664.421,480.134c0.696,-8.631 8.269,-15.074 16.9,-14.378c8.631,0.696 15.074,8.269 14.378,16.9c-0.696,8.631 -8.269,15.074 -16.9,14.378c-8.631,-0.696 -15.074,-8.269 -14.378,-16.9Z" style="fill:#fff;"/></g><g id="chair82" serif:id="chair"><path d="M2612.177,474.189c0.696,-8.631 8.269,-15.074 16.9,-14.378c8.631,0.696 15.074,8.269 14.378,16.9c-0.696,8.631 -8.269,15.074 -16.9,14.378c-8.631,-0.696 -15.074,-8.269 -14.378,-16.9Z" style="fill:#fff;"/></g><g id="chair83" serif:id="chair"><path d="M2558.802,469.884c0.696,-8.631 8.269,-15.074 16.9,-14.378c8.631,0.696 15.074,8.269 14.378,16.9c-0.696,8.631 -8.269,15.074 -16.9,14.378c-8.631,-0.696 -15.074,-8.269 -14.378,-16.9Z" style="fill:#fff;"/></g></g></g></g><g id="sweetheart_table"><g><g><g><path d="M2790.689,1404.267c2.153,8.034 10.423,12.808 18.456,10.656c8.034,-2.153 12.808,-10.423 10.656,-18.456c-2.153,-8.034 -10.423,-12.808 -18.456,-10.656c-8.034,2.153 -12.808,10.423 -10.656,18.456Z" style="fill:#e8b7ae;fill-opacity:0.6;"/><path d="M2881.852,1404.267c-2.153,8.034 -10.423,12.808 -18.456,10.656c-8.034,-2.153 -12.808,-10.423 -10.656,-18.456c2.153,-8.034 10.423,-12.808 18.456,-10.656c8.034,2.153 12.808,10.423 10.656,18.456Z" style="fill:#e8b7ae;fill-opacity:0.6;"/></g></g></g><circle cx="2836.27" cy="1459.236" r="45.786" style="fill:#e8b7ae;"/></g><g id="activities"><path id="bar" d="M2254.927,1479.313c0,0 74.907,58.847 108.145,60.278c33.238,1.43 79.404,1.686 117.01,-37.23c37.606,-38.916 97.348,-68.004 124.101,-124.101c26.753,-56.097 23.934,-45.799 28.366,-63.823c3.531,-14.358 -11.681,-22.768 -1.773,-44.322c9.908,-21.554 24.525,-26.002 23.047,-35.457c-1.477,-9.455 -13.442,-15.178 -31.912,-21.274c-18.469,-6.096 -26.593,-8.864 -26.593,-8.864c0,0 -23.454,-52.981 -67.369,-76.234c-43.915,-23.252 -72.688,-28.366 -72.688,-28.366c0,0 -16.815,5.15 -26.593,-3.546c-9.778,-8.696 -9.495,-7.194 -14.183,-5.319c-5.91,2.364 -15.863,10.324 -21.274,19.502c-5.412,9.177 -10.637,12.41 -10.637,12.41c0,0 -74.565,50.145 -101.054,90.416c-26.488,40.271 -36.409,96.099 -37.23,132.965c-0.821,36.867 -3.546,39.003 -3.546,39.003c0,0 -37.692,64.434 -37.23,78.006c0.461,13.572 12.41,15.956 12.41,15.956l39.003,0Z" style="fill:#a99a8e;"/><path id="welcome_table" d="M1385.745,1908.766l41.146,35.477c2.839,2.448 3.156,6.739 0.709,9.578l-132.065,153.167c-2.448,2.839 -6.739,3.156 -9.578,0.709l-41.146,-35.477c-2.839,-2.448 -3.156,-6.739 -0.709,-9.578l132.065,-153.167c2.448,-2.839 6.739,-3.156 9.578,-0.709Z" style="fill:#a99a8e;"/><path id="dj" d="M3029.57,2185.656l-1.187,54.316c-0.082,3.747 -3.191,6.723 -6.938,6.641l-202.193,-4.42c-3.747,-0.082 -6.723,-3.191 -6.641,-6.938l1.187,-54.316c0.082,-3.747 3.191,-6.723 6.938,-6.641l202.193,4.42c3.747,0.082 6.723,3.191 6.641,6.938Z" style="fill:#a99a8e;"/><g id="guest_artist"><path d="M3490.201,1242.48l-35.354,41.252c-2.439,2.846 -6.73,3.176 -9.576,0.737l-153.562,-131.606c-2.846,-2.439 -3.176,-6.73 -0.737,-9.576l35.354,-41.252c2.439,-2.846 6.73,-3.176 9.576,-0.737l153.562,131.606c2.846,2.439 3.176,6.73 0.737,9.576Z" style="fill:#a99a8e;"/><path d="M3436.474,1162.734c-5.478,6.259 -15.006,6.893 -21.264,1.415c-6.259,-5.478 -6.893,-15.006 -1.415,-21.264c5.478,-6.259 15.006,-6.893 21.264,-1.415c6.259,5.478 6.893,15.006 1.415,21.264Z" style="fill:#a99a8e;fill-opacity:0.6;"/><path d="M3484.6,1204.267c-5.478,6.259 -15.006,6.893 -21.264,1.415c-6.259,-5.478 -6.893,-15.006 -1.415,-21.264c5.478,-6.259 15.006,-6.893 21.264,-1.415c6.259,5.478 6.893,15.006 1.415,21.264Z" style="fill:#a99a8e;fill-opacity:0.6;"/><path d="M3387.114,1122.125c-5.478,6.259 -15.006,6.893 -21.264,1.415c-6.259,-5.478 -6.893,-15.006 -1.415,-21.264c5.478,-6.259 15.006,-6.893 21.264,-1.415c6.259,5.478 6.893,15.006 1.415,21.264Z" style="fill:#a99a8e;fill-opacity:0.6;"/></g><path id="gift_table" d="M1663.039,2110.99l41.146,35.477c2.839,2.448 3.156,6.739 0.709,9.578l-132.065,153.167c-2.448,2.839 -6.739,3.156 -9.578,0.709l-41.146,-35.477c-2.839,-2.448 -3.156,-6.739 -0.709,-9.578l132.065,-153.167c2.448,-2.839 6.739,-3.156 9.578,-0.709Z" style="fill:#a99a8e;"/></g></g></g></svg>