<svg width="100%" height="100%" viewBox="750 844 2283 1637" version="1.1" xmlns="http://www.w3.org/2000/svg" xmlns:xlink="http://www.w3.org/1999/xlink" xml:space="preserve" xmlns:serif="http://www.serif.com/" style="fill-rule:evenodd;clip-rule:evenodd;stroke-linecap:round;stroke-linejoin:round;stroke-miterlimit:1.5;"><path id="reception_area" d="M2069.417,1333.75c87.502,37.241 166.306,-6.661 211,-55c44.694,-48.339 125.794,-79.146 174,-65c48.206,14.146 113.85,51.171 129,91c15.15,39.829 15,44 15,44c0,0 -35.456,20.565 -27,62c8.456,41.435 50,47 50,47l6,52l98,154l1,154c0,0 116.005,21.005 212,117c95.995,95.995 85.565,174.359 55,200c-30.565,25.641 -50,9 -50,9l-157,44c0,0 -72.999,22.904 -109,6c-36.001,-16.904 -90,-70 -90,-70c0,0 22.84,-59.743 25,-81c2.16,-21.257 3,-81 3,-81l-539,-21l0,9l16,0l-3,89l-98,-2l0,-33l-176,-1l-3,116l180,6l0,-6l94,2l-5,132c0,0 -39.279,43.187 -75,43c-35.721,-0.187 -75,-39 -75,-39c0,0 -0.79,6.951 -13,7c-12.21,0.049 -10,-8 -10,-8c0,0 -11.247,29.896 -45,29c-33.753,-0.896 -56.264,-23.484 -92,-63c-35.736,-39.516 -45.6,-53.931 -47,-82c-1.4,-28.069 1,-92 1,-92l-137,-121c0,0 -37.689,-41.861 -75,-33c-37.311,8.861 -95.745,84.646 -103,107c-7.255,22.354 -20.525,70.933 12,132c32.525,61.067 98.721,142.237 155,171c56.279,28.763 62,31 62,31l-46,107c0,0 -111.164,-50.988 -157,-95c-45.836,-44.012 -85.477,-87.353 -111,-143c-25.523,-55.647 -39,-69 -39,-69c0,0 -38.011,-0.279 -64,-7c-25.989,-6.721 -82.325,-46.196 -96,-72c-13.675,-25.804 -29,-42 -29,-42c0,0 -100.237,16.763 -173,-56c-72.763,-72.763 -68.271,-152.464 -65,-195c3.271,-42.536 45.173,-88.865 54,-101c8.827,-12.135 46.087,-29.242 32,-65c-14.087,-35.758 -36.044,-41.046 -61,-44c-24.956,-2.954 -91.669,-43.252 -94,-99c-2.331,-55.748 12.711,-96.663 47,-117c34.289,-20.337 54.064,-16.223 68,-23c13.936,-6.777 36.245,-19.896 38,-37c1.755,-17.104 -1.319,-30.045 30,-34c31.319,-3.955 148.79,-32.733 195,-99c46.21,-66.267 42.252,-64.003 58,-63c15.748,1.003 16,8 16,8c0,0 63.249,-67.836 118,-49c54.751,18.836 69.823,32.244 89,64c19.177,31.756 12,70 12,70l-3,24c0,0 73.191,8.815 118,47c44.809,38.185 61,63 61,63c0,0 28.15,2.311 43,13c14.85,10.689 37.231,12.976 51,4c13.769,-8.976 63.929,-69.404 100,-84c36.071,-14.596 92.071,-23.605 143,24c50.929,47.605 56.893,52.782 95,69Z" style="fill:#f3f3f3;fill-opacity:0.24;stroke:#000;stroke-width:1px;" /><g id="guest_tables"><g id="table-12"><path class="seat" id="seat-12-7" d="M2532.089,1639.735l10.2,0l0,17l-10.2,0c-3.753,0 -6.8,-3.047 -6.8,-6.8l0,-3.4c0,-3.753 3.047,-6.8 6.8,-6.8Z" style="fill:#ef8080;" /><path class="seat" id="seat-12-3" d="M2633.112,1656.735l-10.2,0l0,-17l10.2,0c3.753,0 6.8,3.047 6.8,6.8l0,3.4c0,3.753 -3.047,6.8 -6.8,6.8Z" style="fill:#ef8080;" /><path class="seat" id="seat-12-6" d="M2540.873,1677.942l7.212,-7.212l12.021,12.021l-7.212,7.212c-2.654,2.654 -6.963,2.654 -9.617,0l-2.404,-2.404c-2.654,-2.654 -2.654,-6.963 0,-9.617Z" style="fill:#ef8080;" /><path class="seat" id="seat-12-2" d="M2624.328,1618.529l-7.212,7.212l-12.021,-12.021l7.212,-7.212c2.654,-2.654 6.963,-2.654 9.617,0l2.404,2.404c2.654,2.654 2.654,6.963 0,9.617Z" style="fill:#ef8080;" /><path class="seat" id="seat-12-5" d="M2574.1,1698.747l0,-10.2l17,0l0,10.2c0,3.753 -3.047,6.8 -6.8,6.8l-3.4,0c-3.753,0 -6.8,-3.047 -6.8,-6.8Z" style="fill:#ef8080;" /><path class="seat" id="seat-12-1" d="M2591.1,1597.724l0,10.2l-17,0l0,-10.2c0,-3.753 3.047,-6.8 6.8,-6.8l3.4,0c3.753,0 6.8,3.047 6.8,6.8Z" style="fill:#ef8080;" /><path class="seat" id="seat-12-4" d="M2612.307,1689.963l-7.212,-7.212l12.021,-12.021l7.212,7.212c2.654,2.654 2.654,6.963 0,9.617l-2.404,2.404c-2.654,2.654 -6.963,2.654 -9.617,0Z" style="fill:#ef8080;" /><path class="seat" id="seat-12-8" d="M2552.893,1606.508l7.212,7.212l-12.021,12.021l-7.212,-7.212c-2.654,-2.654 -2.654,-6.963 0,-9.617l2.404,-2.404c2.654,-2.654 6.963,-2.654 9.617,0Z" style="fill:#ef8080;" /><path id="table-12-shape" d="M2543.713,1647.849c0,-21.462 17.425,-38.887 38.887,-38.887c21.462,0 38.887,17.425 38.887,38.887c0,21.462 -17.425,38.887 -38.887,38.887c-21.462,0 -38.887,-17.425 -38.887,-38.887Z" style="fill:#ef8080;" /></g><g id="table-11"><path class="seat" id="seat-11-7" d="M2537.667,1804.211l10.2,0l0,17l-10.2,0c-3.753,0 -6.8,-3.047 -6.8,-6.8l0,-3.4c0,-3.753 3.047,-6.8 6.8,-6.8Z" style="fill:#ef8080;" /><path class="seat" id="seat-11-3" d="M2638.69,1821.211l-10.2,0l0,-17l10.2,0c3.753,0 6.8,3.047 6.8,6.8l0,3.4c0,3.753 -3.047,6.8 -6.8,6.8Z" style="fill:#ef8080;" /><path class="seat" id="seat-11-6" d="M2546.451,1842.417l7.212,-7.212l12.021,12.021l-7.212,7.212c-2.654,2.654 -6.963,2.654 -9.617,0l-2.404,-2.404c-2.654,-2.654 -2.654,-6.963 0,-9.617Z" style="fill:#ef8080;" /><path class="seat" id="seat-11-2" d="M2629.906,1783.004l-7.212,7.212l-12.021,-12.021l7.212,-7.212c2.654,-2.654 6.963,-2.654 9.617,0l2.404,2.404c2.654,2.654 2.654,6.963 0,9.617Z" style="fill:#ef8080;" /><path class="seat" id="seat-11-5" d="M2579.679,1863.222l0,-10.2l17,0l0,10.2c0,3.753 -3.047,6.8 -6.8,6.8l-3.4,0c-3.753,0 -6.8,-3.047 -6.8,-6.8Z" style="fill:#ef8080;" /><path class="seat" id="seat-11-1" d="M2596.679,1762.199l0,10.2l-17,0l0,-10.2c0,-3.753 3.047,-6.8 6.8,-6.8l3.4,0c3.753,0 6.8,3.047 6.8,6.8Z" style="fill:#ef8080;" /><path class="seat" id="seat-11-4" d="M2617.885,1854.438l-7.212,-7.212l12.021,-12.021l7.212,7.212c2.654,2.654 2.654,6.963 0,9.617l-2.404,2.404c-2.654,2.654 -6.963,2.654 -9.617,0Z" style="fill:#ef8080;" /><path class="seat" id="seat-11-8" d="M2558.472,1770.983l7.212,7.212l-12.021,12.021l-7.212,-7.212c-2.654,-2.654 -2.654,-6.963 0,-9.617l2.404,-2.404c2.654,-2.654 6.963,-2.654 9.617,0Z" style="fill:#ef8080;" /><path id="table-11-shape" d="M2549.292,1812.324c0,-21.462 17.425,-38.887 38.887,-38.887c21.462,0 38.887,17.425 38.887,38.887c0,21.462 -17.425,38.887 -38.887,38.887c-21.462,0 -38.887,-17.425 -38.887,-38.887Z" style="fill:#ef8080;" /></g><g id="table-10"><path class="seat" id="seat-10-7" d="M2375.396,1639.313l10.2,0l0,17l-10.2,0c-3.753,0 -6.8,-3.047 -6.8,-6.8l0,-3.4c0,-3.753 3.047,-6.8 6.8,-6.8Z" style="fill:#ef8080;" /><path class="seat" id="seat-10-3" d="M2476.419,1656.313l-10.2,0l0,-17l10.2,0c3.753,0 6.8,3.047 6.8,6.8l0,3.4c0,3.753 -3.047,6.8 -6.8,6.8Z" style="fill:#ef8080;" /><path class="seat" id="seat-10-6" d="M2384.18,1677.52l7.212,-7.212l12.021,12.021l-7.212,7.212c-2.654,2.654 -6.963,2.654 -9.617,0l-2.404,-2.404c-2.654,-2.654 -2.654,-6.963 0,-9.617Z" style="fill:#ef8080;" /><path class="seat" id="seat-10-2" d="M2467.635,1618.106l-7.212,7.212l-12.021,-12.021l7.212,-7.212c2.654,-2.654 6.963,-2.654 9.617,0l2.404,2.404c2.654,2.654 2.654,6.963 0,9.617Z" style="fill:#ef8080;" /><path class="seat" id="seat-10-5" d="M2417.408,1698.325l0,-10.2l17,0l0,10.2c0,3.753 -3.047,6.8 -6.8,6.8l-3.4,0c-3.753,0 -6.8,-3.047 -6.8,-6.8Z" style="fill:#ef8080;" /><path class="seat" id="seat-10-1" d="M2434.408,1597.301l0,10.2l-17,0l0,-10.2c0,-3.753 3.047,-6.8 6.8,-6.8l3.4,0c3.753,0 6.8,3.047 6.8,6.8Z" style="fill:#ef8080;" /><path class="seat" id="seat-10-4" d="M2455.615,1689.541l-7.212,-7.212l12.021,-12.021l7.212,7.212c2.654,2.654 2.654,6.963 0,9.617l-2.404,2.404c-2.654,2.654 -6.963,2.654 -9.617,0Z" style="fill:#ef8080;" /><path class="seat" id="seat-10-8" d="M2396.201,1606.086l7.212,7.212l-12.021,12.021l-7.212,-7.212c-2.654,-2.654 -2.654,-6.963 0,-9.617l2.404,-2.404c2.654,-2.654 6.963,-2.654 9.617,0Z" style="fill:#ef8080;" /><path id="table-10-shape" d="M2387.021,1647.426c0,-21.462 17.425,-38.887 38.887,-38.887c21.462,0 38.887,17.425 38.887,38.887c0,21.462 -17.425,38.887 -38.887,38.887c-21.462,0 -38.887,-17.425 -38.887,-38.887Z" style="fill:#ef8080;" /></g><g id="table-9"><path class="seat" id="seat-9-7" d="M2375.564,1805.428l10.2,0l0,17l-10.2,0c-3.753,0 -6.8,-3.047 -6.8,-6.8l0,-3.4c0,-3.753 3.047,-6.8 6.8,-6.8Z" style="fill:#ef8080;" /><path class="seat" id="seat-9-3" d="M2476.587,1822.428l-10.2,0l0,-17l10.2,0c3.753,0 6.8,3.047 6.8,6.8l0,3.4c0,3.753 -3.047,6.8 -6.8,6.8Z" style="fill:#ef8080;" /><path class="seat" id="seat-9-6" d="M2384.348,1843.635l7.212,-7.212l12.021,12.021l-7.212,7.212c-2.654,2.654 -6.963,2.654 -9.617,0l-2.404,-2.404c-2.654,-2.654 -2.654,-6.963 0,-9.617Z" style="fill:#ef8080;" /><path class="seat" id="seat-9-2" d="M2467.803,1784.222l-7.212,7.212l-12.021,-12.021l7.212,-7.212c2.654,-2.654 6.963,-2.654 9.617,0l2.404,2.404c2.654,2.654 2.654,6.963 0,9.617Z" style="fill:#ef8080;" /><path class="seat" id="seat-9-5" d="M2417.576,1864.44l0,-10.2l17,0l0,10.2c0,3.753 -3.047,6.8 -6.8,6.8l-3.4,0c-3.753,0 -6.8,-3.047 -6.8,-6.8Z" style="fill:#ef8080;" /><path class="seat" id="seat-9-1" d="M2434.576,1763.417l0,10.2l-17,0l0,-10.2c0,-3.753 3.047,-6.8 6.8,-6.8l3.4,0c3.753,0 6.8,3.047 6.8,6.8Z" style="fill:#ef8080;" /><path class="seat" id="seat-9-4" d="M2455.782,1855.656l-7.212,-7.212l12.021,-12.021l7.212,7.212c2.654,2.654 2.654,6.963 0,9.617l-2.404,2.404c-2.654,2.654 -6.963,2.654 -9.617,0Z" style="fill:#ef8080;" /><path class="seat" id="seat-9-8" d="M2396.369,1772.201l7.212,7.212l-12.021,12.021l-7.212,-7.212c-2.654,-2.654 -2.654,-6.963 0,-9.617l2.404,-2.404c2.654,-2.654 6.963,-2.654 9.617,0Z" style="fill:#ef8080;" /><path id="table-9-shape" d="M2387.189,1813.542c0,-21.462 17.425,-38.887 38.887,-38.887c21.462,0 38.887,17.425 38.887,38.887c0,21.462 -17.425,38.887 -38.887,38.887c-21.462,0 -38.887,-17.425 -38.887,-38.887Z" style="fill:#ef8080;" /></g><g id="table-8"><path class="seat" id="seat-8-7" d="M2225.968,1629.407l10.2,0l0,17l-10.2,0c-3.753,0 -6.8,-3.047 -6.8,-6.8l0,-3.4c0,-3.753 3.047,-6.8 6.8,-6.8Z" style="fill:#ef8080;" /><path class="seat" id="seat-8-3" d="M2326.991,1646.407l-10.2,0l0,-17l10.2,0c3.753,0 6.8,3.047 6.8,6.8l0,3.4c0,3.753 -3.047,6.8 -6.8,6.8Z" style="fill:#ef8080;" /><path class="seat" id="seat-8-6" d="M2234.752,1667.613l7.212,-7.212l12.021,12.021l-7.212,7.212c-2.654,2.654 -6.963,2.654 -9.617,0l-2.404,-2.404c-2.654,-2.654 -2.654,-6.963 0,-9.617Z" style="fill:#ef8080;" /><path class="seat" id="seat-8-2" d="M2318.207,1608.2l-7.212,7.212l-12.021,-12.021l7.212,-7.212c2.654,-2.654 6.963,-2.654 9.617,0l2.404,2.404c2.654,2.654 2.654,6.963 0,9.617Z" style="fill:#ef8080;" /><path class="seat" id="seat-8-5" d="M2267.979,1688.418l0,-10.2l17,0l0,10.2c0,3.753 -3.047,6.8 -6.8,6.8l-3.4,0c-3.753,0 -6.8,-3.047 -6.8,-6.8Z" style="fill:#ef8080;" /><path class="seat" id="seat-8-1" d="M2284.979,1587.395l0,10.2l-17,0l0,-10.2c0,-3.753 3.047,-6.8 6.8,-6.8l3.4,0c3.753,0 6.8,3.047 6.8,6.8Z" style="fill:#ef8080;" /><path class="seat" id="seat-8-4" d="M2306.186,1679.634l-7.212,-7.212l12.021,-12.021l7.212,7.212c2.654,2.654 2.654,6.963 0,9.617l-2.404,2.404c-2.654,2.654 -6.963,2.654 -9.617,0Z" style="fill:#ef8080;" /><path class="seat" id="seat-8-8" d="M2246.773,1596.179l7.212,7.212l-12.021,12.021l-7.212,-7.212c-2.654,-2.654 -2.654,-6.963 0,-9.617l2.404,-2.404c2.654,-2.654 6.963,-2.654 9.617,0Z" style="fill:#ef8080;" /><path id="table-8-shape" d="M2237.593,1637.52c0,-21.462 17.425,-38.887 38.887,-38.887c21.462,0 38.887,17.425 38.887,38.887c0,21.462 -17.425,38.887 -38.887,38.887c-21.462,0 -38.887,-17.425 -38.887,-38.887Z" style="fill:#ef8080;" /></g><g id="table-7"><path class="seat" id="seat-7-7" d="M2225.135,1799.522l10.2,0l0,17l-10.2,0c-3.753,0 -6.8,-3.047 -6.8,-6.8l0,-3.4c0,-3.753 3.047,-6.8 6.8,-6.8Z" style="fill:#ef8080;" /><path class="seat" id="seat-7-3" d="M2326.159,1816.522l-10.2,0l0,-17l10.2,0c3.753,0 6.8,3.047 6.8,6.8l0,3.4c0,3.753 -3.047,6.8 -6.8,6.8Z" style="fill:#ef8080;" /><path class="seat" id="seat-7-6" d="M2233.919,1837.729l7.212,-7.212l12.021,12.021l-7.212,7.212c-2.654,2.654 -6.963,2.654 -9.617,0l-2.404,-2.404c-2.654,-2.654 -2.654,-6.963 0,-9.617Z" style="fill:#ef8080;" /><path class="seat" id="seat-7-2" d="M2317.374,1778.315l-7.212,7.212l-12.021,-12.021l7.212,-7.212c2.654,-2.654 6.963,-2.654 9.617,0l2.404,2.404c2.654,2.654 2.654,6.963 0,9.617Z" style="fill:#ef8080;" /><path class="seat" id="seat-7-5" d="M2267.147,1858.534l0,-10.2l17,0l0,10.2c0,3.753 -3.047,6.8 -6.8,6.8l-3.4,0c-3.753,0 -6.8,-3.047 -6.8,-6.8Z" style="fill:#ef8080;" /><path class="seat" id="seat-7-1" d="M2284.147,1757.51l0,10.2l-17,0l0,-10.2c0,-3.753 3.047,-6.8 6.8,-6.8l3.4,0c3.753,0 6.8,3.047 6.8,6.8Z" style="fill:#ef8080;" /><path class="seat" id="seat-7-4" d="M2305.354,1849.749l-7.212,-7.212l12.021,-12.021l7.212,7.212c2.654,2.654 2.654,6.963 0,9.617l-2.404,2.404c-2.654,2.654 -6.963,2.654 -9.617,0Z" style="fill:#ef8080;" /><path class="seat" id="seat-7-8" d="M2245.94,1766.294l7.212,7.212l-12.021,12.021l-7.212,-7.212c-2.654,-2.654 -2.654,-6.963 0,-9.617l2.404,-2.404c2.654,-2.654 6.963,-2.654 9.617,0Z" style="fill:#ef8080;" /><path id="table-7-shape" d="M2236.76,1807.635c0,-21.462 17.425,-38.887 38.887,-38.887c21.462,0 38.887,17.425 38.887,38.887c0,21.462 -17.425,38.887 -38.887,38.887c-21.462,0 -38.887,-17.425 -38.887,-38.887Z" style="fill:#ef8080;" /></g><g id="table-6"><path class="seat" id="seat-6-7" d="M1850.512,1628.307l10.2,0l0,17l-10.2,0c-3.753,0 -6.8,-3.047 -6.8,-6.8l0,-3.4c0,-3.753 3.047,-6.8 6.8,-6.8Z" style="fill:#ef8080;" /><path class="seat" id="seat-6-3" d="M1951.535,1645.307l-10.2,0l0,-17l10.2,0c3.753,0 6.8,3.047 6.8,6.8l0,3.4c0,3.753 -3.047,6.8 -6.8,6.8Z" style="fill:#ef8080;" /><path class="seat" id="seat-6-6" d="M1859.296,1666.513l7.212,-7.212l12.021,12.021l-7.212,7.212c-2.654,2.654 -6.963,2.654 -9.617,0l-2.404,-2.404c-2.654,-2.654 -2.654,-6.963 0,-9.617Z" style="fill:#ef8080;" /><path class="seat" id="seat-6-2" d="M1942.751,1607.1l-7.212,7.212l-12.021,-12.021l7.212,-7.212c2.654,-2.654 6.963,-2.654 9.617,0l2.404,2.404c2.654,2.654 2.654,6.963 0,9.617Z" style="fill:#ef8080;" /><path class="seat" id="seat-6-5" d="M1892.523,1687.318l0,-10.2l17,0l0,10.2c0,3.753 -3.047,6.8 -6.8,6.8l-3.4,0c-3.753,0 -6.8,-3.047 -6.8,-6.8Z" style="fill:#ef8080;" /><path class="seat" id="seat-6-1" d="M1909.523,1586.295l0,10.2l-17,0l0,-10.2c0,-3.753 3.047,-6.8 6.8,-6.8l3.4,0c3.753,0 6.8,3.047 6.8,6.8Z" style="fill:#ef8080;" /><path class="seat" id="seat-6-4" d="M1930.73,1678.534l-7.212,-7.212l12.021,-12.021l7.212,7.212c2.654,2.654 2.654,6.963 0,9.617l-2.404,2.404c-2.654,2.654 -6.963,2.654 -9.617,0Z" style="fill:#ef8080;" /><path class="seat" id="seat-6-8" d="M1871.316,1595.079l7.212,7.212l-12.021,12.021l-7.212,-7.212c-2.654,-2.654 -2.654,-6.963 0,-9.617l2.404,-2.404c2.654,-2.654 6.963,-2.654 9.617,0Z" style="fill:#ef8080;" /><path id="table-6-shape" d="M1862.137,1636.42c0,-21.462 17.425,-38.887 38.887,-38.887c21.462,0 38.887,17.425 38.887,38.887c0,21.462 -17.425,38.887 -38.887,38.887c-21.462,0 -38.887,-17.425 -38.887,-38.887Z" style="fill:#ef8080;" /></g><g id="table-5"><path class="seat" id="seat-5-7" d="M1848.679,1805.422l10.2,0l0,17l-10.2,0c-3.753,0 -6.8,-3.047 -6.8,-6.8l0,-3.4c0,-3.753 3.047,-6.8 6.8,-6.8Z" style="fill:#ef8080;" /><path class="seat" id="seat-5-3" d="M1949.702,1822.422l-10.2,0l0,-17l10.2,0c3.753,0 6.8,3.047 6.8,6.8l0,3.4c0,3.753 -3.047,6.8 -6.8,6.8Z" style="fill:#ef8080;" /><path class="seat" id="seat-5-6" d="M1857.463,1843.629l7.212,-7.212l12.021,12.021l-7.212,7.212c-2.654,2.654 -6.963,2.654 -9.617,0l-2.404,-2.404c-2.654,-2.654 -2.654,-6.963 0,-9.617Z" style="fill:#ef8080;" /><path class="seat" id="seat-5-2" d="M1940.918,1784.215l-7.212,7.212l-12.021,-12.021l7.212,-7.212c2.654,-2.654 6.963,-2.654 9.617,0l2.404,2.404c2.654,2.654 2.654,6.963 0,9.617Z" style="fill:#ef8080;" /><path class="seat" id="seat-5-5" d="M1890.691,1864.434l0,-10.2l17,0l0,10.2c0,3.753 -3.047,6.8 -6.8,6.8l-3.4,0c-3.753,0 -6.8,-3.047 -6.8,-6.8Z" style="fill:#ef8080;" /><path class="seat" id="seat-5-1" d="M1907.691,1763.41l0,10.2l-17,0l0,-10.2c0,-3.753 3.047,-6.8 6.8,-6.8l3.4,0c3.753,0 6.8,3.047 6.8,6.8Z" style="fill:#ef8080;" /><path class="seat" id="seat-5-4" d="M1928.897,1855.649l-7.212,-7.212l12.021,-12.021l7.212,7.212c2.654,2.654 2.654,6.963 0,9.617l-2.404,2.404c-2.654,2.654 -6.963,2.654 -9.617,0Z" style="fill:#ef8080;" /><path class="seat" id="seat-5-8" d="M1869.484,1772.194l7.212,7.212l-12.021,12.021l-7.212,-7.212c-2.654,-2.654 -2.654,-6.963 0,-9.617l2.404,-2.404c2.654,-2.654 6.963,-2.654 9.617,0Z" style="fill:#ef8080;" /><path id="table-5-shape" d="M1860.304,1813.535c0,-21.462 17.425,-38.887 38.887,-38.887c21.462,0 38.887,17.425 38.887,38.887c0,21.462 -17.425,38.887 -38.887,38.887c-21.462,0 -38.887,-17.425 -38.887,-38.887Z" style="fill:#ef8080;" /></g><g id="table-4"><path class="seat" id="seat-4-7" d="M1698.579,1629.812l10.2,0l0,17l-10.2,0c-3.753,0 -6.8,-3.047 -6.8,-6.8l0,-3.4c0,-3.753 3.047,-6.8 6.8,-6.8Z" style="fill:#ef8080;" /><path class="seat" id="seat-4-3" d="M1799.603,1646.812l-10.2,0l0,-17l10.2,0c3.753,0 6.8,3.047 6.8,6.8l0,3.4c0,3.753 -3.047,6.8 -6.8,6.8Z" style="fill:#ef8080;" /><path class="seat" id="seat-4-6" d="M1707.364,1668.018l7.212,-7.212l12.021,12.021l-7.212,7.212c-2.654,2.654 -6.963,2.654 -9.617,0l-2.404,-2.404c-2.654,-2.654 -2.654,-6.963 0,-9.617Z" style="fill:#ef8080;" /><path class="seat" id="seat-4-2" d="M1790.819,1608.605l-7.212,7.212l-12.021,-12.021l7.212,-7.212c2.654,-2.654 6.963,-2.654 9.617,0l2.404,2.404c2.654,2.654 2.654,6.963 0,9.617Z" style="fill:#ef8080;" /><path class="seat" id="seat-4-5" d="M1740.591,1688.823l0,-10.2l17,0l0,10.2c0,3.753 -3.047,6.8 -6.8,6.8l-3.4,0c-3.753,0 -6.8,-3.047 -6.8,-6.8Z" style="fill:#ef8080;" /><path class="seat" id="seat-4-1" d="M1757.591,1587.8l0,10.2l-17,0l0,-10.2c0,-3.753 3.047,-6.8 6.8,-6.8l3.4,0c3.753,0 6.8,3.047 6.8,6.8Z" style="fill:#ef8080;" /><path class="seat" id="seat-4-4" d="M1778.798,1680.039l-7.212,-7.212l12.021,-12.021l7.212,7.212c2.654,2.654 2.654,6.963 0,9.617l-2.404,2.404c-2.654,2.654 -6.963,2.654 -9.617,0Z" style="fill:#ef8080;" /><path class="seat" id="seat-4-8" d="M1719.384,1596.584l7.212,7.212l-12.021,12.021l-7.212,-7.212c-2.654,-2.654 -2.654,-6.963 0,-9.617l2.404,-2.404c2.654,-2.654 6.963,-2.654 9.617,0Z" style="fill:#ef8080;" /><path id="table-4-shape" d="M1710.204,1637.925c0,-21.462 17.425,-38.887 38.887,-38.887c21.462,0 38.887,17.425 38.887,38.887c0,21.462 -17.425,38.887 -38.887,38.887c-21.462,0 -38.887,-17.425 -38.887,-38.887Z" style="fill:#ef8080;" /></g><g id="table-3"><path class="seat" id="seat-3-7" d="M1692.581,1799.555l10.2,0l0,17l-10.2,0c-3.753,0 -6.8,-3.047 -6.8,-6.8l0,-3.4c0,-3.753 3.047,-6.8 6.8,-6.8Z" style="fill:#ef8080;" /><path class="seat" id="seat-3-3" d="M1793.604,1816.555l-10.2,0l0,-17l10.2,0c3.753,0 6.8,3.047 6.8,6.8l0,3.4c0,3.753 -3.047,6.8 -6.8,6.8Z" style="fill:#ef8080;" /><path class="seat" id="seat-3-6" d="M1701.365,1837.762l7.212,-7.212l12.021,12.021l-7.212,7.212c-2.654,2.654 -6.963,2.654 -9.617,0l-2.404,-2.404c-2.654,-2.654 -2.654,-6.963 0,-9.617Z" style="fill:#ef8080;" /><path class="seat" id="seat-3-2" d="M1784.82,1778.348l-7.212,7.212l-12.021,-12.021l7.212,-7.212c2.654,-2.654 6.963,-2.654 9.617,0l2.404,2.404c2.654,2.654 2.654,6.963 0,9.617Z" style="fill:#ef8080;" /><path class="seat" id="seat-3-5" d="M1734.592,1858.566l0,-10.2l17,0l0,10.2c0,3.753 -3.047,6.8 -6.8,6.8l-3.4,0c-3.753,0 -6.8,-3.047 -6.8,-6.8Z" style="fill:#ef8080;" /><path class="seat" id="seat-3-1" d="M1751.592,1757.543l0,10.2l-17,0l0,-10.2c0,-3.753 3.047,-6.8 6.8,-6.8l3.4,0c3.753,0 6.8,3.047 6.8,6.8Z" style="fill:#ef8080;" /><path class="seat" id="seat-3-4" d="M1772.799,1849.782l-7.212,-7.212l12.021,-12.021l7.212,7.212c2.654,2.654 2.654,6.963 0,9.617l-2.404,2.404c-2.654,2.654 -6.963,2.654 -9.617,0Z" style="fill:#ef8080;" /><path class="seat" id="seat-3-8" d="M1713.386,1766.327l7.212,7.212l-12.021,12.021l-7.212,-7.212c-2.654,-2.654 -2.654,-6.963 0,-9.617l2.404,-2.404c2.654,-2.654 6.963,-2.654 9.617,0Z" style="fill:#ef8080;" /><path id="table-3-shape" d="M1704.206,1807.668c0,-21.462 17.425,-38.887 38.887,-38.887c21.462,0 38.887,17.425 38.887,38.887c0,21.462 -17.425,38.887 -38.887,38.887c-21.462,0 -38.887,-17.425 -38.887,-38.887Z" style="fill:#ef8080;" /></g><g id="table-2"><path class="seat" id="seat-2-7" d="M1556.217,1578.75l10.2,0l0,17l-10.2,0c-3.753,0 -6.8,-3.047 -6.8,-6.8l0,-3.4c0,-3.753 3.047,-6.8 6.8,-6.8Z" style="fill:#ef8080;" /><path class="seat" id="seat-2-3" d="M1657.24,1595.75l-10.2,0l0,-17l10.2,0c3.753,0 6.8,3.047 6.8,6.8l0,3.4c0,3.753 -3.047,6.8 -6.8,6.8Z" style="fill:#ef8080;" /><path class="seat" id="seat-2-6" d="M1565.001,1616.957l7.212,-7.212l12.021,12.021l-7.212,7.212c-2.654,2.654 -6.963,2.654 -9.617,0l-2.404,-2.404c-2.654,-2.654 -2.654,-6.963 -0,-9.617Z" style="fill:#ef8080;" /><path class="seat" id="seat-2-2" d="M1648.456,1557.543l-7.212,7.212l-12.021,-12.021l7.212,-7.212c2.654,-2.654 6.963,-2.654 9.617,0l2.404,2.404c2.654,2.654 2.654,6.963 0,9.617Z" style="fill:#ef8080;" /><path class="seat" id="seat-2-5" d="M1598.228,1637.762l0,-10.2l17,0l0,10.2c0,3.753 -3.047,6.8 -6.8,6.8l-3.4,0c-3.753,0 -6.8,-3.047 -6.8,-6.8Z" style="fill:#ef8080;" /><path class="seat" id="seat-2-1" d="M1615.228,1536.738l0,10.2l-17,0l0,-10.2c0,-3.753 3.047,-6.8 6.8,-6.8l3.4,0c3.753,0 6.8,3.047 6.8,6.8Z" style="fill:#ef8080;" /><path class="seat" id="seat-2-4" d="M1636.435,1628.977l-7.212,-7.212l12.021,-12.021l7.212,7.212c2.654,2.654 2.654,6.963 0,9.617l-2.404,2.404c-2.654,2.654 -6.963,2.654 -9.617,0Z" style="fill:#ef8080;" /><path class="seat" id="seat-2-8" d="M1577.022,1545.523l7.212,7.212l-12.021,12.021l-7.212,-7.212c-2.654,-2.654 -2.654,-6.963 0,-9.617l2.404,-2.404c2.654,-2.654 6.963,-2.654 9.617,0Z" style="fill:#ef8080;" /><path id="table-2-shape" d="M1567.842,1586.863c0,-21.462 17.425,-38.887 38.887,-38.887c21.462,0 38.887,17.425 38.887,38.887c0,21.462 -17.425,38.887 -38.887,38.887c-21.462,0 -38.887,-17.425 -38.887,-38.887Z" style="fill:#ef8080;" /></g><g id="table-1"><path class="seat" id="seat-1-7" d="M1547.242,1743.243l10.2,0l0,17l-10.2,0c-3.753,0 -6.8,-3.047 -6.8,-6.8l0,-3.4c0,-3.753 3.047,-6.8 6.8,-6.8Z" style="fill:#ef8080;" /><path class="seat" id="seat-1-3" d="M1648.265,1760.243l-10.2,0l0,-17l10.2,0c3.753,0 6.8,3.047 6.8,6.8l0,3.4c0,3.753 -3.047,6.8 -6.8,6.8Z" style="fill:#ef8080;" /><path class="seat" id="seat-1-6" d="M1556.026,1781.45l7.212,-7.212l12.021,12.021l-7.212,7.212c-2.654,2.654 -6.963,2.654 -9.617,0l-2.404,-2.404c-2.654,-2.654 -2.654,-6.963 -0,-9.617Z" style="fill:#ef8080;" /><path class="seat" id="seat-1-2" d="M1639.481,1722.036l-7.212,7.212l-12.021,-12.021l7.212,-7.212c2.654,-2.654 6.963,-2.654 9.617,0l2.404,2.404c2.654,2.654 2.654,6.963 0,9.617Z" style="fill:#ef8080;" /><path class="seat" id="seat-1-5" d="M1589.253,1802.255l0,-10.2l17,0l0,10.2c0,3.753 -3.047,6.8 -6.8,6.8l-3.4,0c-3.753,0 -6.8,-3.047 -6.8,-6.8Z" style="fill:#ef8080;" /><path class="seat" id="seat-1-1" d="M1606.253,1701.231l0,10.2l-17,0l0,-10.2c0,-3.753 3.047,-6.8 6.8,-6.8l3.4,0c3.753,0 6.8,3.047 6.8,6.8Z" style="fill:#ef8080;" /><path class="seat" id="seat-1-4" d="M1627.46,1793.47l-7.212,-7.212l12.021,-12.021l7.212,7.212c2.654,2.654 2.654,6.963 0,9.617l-2.404,2.404c-2.654,2.654 -6.963,2.654 -9.617,0Z" style="fill:#ef8080;" /><path class="seat" id="seat-1-8" d="M1568.046,1710.016l7.212,7.212l-12.021,12.021l-7.212,-7.212c-2.654,-2.654 -2.654,-6.963 0,-9.617l2.404,-2.404c2.654,-2.654 6.963,-2.654 9.617,0Z" style="fill:#ef8080;" /><path id="table-1-shape" d="M1558.866,1751.356c0,-21.462 17.425,-38.887 38.887,-38.887c21.462,0 38.887,17.425 38.887,38.887c0,21.462 -17.425,38.887 -38.887,38.887c-21.462,0 -38.887,-17.425 -38.887,-38.887Z" style="fill:#ef8080;" /></g></g><g id="ceremony_seating"><g><g><path d="M1883.944,938.125l0.854,-10.585l17.642,1.423l-0.854,10.585c-0.314,3.895 -3.731,6.802 -7.626,6.488l-3.528,-0.285c-3.895,-0.314 -6.802,-3.731 -6.488,-7.626Z" style="fill:#5d3939;" /><path d="M1914.051,940.553l0.854,-10.585l17.642,1.423l-0.854,10.585c-0.314,3.895 -3.731,6.802 -7.626,6.488l-3.528,-0.285c-3.895,-0.314 -6.802,-3.731 -6.488,-7.626Z" style="fill:#5d3939;" /><path d="M1944.158,942.981l0.854,-10.585l17.642,1.423l-0.854,10.585c-0.314,3.895 -3.731,6.802 -7.626,6.488l-3.528,-0.285c-3.895,-0.314 -6.802,-3.731 -6.488,-7.626Z" style="fill:#5d3939;" /><path d="M1974.264,945.41l0.854,-10.585l17.642,1.423l-0.854,10.585c-0.314,3.895 -3.731,6.802 -7.626,6.488l-3.528,-0.285c-3.895,-0.314 -6.802,-3.731 -6.488,-7.626Z" style="fill:#5d3939;" /><path d="M2004.371,947.838l0.854,-10.585l17.642,1.423l-0.854,10.585c-0.314,3.895 -3.731,6.802 -7.626,6.488l-3.528,-0.285c-3.895,-0.314 -6.802,-3.731 -6.488,-7.626Z" style="fill:#5d3939;" /><path d="M2034.478,950.266l0.854,-10.585l17.642,1.423l-0.854,10.585c-0.314,3.895 -3.731,6.802 -7.626,6.488l-3.528,-0.285c-3.895,-0.314 -6.802,-3.731 -6.488,-7.626Z" style="fill:#5d3939;" /><path d="M2064.585,952.694l0.854,-10.585l17.642,1.423l-0.854,10.585c-0.314,3.895 -3.731,6.802 -7.626,6.488l-3.528,-0.285c-3.895,-0.314 -6.802,-3.731 -6.488,-7.626Z" style="fill:#5d3939;" /></g><g><path d="M1885.944,980.028l0.854,-10.585l17.642,1.423l-0.854,10.585c-0.314,3.895 -3.731,6.802 -7.626,6.488l-3.528,-0.285c-3.895,-0.314 -6.802,-3.731 -6.488,-7.626Z" style="fill:#5d3939;" /><path d="M1916.051,982.457l0.854,-10.585l17.642,1.423l-0.854,10.585c-0.314,3.895 -3.731,6.802 -7.626,6.488l-3.528,-0.285c-3.895,-0.314 -6.802,-3.731 -6.488,-7.626Z" style="fill:#5d3939;" /><path d="M1946.158,984.885l0.854,-10.585l17.642,1.423l-0.854,10.585c-0.314,3.895 -3.731,6.802 -7.626,6.488l-3.528,-0.285c-3.895,-0.314 -6.802,-3.731 -6.488,-7.626Z" style="fill:#5d3939;" /><path d="M1976.264,987.313l0.854,-10.585l17.642,1.423l-0.854,10.585c-0.314,3.895 -3.731,6.802 -7.626,6.488l-3.528,-0.285c-3.895,-0.314 -6.802,-3.731 -6.488,-7.626Z" style="fill:#5d3939;" /><path d="M2006.371,989.741l0.854,-10.585l17.642,1.423l-0.854,10.585c-0.314,3.895 -3.731,6.802 -7.626,6.488l-3.528,-0.285c-3.895,-0.314 -6.802,-3.731 -6.488,-7.626Z" style="fill:#5d3939;" /><path d="M2036.478,992.169l0.854,-10.585l17.642,1.423l-0.854,10.585c-0.314,3.895 -3.731,6.802 -7.626,6.488l-3.528,-0.285c-3.895,-0.314 -6.802,-3.731 -6.488,-7.626Z" style="fill:#5d3939;" /><path d="M2066.585,994.597l0.854,-10.585l17.642,1.423l-0.854,10.585c-0.314,3.895 -3.731,6.802 -7.626,6.488l-3.528,-0.285c-3.895,-0.314 -6.802,-3.731 -6.488,-7.626Z" style="fill:#5d3939;" /></g><g><path d="M1889.403,1022.622l0.854,-10.585l17.642,1.423l-0.854,10.585c-0.314,3.895 -3.731,6.802 -7.626,6.488l-3.528,-0.285c-3.895,-0.314 -6.802,-3.731 -6.488,-7.626Z" style="fill:#5d3939;" /><path d="M1919.51,1025.05l0.854,-10.585l17.642,1.423l-0.854,10.585c-0.314,3.895 -3.731,6.802 -7.626,6.488l-3.528,-0.285c-3.895,-0.314 -6.802,-3.731 -6.488,-7.626Z" style="fill:#5d3939;" /><path d="M1949.616,1027.478l0.854,-10.585l17.642,1.423l-0.854,10.585c-0.314,3.895 -3.731,6.802 -7.626,6.488l-3.528,-0.285c-3.895,-0.314 -6.802,-3.731 -6.488,-7.626Z" style="fill:#5d3939;" /><path d="M1979.723,1029.906l0.854,-10.585l17.642,1.423l-0.854,10.585c-0.314,3.895 -3.731,6.802 -7.626,6.488l-3.528,-0.285c-3.895,-0.314 -6.802,-3.731 -6.488,-7.626Z" style="fill:#5d3939;" /><path d="M2009.83,1032.334l0.854,-10.585l17.642,1.423l-0.854,10.585c-0.314,3.895 -3.731,6.802 -7.626,6.488l-3.528,-0.285c-3.895,-0.314 -6.802,-3.731 -6.488,-7.626Z" style="fill:#5d3939;" /><path d="M2039.937,1034.762l0.854,-10.585l17.642,1.423l-0.854,10.585c-0.314,3.895 -3.731,6.802 -7.626,6.488l-3.528,-0.285c-3.895,-0.314 -6.802,-3.731 -6.488,-7.626Z" style="fill:#5d3939;" /><path d="M2070.043,1037.19l0.854,-10.585l17.642,1.423l-0.854,10.585c-0.314,3.895 -3.731,6.802 -7.626,6.488l-3.528,-0.285c-3.895,-0.314 -6.802,-3.731 -6.488,-7.626Z" style="fill:#5d3939;" /></g><g><path d="M1892.637,1063.845l0.854,-10.585l17.642,1.423l-0.854,10.585c-0.314,3.895 -3.731,6.802 -7.626,6.488l-3.528,-0.285c-3.895,-0.314 -6.802,-3.731 -6.488,-7.626Z" style="fill:#5d3939;" /><path d="M1922.743,1066.273l0.854,-10.585l17.642,1.423l-0.854,10.585c-0.314,3.895 -3.731,6.802 -7.626,6.488l-3.528,-0.285c-3.895,-0.314 -6.802,-3.731 -6.488,-7.626Z" style="fill:#5d3939;" /><path d="M1952.85,1068.701l0.854,-10.585l17.642,1.423l-0.854,10.585c-0.314,3.895 -3.731,6.802 -7.626,6.488l-3.528,-0.285c-3.895,-0.314 -6.802,-3.731 -6.488,-7.626Z" style="fill:#5d3939;" /><path d="M1982.957,1071.129l0.854,-10.585l17.642,1.423l-0.854,10.585c-0.314,3.895 -3.731,6.802 -7.626,6.488l-3.528,-0.285c-3.895,-0.314 -6.802,-3.731 -6.488,-7.626Z" style="fill:#5d3939;" /><path d="M2013.064,1073.558l0.854,-10.585l17.642,1.423l-0.854,10.585c-0.314,3.895 -3.731,6.802 -7.626,6.488l-3.528,-0.285c-3.895,-0.314 -6.802,-3.731 -6.488,-7.626Z" style="fill:#5d3939;" /><path d="M2043.171,1075.986l0.854,-10.585l17.642,1.423l-0.854,10.585c-0.314,3.895 -3.731,6.802 -7.626,6.488l-3.528,-0.285c-3.895,-0.314 -6.802,-3.731 -6.488,-7.626Z" style="fill:#5d3939;" /><path d="M2073.277,1078.414l0.854,-10.585l17.642,1.423l-0.854,10.585c-0.314,3.895 -3.731,6.802 -7.626,6.488l-3.528,-0.285c-3.895,-0.314 -6.802,-3.731 -6.488,-7.626Z" style="fill:#5d3939;" /></g><g><path d="M1896.633,1105.814l0.854,-10.585l17.642,1.423l-0.854,10.585c-0.314,3.895 -3.731,6.802 -7.626,6.488l-3.528,-0.285c-3.895,-0.314 -6.802,-3.731 -6.488,-7.626Z" style="fill:#5d3939;" /><path d="M1926.739,1108.242l0.854,-10.585l17.642,1.423l-0.854,10.585c-0.314,3.895 -3.731,6.802 -7.626,6.488l-3.528,-0.285c-3.895,-0.314 -6.802,-3.731 -6.488,-7.626Z" style="fill:#5d3939;" /><path d="M1956.846,1110.67l0.854,-10.585l17.642,1.423l-0.854,10.585c-0.314,3.895 -3.731,6.802 -7.626,6.488l-3.528,-0.285c-3.895,-0.314 -6.802,-3.731 -6.488,-7.626Z" style="fill:#5d3939;" /><path d="M1986.953,1113.098l0.854,-10.585l17.642,1.423l-0.854,10.585c-0.314,3.895 -3.731,6.802 -7.626,6.488l-3.528,-0.285c-3.895,-0.314 -6.802,-3.731 -6.488,-7.626Z" style="fill:#5d3939;" /><path d="M2017.06,1115.527l0.854,-10.585l17.642,1.423l-0.854,10.585c-0.314,3.895 -3.731,6.802 -7.626,6.488l-3.528,-0.285c-3.895,-0.314 -6.802,-3.731 -6.488,-7.626Z" style="fill:#5d3939;" /><path d="M2047.167,1117.955l0.854,-10.585l17.642,1.423l-0.854,10.585c-0.314,3.895 -3.731,6.802 -7.626,6.488l-3.528,-0.285c-3.895,-0.314 -6.802,-3.731 -6.488,-7.626Z" style="fill:#5d3939;" /><path d="M2077.273,1120.383l0.854,-10.585l17.642,1.423l-0.854,10.585c-0.314,3.895 -3.731,6.802 -7.626,6.488l-3.528,-0.285c-3.895,-0.314 -6.802,-3.731 -6.488,-7.626Z" style="fill:#5d3939;" /></g><g><path d="M1899.838,1147.722l0.854,-10.585l17.642,1.423l-0.854,10.585c-0.314,3.895 -3.731,6.802 -7.626,6.488l-3.528,-0.285c-3.895,-0.314 -6.802,-3.731 -6.488,-7.626Z" style="fill:#5d3939;" /><path d="M1929.945,1150.15l0.854,-10.585l17.642,1.423l-0.854,10.585c-0.314,3.895 -3.731,6.802 -7.626,6.488l-3.528,-0.285c-3.895,-0.314 -6.802,-3.731 -6.488,-7.626Z" style="fill:#5d3939;" /><path d="M1960.052,1152.579l0.854,-10.585l17.642,1.423l-0.854,10.585c-0.314,3.895 -3.731,6.802 -7.626,6.488l-3.528,-0.285c-3.895,-0.314 -6.802,-3.731 -6.488,-7.626Z" style="fill:#5d3939;" /><path d="M1990.159,1155.007l0.854,-10.585l17.642,1.423l-0.854,10.585c-0.314,3.895 -3.731,6.802 -7.626,6.488l-3.528,-0.285c-3.895,-0.314 -6.802,-3.731 -6.488,-7.626Z" style="fill:#5d3939;" /><path d="M2020.265,1157.435l0.854,-10.585l17.642,1.423l-0.854,10.585c-0.314,3.895 -3.731,6.802 -7.626,6.488l-3.528,-0.285c-3.895,-0.314 -6.802,-3.731 -6.488,-7.626Z" style="fill:#5d3939;" /><path d="M2050.372,1159.863l0.854,-10.585l17.642,1.423l-0.854,10.585c-0.314,3.895 -3.731,6.802 -7.626,6.488l-3.528,-0.285c-3.895,-0.314 -6.802,-3.731 -6.488,-7.626Z" style="fill:#5d3939;" /><path d="M2080.479,1162.291l0.854,-10.585l17.642,1.423l-0.854,10.585c-0.314,3.895 -3.731,6.802 -7.626,6.488l-3.528,-0.285c-3.895,-0.314 -6.802,-3.731 -6.488,-7.626Z" style="fill:#5d3939;" /></g></g><g><g><path d="M2356.226,894.561l-2.748,-10.258l-17.097,4.58l2.748,10.258c1.011,3.774 4.896,6.018 8.671,5.007l3.419,-0.916c3.774,-1.011 6.018,-4.896 5.007,-8.671Z" style="fill:#5d3939;" /><path d="M2327.051,902.377l-2.748,-10.258l-17.097,4.58l2.748,10.258c1.011,3.774 4.896,6.018 8.671,5.007l3.419,-0.916c3.774,-1.011 6.018,-4.896 5.007,-8.671Z" style="fill:#5d3939;" /><path d="M2297.875,910.192l-2.748,-10.258l-17.097,4.58l2.748,10.258c1.011,3.774 4.896,6.018 8.671,5.007l3.419,-0.916c3.774,-1.011 6.018,-4.896 5.007,-8.671Z" style="fill:#5d3939;" /><path d="M2268.699,918.007l-2.748,-10.258l-17.097,4.58l2.748,10.258c1.011,3.774 4.896,6.018 8.671,5.007l3.419,-0.916c3.774,-1.011 6.018,-4.896 5.007,-8.671Z" style="fill:#5d3939;" /><path d="M2239.523,925.822l-2.748,-10.258l-17.097,4.58l2.748,10.258c1.011,3.774 4.896,6.018 8.671,5.007l3.419,-0.916c3.774,-1.011 6.018,-4.896 5.007,-8.671Z" style="fill:#5d3939;" /><path d="M2210.347,933.637l-2.748,-10.258l-17.097,4.58l2.748,10.258c1.011,3.774 4.896,6.018 8.671,5.007l3.419,-0.916c3.774,-1.011 6.018,-4.896 5.007,-8.671Z" style="fill:#5d3939;" /><path d="M2181.171,941.453l-2.748,-10.258l-17.097,4.58l2.748,10.258c1.011,3.774 4.896,6.018 8.671,5.007l3.419,-0.916c3.774,-1.011 6.018,-4.896 5.007,-8.671Z" style="fill:#5d3939;" /></g><g><path d="M2361.812,936.139l-2.748,-10.258l-17.097,4.58l2.748,10.258c1.011,3.774 4.896,6.018 8.671,5.007l3.419,-0.916c3.774,-1.011 6.018,-4.896 5.007,-8.671Z" style="fill:#5d3939;" /><path d="M2332.637,943.954l-2.748,-10.258l-17.097,4.58l2.748,10.258c1.011,3.774 4.896,6.018 8.671,5.007l3.419,-0.916c3.774,-1.011 6.018,-4.896 5.007,-8.671Z" style="fill:#5d3939;" /><path d="M2303.461,951.769l-2.748,-10.258l-17.097,4.58l2.748,10.258c1.011,3.774 4.896,6.018 8.671,5.007l3.419,-0.916c3.774,-1.011 6.018,-4.896 5.007,-8.671Z" style="fill:#5d3939;" /><path d="M2274.285,959.584l-2.748,-10.258l-17.097,4.58l2.748,10.258c1.011,3.774 4.896,6.018 8.671,5.007l3.419,-0.916c3.774,-1.011 6.018,-4.896 5.007,-8.671Z" style="fill:#5d3939;" /><path d="M2245.109,967.4l-2.748,-10.258l-17.097,4.58l2.748,10.258c1.011,3.774 4.896,6.018 8.671,5.007l3.419,-0.916c3.774,-1.011 6.018,-4.896 5.007,-8.671Z" style="fill:#5d3939;" /><path d="M2215.933,975.215l-2.748,-10.258l-17.097,4.58l2.748,10.258c1.011,3.774 4.896,6.018 8.671,5.007l3.419,-0.916c3.774,-1.011 6.018,-4.896 5.007,-8.671Z" style="fill:#5d3939;" /><path d="M2186.757,983.03l-2.748,-10.258l-17.097,4.58l2.748,10.258c1.011,3.774 4.896,6.018 8.671,5.007l3.419,-0.916c3.774,-1.011 6.018,-4.896 5.007,-8.671Z" style="fill:#5d3939;" /></g><g><path d="M2366.088,978.658l-2.748,-10.258l-17.097,4.58l2.748,10.258c1.011,3.774 4.896,6.018 8.671,5.007l3.419,-0.916c3.774,-1.011 6.018,-4.896 5.007,-8.671Z" style="fill:#5d3939;" /><path d="M2336.912,986.473l-2.748,-10.258l-17.097,4.58l2.748,10.258c1.011,3.774 4.896,6.018 8.671,5.007l3.419,-0.916c3.774,-1.011 6.018,-4.896 5.007,-8.671Z" style="fill:#5d3939;" /><path d="M2307.736,994.288l-2.748,-10.258l-17.097,4.58l2.748,10.258c1.011,3.774 4.896,6.018 8.671,5.007l3.419,-0.916c3.774,-1.011 6.018,-4.896 5.007,-8.671Z" style="fill:#5d3939;" /><path d="M2278.56,1002.103l-2.748,-10.258l-17.097,4.58l2.748,10.258c1.011,3.774 4.896,6.018 8.671,5.007l3.419,-0.916c3.774,-1.011 6.018,-4.896 5.007,-8.671Z" style="fill:#5d3939;" /><path d="M2249.384,1009.918l-2.748,-10.258l-17.097,4.58l2.748,10.258c1.011,3.774 4.896,6.018 8.671,5.007l3.419,-0.916c3.774,-1.011 6.018,-4.896 5.007,-8.671Z" style="fill:#5d3939;" /><path d="M2220.208,1017.734l-2.748,-10.258l-17.097,4.58l2.748,10.258c1.011,3.774 4.896,6.018 8.671,5.007l3.419,-0.916c3.774,-1.011 6.018,-4.896 5.007,-8.671Z" style="fill:#5d3939;" /><path d="M2191.032,1025.549l-2.748,-10.258l-17.097,4.58l2.748,10.258c1.011,3.774 4.896,6.018 8.671,5.007l3.419,-0.916c3.774,-1.011 6.018,-4.896 5.007,-8.671Z" style="fill:#5d3939;" /></g><g><path d="M2370.338,1019.789l-2.748,-10.258l-17.097,4.58l2.748,10.258c1.011,3.774 4.896,6.018 8.671,5.007l3.419,-0.916c3.774,-1.011 6.018,-4.896 5.007,-8.671Z" style="fill:#5d3939;" /><path d="M2341.162,1027.604l-2.748,-10.258l-17.097,4.58l2.748,10.258c1.011,3.774 4.896,6.018 8.671,5.007l3.419,-0.916c3.774,-1.011 6.018,-4.896 5.007,-8.671Z" style="fill:#5d3939;" /><path d="M2311.986,1035.419l-2.748,-10.258l-17.097,4.58l2.748,10.258c1.011,3.774 4.896,6.018 8.671,5.007l3.419,-0.916c3.774,-1.011 6.018,-4.896 5.007,-8.671Z" style="fill:#5d3939;" /><path d="M2282.81,1043.234l-2.748,-10.258l-17.097,4.58l2.748,10.258c1.011,3.774 4.896,6.018 8.671,5.007l3.419,-0.916c3.774,-1.011 6.018,-4.896 5.007,-8.671Z" style="fill:#5d3939;" /><path d="M2253.634,1051.05l-2.748,-10.258l-17.097,4.58l2.748,10.258c1.011,3.774 4.896,6.018 8.671,5.007l3.419,-0.916c3.774,-1.011 6.018,-4.896 5.007,-8.671Z" style="fill:#5d3939;" /><path d="M2224.458,1058.865l-2.748,-10.258l-17.097,4.58l2.748,10.258c1.011,3.774 4.896,6.018 8.671,5.007l3.419,-0.916c3.774,-1.011 6.018,-4.896 5.007,-8.671Z" style="fill:#5d3939;" /><path d="M2195.282,1066.68l-2.748,-10.258l-17.097,4.58l2.748,10.258c1.011,3.774 4.896,6.018 8.671,5.007l3.419,-0.916c3.774,-1.011 6.018,-4.896 5.007,-8.671Z" style="fill:#5d3939;" /></g><g><path d="M2373.972,1061.791l-2.748,-10.258l-17.097,4.58l2.748,10.258c1.011,3.774 4.896,6.018 8.671,5.007l3.419,-0.916c3.774,-1.011 6.018,-4.896 5.007,-8.671Z" style="fill:#5d3939;" /><path d="M2344.796,1069.606l-2.748,-10.258l-17.097,4.58l2.748,10.258c1.011,3.774 4.896,6.018 8.671,5.007l3.419,-0.916c3.774,-1.011 6.018,-4.896 5.007,-8.671Z" style="fill:#5d3939;" /><path d="M2315.62,1077.421l-2.748,-10.258l-17.097,4.58l2.748,10.258c1.011,3.774 4.896,6.018 8.671,5.007l3.419,-0.916c3.774,-1.011 6.018,-4.896 5.007,-8.671Z" style="fill:#5d3939;" /><path d="M2286.444,1085.236l-2.748,-10.258l-17.097,4.58l2.748,10.258c1.011,3.774 4.896,6.018 8.671,5.007l3.419,-0.916c3.774,-1.011 6.018,-4.896 5.007,-8.671Z" style="fill:#5d3939;" /><path d="M2257.269,1093.052l-2.748,-10.258l-17.097,4.58l2.748,10.258c1.011,3.774 4.896,6.018 8.671,5.007l3.419,-0.916c3.774,-1.011 6.018,-4.896 5.007,-8.671Z" style="fill:#5d3939;" /><path d="M2228.093,1100.867l-2.748,-10.258l-17.097,4.58l2.748,10.258c1.011,3.774 4.896,6.018 8.671,5.007l3.419,-0.916c3.774,-1.011 6.018,-4.896 5.007,-8.671Z" style="fill:#5d3939;" /><path d="M2198.917,1108.682l-2.748,-10.258l-17.097,4.58l2.748,10.258c1.011,3.774 4.896,6.018 8.671,5.007l3.419,-0.916c3.774,-1.011 6.018,-4.896 5.007,-8.671Z" style="fill:#5d3939;" /></g><g><path d="M2378.373,1103.59l-2.748,-10.258l-17.097,4.58l2.748,10.258c1.011,3.774 4.896,6.018 8.671,5.007l3.419,-0.916c3.774,-1.011 6.018,-4.896 5.007,-8.671Z" style="fill:#5d3939;" /><path d="M2349.197,1111.405l-2.748,-10.258l-17.097,4.58l2.748,10.258c1.011,3.774 4.896,6.018 8.671,5.007l3.419,-0.916c3.774,-1.011 6.018,-4.896 5.007,-8.671Z" style="fill:#5d3939;" /><path d="M2320.021,1119.221l-2.748,-10.258l-17.097,4.58l2.748,10.258c1.011,3.774 4.896,6.018 8.671,5.007l3.419,-0.916c3.774,-1.011 6.018,-4.896 5.007,-8.671Z" style="fill:#5d3939;" /><path d="M2290.845,1127.036l-2.748,-10.258l-17.097,4.58l2.748,10.258c1.011,3.774 4.896,6.018 8.671,5.007l3.419,-0.916c3.774,-1.011 6.018,-4.896 5.007,-8.671Z" style="fill:#5d3939;" /><path d="M2261.67,1134.851l-2.748,-10.258l-17.097,4.58l2.748,10.258c1.011,3.774 4.896,6.018 8.671,5.007l3.419,-0.916c3.774,-1.011 6.018,-4.896 5.007,-8.671Z" style="fill:#5d3939;" /><path d="M2232.494,1142.666l-2.748,-10.258l-17.097,4.58l2.748,10.258c1.011,3.774 4.896,6.018 8.671,5.007l3.419,-0.916c3.774,-1.011 6.018,-4.896 5.007,-8.671Z" style="fill:#5d3939;" /><path d="M2203.318,1150.482l-2.748,-10.258l-17.097,4.58l2.748,10.258c1.011,3.774 4.896,6.018 8.671,5.007l3.419,-0.916c3.774,-1.011 6.018,-4.896 5.007,-8.671Z" style="fill:#5d3939;" /></g></g></g><g id="sweetheart_table"><g><path d="M2113.34,1445.387l3.998,9.384l15.64,-6.663l-3.998,-9.384c-1.471,-3.453 -5.469,-5.062 -8.921,-3.591l-3.128,1.333c-3.453,1.471 -5.062,5.469 -3.591,8.921Z" style="fill:#eaeef0;" /><path d="M2162.312,1445.387l-3.998,9.384l-15.64,-6.663l3.998,-9.384c1.471,-3.453 5.469,-5.062 8.921,-3.591l3.128,1.333c3.453,1.471 5.062,5.469 3.591,8.921Z" style="fill:#eaeef0;" /></g><circle cx="2137.826" cy="1475.826" r="25.826" style="fill:#eaeef0;" /></g><path id="bar" d="M1773.417,1508.75c0,0 42.252,33.193 61,34c18.748,0.807 44.788,0.951 66,-21c21.212,-21.951 54.91,-38.358 70,-70c15.09,-31.642 16,-36 16,-36l7,-1c0,0 -13.589,-11.842 -8,-24c5.589,-12.158 13,-20 13,-20c0,0 -7.582,-8.562 -18,-12c-10.418,-3.438 -15,-5 -15,-5c0,0 -13.23,-29.884 -38,-43c-24.77,-13.116 -41,-16 -41,-16c0,0 -9.485,2.905 -15,-2c-5.515,-4.905 -8,-3 -8,-3c0,0 -8.947,5.823 -12,11c-3.053,5.177 -6,7 -6,7c0,0 -42.059,28.285 -57,51c-14.941,22.715 -20.537,54.205 -21,75c-0.463,20.795 -2,22 -2,22c0,0 -21.26,36.344 -21,44c0.26,7.656 7,9 7,9l22,0Z" style="fill:#ef8080;fill-opacity:0.18;stroke:#000;stroke-width:1px;" /><path id="welcome_table" d="M1260.143,1756.396l23.209,20.011c1.601,1.381 1.78,3.801 0.4,5.402l-74.492,86.395c-1.381,1.601 -3.801,1.78 -5.402,0.4l-23.209,-20.011c-1.601,-1.381 -1.78,-3.801 -0.4,-5.402l74.492,-86.395c1.381,-1.601 3.801,-1.78 5.402,-0.4Z" style="fill:#ef8080;fill-opacity:0.18;" /><path id="dj_table" d="M2205.921,1905.736l-1.281,30.618c-0.088,2.112 -1.875,3.755 -3.987,3.667l-113.976,-4.769c-2.112,-0.088 -3.755,-1.875 -3.667,-3.987l1.281,-30.618c0.088,-2.112 1.875,-3.755 3.987,-3.667l113.976,4.769c2.112,0.088 3.755,1.875 3.667,3.987Z" style="fill:#ef8080;fill-opacity:0.18;" /><g id="guest_artist"><path d="M2470.18,1375.163l-19.942,23.269c-1.376,1.605 -3.796,1.792 -5.401,0.416l-86.618,-74.233c-1.605,-1.376 -1.792,-3.796 -0.416,-5.401l19.942,-23.269c1.376,-1.605 3.796,-1.792 5.401,-0.416l86.618,74.233c1.605,1.376 1.792,3.796 0.416,5.401Z" style="fill:#ef8080;fill-opacity:0.18;" /><path d="M2440.995,1328.902l-6.718,7.675l-12.792,-11.196l6.718,-7.675c2.472,-2.824 6.771,-3.11 9.595,-0.639l2.558,2.239c2.824,2.472 3.11,6.771 0.639,9.595Z" style="fill:#eaeef0;" /><path d="M2468.141,1352.329l-6.718,7.675l-12.792,-11.196l6.718,-7.675c2.472,-2.824 6.771,-3.11 9.595,-0.639l2.558,2.239c2.824,2.472 3.11,6.771 0.639,9.595Z" style="fill:#eaeef0;" /><path d="M2413.153,1305.996l-6.718,7.675l-12.792,-11.196l6.718,-7.675c2.472,-2.824 6.771,-3.11 9.595,-0.639l2.558,2.239c2.824,2.472 3.11,6.771 0.639,9.595Z" style="fill:#eaeef0;" /></g><path id="gift_table" d="M1453.661,1869.029l23.209,20.011c1.601,1.381 1.78,3.801 0.4,5.402l-74.492,86.395c-1.381,1.601 -3.801,1.78 -5.402,0.4l-23.209,-20.011c-1.601,-1.381 -1.78,-3.801 -0.4,-5.402l74.492,-86.395c1.381,-1.601 3.801,-1.78 5.402,-0.4Z" style="fill:#ef8080;fill-opacity:0.18;" /></svg>