<svg width="100%" height="100%" viewBox="55 52 4850 3405" version="1.1" xmlns="http://www.w3.org/2000/svg" xmlns:xlink="http://www.w3.org/1999/xlink" xml:space="preserve" xmlns:serif="http://www.serif.com/" style="fill-rule:evenodd;clip-rule:evenodd;stroke-linejoin:round;stroke-miterlimit:2;"><g><path d="M4865.514,406.882l0,2694.109c0,174.063 -141.317,315.38 -315.38,315.38l-4139.639,0c-174.063,0 -315.38,-141.317 -315.38,-315.38l0,-2694.109c0,-174.063 141.317,-315.38 315.38,-315.38l4139.639,0c174.063,0 315.38,141.317 315.38,315.38Z" style="fill:#9ac99e;fill-opacity:0.68;" /><g><path d="M813.731,1501.031l-78.894,0l0,-322.663l524.77,0l0,66.35l172.856,0l0,1006.991l-618.732,0l0,-750.679Z" style="fill:#97b899;fill-opacity:0.6;" /><g><path id="restroom" d="M2624.503,2550.131l-0.137,9.739l-288.945,-9.755l4.445,-180.813l287.172,0.89l-0.761,53.986l185.499,4.238l-4.033,125.938l-183.24,-4.224Z" style="fill:#fbf7f0;" /><path d="M2632.717,2558.656l-0.019,1.332c-0.032,2.238 -0.962,4.37 -2.583,5.914c-1.62,1.545 -3.794,2.372 -6.031,2.297l-288.945,-9.755c-4.57,-0.154 -8.162,-3.962 -8.05,-8.533l4.445,-180.813c0.111,-4.531 3.824,-8.143 8.357,-8.128l287.172,0.89c2.226,0.007 4.357,0.904 5.917,2.492c1.56,1.587 2.421,3.733 2.39,5.959l-0.644,45.726l177.24,4.049c2.223,0.051 4.333,0.988 5.862,2.602c1.528,1.615 2.348,3.773 2.277,5.995l-4.033,125.938c-0.146,4.571 -3.949,8.17 -8.521,8.064l-174.834,-4.03Zm-8.214,-8.525l183.24,4.224l4.033,-125.938l-185.499,-4.238l0.761,-53.986l-287.172,-0.89l-4.445,180.813l288.945,9.755l0.137,-9.739Z" style="fill:#a99a8e;" /><path id="reception_area" d="M2777.152,1169.06c155.13,66.023 294.839,-11.81 374.076,-97.508c79.237,-85.698 223.017,-140.315 308.48,-115.237c85.463,25.079 201.841,90.72 228.701,161.331c26.86,70.611 26.593,78.006 26.593,78.006c0,0 -62.859,36.459 -47.868,109.918c14.992,73.46 88.644,83.325 88.644,83.325l10.637,92.189l173.741,273.022l1.773,273.022c0,0 205.662,37.239 375.849,207.426c170.187,170.187 151.697,309.116 97.508,354.574c-54.189,45.459 -366.985,93.962 -366.985,93.962c0,0 -129.417,40.607 -193.243,10.637c-63.826,-29.969 -159.559,-124.101 -159.559,-124.101c0,0 40.492,-105.917 44.322,-143.603c3.83,-37.686 5.319,-143.603 5.319,-143.603l-927.212,-21.274l-5.319,157.786l-173.741,-3.546l0,-58.505l-312.026,-1.773l-5.319,205.653l313.798,10.637l0,-10.637l171.969,3.546l-8.864,234.019c0,0 -69.637,76.566 -132.965,76.234c-63.329,-0.332 -134.365,-56.819 -156.013,-56.732c-21.648,0.087 -37.669,38.818 -97.508,37.23c-59.839,-1.588 -99.75,-41.634 -163.104,-111.691c-63.355,-70.057 -80.843,-95.613 -83.325,-145.376c-2.482,-49.762 1.773,-163.104 1.773,-163.104l-242.884,-214.518c0,0 -66.819,-74.214 -132.965,-58.505c-66.147,15.709 -169.744,150.066 -182.606,189.697c-12.862,39.631 -36.389,125.755 21.274,234.019c57.663,108.264 175.02,252.169 274.795,303.161c99.775,50.992 109.918,54.959 109.918,54.959l-81.552,189.697c0,0 -197.08,-90.395 -278.341,-168.423c-81.261,-78.028 -151.54,-154.866 -196.789,-253.521c-45.249,-98.655 -69.142,-122.328 -69.142,-122.328c0,0 -67.388,-0.495 -113.464,-12.41c-46.076,-11.915 -145.951,-81.899 -170.196,-127.647c-24.245,-45.748 -51.413,-74.461 -51.413,-74.461c0,0 -177.707,29.719 -306.707,-99.281c-129,-129 -121.036,-270.299 -115.237,-345.71c5.8,-75.411 80.085,-157.546 95.735,-179.06c15.65,-21.514 81.706,-51.842 56.732,-115.237c-24.974,-63.395 -63.901,-72.77 -108.145,-78.006c-44.244,-5.236 -162.517,-76.68 -166.65,-175.514c-4.133,-98.835 22.535,-171.372 83.325,-207.426c60.79,-36.054 95.849,-28.761 120.555,-40.776c24.706,-12.015 64.259,-35.273 67.369,-65.596c3.111,-30.323 -2.338,-53.266 53.186,-60.278c55.524,-7.011 263.785,-58.032 345.71,-175.514c81.925,-117.483 74.907,-113.47 102.827,-111.691c27.919,1.779 28.366,14.183 28.366,14.183c0,0 112.133,-120.264 209.199,-86.871c97.066,33.393 123.787,57.165 157.786,113.464c33.999,56.299 15.956,166.65 15.956,166.65c0,0 129.758,15.628 209.199,83.325c79.441,67.697 158.052,115.788 184.379,134.738c26.326,18.95 66.006,23.005 90.416,7.091c24.411,-15.913 113.337,-123.045 177.287,-148.921c63.95,-25.877 163.229,-41.848 253.521,42.549c90.291,84.397 100.864,93.575 168.423,122.328Zm-1794.885,509.258c0.975,92.859 -78.852,177.369 -124.101,212.745c-45.249,35.376 -115.436,304.934 131.193,304.934c246.628,0 179.06,-251.748 179.06,-251.748c0,0 34.313,6.234 101.054,-17.729c66.741,-23.963 119.93,-69.964 120.555,-147.148c0.625,-77.184 -143.603,-170.196 -143.603,-170.196c0,0 -6.287,-29.842 -19.502,-86.871c-13.215,-57.029 -150.907,-190.154 -262.385,-223.382c-111.479,-33.228 -200.33,16.157 -200.335,58.505c-0.004,42.348 95.932,60.797 132.965,104.599c37.033,43.803 83.823,94.926 85.098,216.29Z" style="fill:#fbf7f0;" /><path d="M1312.28,721.581c14.23,-13.824 47.673,-43.97 88.52,-65.002c37.494,-19.305 81.098,-30.728 122.096,-16.624c99.901,34.368 127.217,59.093 162.208,117.036c14.248,23.593 19.994,56.192 21.494,86.883c1.592,32.567 -1.471,62.866 -3.27,77.027c30.376,4.839 136.299,25.313 205.202,84.03c79.204,67.495 157.594,115.424 183.842,134.318c23.596,16.985 59.118,21.137 80.997,6.874c12.019,-7.835 39.822,-38.231 72.591,-69.75c34.085,-32.784 73.37,-66.663 106.122,-79.916c66.18,-26.779 168.897,-43.155 262.337,44.186c89.037,83.225 99.376,92.395 165.996,120.748c151.283,64.386 287.422,-11.925 364.694,-95.498c48.55,-52.508 120.801,-93.634 189.706,-112.567c46.65,-12.818 91.787,-15.412 127.239,-5.009c52.15,15.303 115.612,45.467 163.943,82.653c33.052,25.431 58.991,54.246 70.2,83.712c27.924,73.408 27.132,81.27 27.132,81.27c-0.103,2.862 -1.669,5.471 -4.147,6.908c0,0 -57.659,33.544 -43.884,101.043c13.801,67.627 81.585,76.732 81.585,76.732c3.781,0.506 6.735,3.515 7.172,7.304l10.418,90.287l172.713,271.406c0.841,1.322 1.292,2.853 1.303,4.42l1.729,266.276c37.173,8.145 219.654,54.535 373.452,208.334c104.357,104.357 138.756,197.496 138.049,265.12c-0.493,47.097 -17.936,82.318 -41.078,101.732c-16.781,14.077 -57.444,28.798 -106.349,42.004c-106.883,28.862 -253.564,52.062 -264.108,53.714c-5.688,1.74 -50.205,15.032 -98.684,19.99c-35.613,3.642 -73.273,2.593 -99.984,-9.949c-64.71,-30.384 -161.859,-125.702 -161.859,-125.702c-2.362,-2.323 -3.124,-5.824 -1.941,-8.918c0,0 40.041,-104.332 43.815,-141.469c3.164,-31.132 4.712,-109.064 5.146,-134.619l-910.698,-20.896l-5.041,149.546c-0.154,4.557 -3.94,8.144 -8.499,8.051l-173.741,-3.546c-4.535,-0.093 -8.163,-3.795 -8.163,-8.332l0,-50.219l-295.573,-1.679l-4.894,189.225l296.921,10.065l0,-2.017c0,-2.24 0.902,-4.386 2.502,-5.953c1.6,-1.567 3.764,-2.425 6.003,-2.379l171.969,3.546c2.235,0.046 4.357,0.988 5.891,2.614c1.534,1.626 2.35,3.8 2.265,6.033l-8.864,234.019c-0.074,1.964 -0.84,3.838 -2.162,5.292c0,0 -25.754,28.332 -60.419,50.918c-23.853,15.541 -51.887,28.183 -78.755,28.042c-39.279,-0.206 -81.526,-21.01 -113.793,-37.84c-12.245,-6.387 -22.984,-12.14 -31.455,-15.702c-4.439,-1.866 -8.017,-3.201 -10.687,-3.19c-2.938,0.012 -5.663,1.254 -8.564,2.935c-4.046,2.345 -8.24,5.576 -12.983,9.053c-16.117,11.815 -37.726,26.261 -76.215,25.24c-61.797,-1.64 -103.636,-42.082 -169.064,-114.432c-65.455,-72.38 -82.903,-99.138 -85.467,-150.55c-2.217,-44.447 0.907,-139.39 1.626,-159.881l-239.931,-211.91c-0.238,-0.21 -0.464,-0.434 -0.676,-0.67c0,0 -23.118,-25.655 -55.331,-42.929c-20.632,-11.063 -45.096,-18.843 -69.516,-13.044c-25.346,6.019 -56.179,30.587 -85.147,59.896c-44.259,44.781 -83.928,101.063 -91.458,124.266c-12.505,38.532 -35.362,122.267 20.703,227.529c56.961,106.944 172.673,249.287 271.232,299.658c99.102,50.648 109.161,54.619 109.161,54.619c2.103,0.822 3.782,2.463 4.653,4.547c0.871,2.083 0.859,4.431 -0.033,6.506l-81.552,189.697c-0.887,2.062 -2.568,3.68 -4.663,4.486c-2.095,0.806 -4.427,0.733 -6.467,-0.203c0,0 -198.685,-91.293 -280.639,-169.987c-82.048,-78.784 -152.904,-156.447 -198.592,-256.057c-36.629,-79.862 -58.792,-109.623 -65.365,-117.531c-14.921,-0.315 -71.375,-2.172 -111.752,-12.614c-28.391,-7.342 -76.787,-35.959 -116.248,-67.981c-26.631,-21.611 -49.143,-44.807 -59.225,-63.832c-19.015,-35.88 -39.852,-61.029 -47.281,-69.5c-29.066,3.637 -189.695,17.423 -309.368,-102.251c-131.464,-131.464 -123.563,-275.39 -117.653,-352.242c2.41,-31.333 16.058,-63.834 32.781,-92.925c24.345,-42.349 55.058,-77.385 64.524,-90.398c6.45,-8.867 21.107,-19.298 34.851,-32.67c17.88,-17.397 34.258,-40.618 20.867,-74.61c-9.333,-23.69 -20.619,-39.394 -33.606,-49.917c-19.588,-15.871 -42.829,-19.917 -67.765,-22.869c-23.09,-2.733 -65.671,-22.416 -102.845,-54.636c-37.286,-32.318 -68.988,-77.07 -71.151,-128.806c-4.29,-102.591 24.3,-177.517 87.4,-214.942c37.646,-22.328 65.728,-28.558 87.681,-32.641c13.32,-2.478 24.197,-3.947 33.48,-8.461c14.137,-6.875 33.419,-17.538 47.186,-31.272c8.184,-8.165 14.48,-17.365 15.538,-27.68c0.953,-9.291 1.141,-17.903 2.438,-25.601c1.56,-9.262 4.662,-17.341 11.25,-24.12c8.027,-8.26 21.804,-14.824 46.744,-17.973c32.889,-4.153 120.047,-23.99 201.992,-64.213c54.051,-26.531 105.919,-61.899 137.927,-107.8c41.289,-59.209 60.204,-87.774 72.275,-101.341c5.866,-6.592 10.54,-10.103 14.974,-12.066c6.555,-2.902 12.835,-2.477 22.943,-1.833c15.874,1.011 24.412,5.318 29.13,9.374Zm1464.872,447.479c-67.558,-28.753 -78.132,-37.931 -168.423,-122.328c-90.291,-84.397 -189.571,-68.426 -253.521,-42.549c-63.95,25.877 -152.876,133.008 -177.287,148.921c-24.411,15.913 -64.09,11.859 -90.416,-7.091c-26.326,-18.95 -104.938,-67.042 -184.379,-134.738c-79.441,-67.697 -209.199,-83.325 -209.199,-83.325c0,0 18.043,-110.351 -15.956,-166.65c-33.999,-56.299 -60.719,-80.071 -157.786,-113.464c-97.066,-33.393 -209.199,86.871 -209.199,86.871c0,0 -0.447,-12.404 -28.366,-14.183c-27.919,-1.779 -20.902,-5.792 -102.827,111.691c-81.925,117.483 -290.186,168.503 -345.71,175.514c-55.524,7.011 -50.076,29.955 -53.186,60.278c-3.111,30.323 -42.663,53.581 -67.369,65.596c-24.706,12.015 -59.766,4.722 -120.555,40.776c-60.79,36.054 -87.458,108.591 -83.325,207.426c4.133,98.835 122.406,170.278 166.65,175.514c44.244,5.236 83.171,14.611 108.145,78.006c24.974,63.395 -41.082,93.722 -56.732,115.237c-15.65,21.514 -89.935,103.649 -95.735,179.06c-5.8,75.411 -13.764,216.71 115.237,345.71c129,129 306.707,99.281 306.707,99.281c0,0 27.169,28.713 51.413,74.461c24.245,45.748 124.12,115.732 170.196,127.647c46.076,11.915 113.464,12.41 113.464,12.41c0,0 23.893,23.673 69.142,122.328c45.249,98.655 115.528,175.493 196.789,253.521c81.261,78.028 278.341,168.423 278.341,168.423l81.552,-189.697c0,0 -10.143,-3.967 -109.918,-54.959c-99.775,-50.992 -217.132,-194.897 -274.795,-303.161c-57.663,-108.264 -34.136,-194.388 -21.274,-234.019c12.862,-39.631 116.459,-173.989 182.606,-189.697c66.147,-15.709 132.965,58.505 132.965,58.505l242.884,214.518c0,0 -4.255,113.342 -1.773,163.104c2.482,49.762 19.97,75.318 83.325,145.376c63.355,70.057 103.265,110.103 163.104,111.691c59.839,1.588 75.86,-37.143 97.508,-37.23c21.648,-0.087 92.684,56.4 156.013,56.732c63.329,0.332 132.965,-76.234 132.965,-76.234l8.864,-234.019l-171.969,-3.546l0,10.637l-313.798,-10.637l5.319,-205.653l312.026,1.773l0,58.505l173.741,3.546l5.319,-157.786l927.212,21.274c0,0 -1.489,105.917 -5.319,143.603c-3.83,37.686 -44.322,143.603 -44.322,143.603c0,0 95.733,94.132 159.559,124.101c63.826,29.969 193.243,-10.637 193.243,-10.637c0,0 312.796,-48.503 366.985,-93.962c54.189,-45.459 72.679,-184.387 -97.508,-354.574c-170.187,-170.187 -375.849,-207.426 -375.849,-207.426l-1.773,-273.022l-173.741,-273.022l-10.637,-92.189c0,0 -73.652,-9.865 -88.644,-83.325c-14.992,-73.46 47.868,-109.918 47.868,-109.918c0,0 0.267,-7.395 -26.593,-78.006c-26.86,-70.611 -143.237,-136.253 -228.701,-161.331c-85.463,-25.079 -229.243,29.539 -308.48,115.237c-79.237,85.698 -218.946,163.531 -374.076,97.508Zm-1794.885,509.258c-1.275,-121.365 -48.065,-172.487 -85.098,-216.29c-37.033,-43.803 -132.97,-62.251 -132.965,-104.599c0.004,-42.348 88.856,-91.733 200.335,-58.505c111.479,33.228 249.17,166.353 262.385,223.382c13.215,57.029 19.502,86.871 19.502,86.871c0,0 144.228,93.011 143.603,170.196c-0.625,77.184 -53.815,123.186 -120.555,147.148c-66.741,23.963 -101.054,17.729 -101.054,17.729c0,0 67.568,251.748 -179.06,251.748c-246.628,0 -176.442,-269.558 -131.193,-304.934c45.249,-35.376 125.076,-119.886 124.101,-212.745Zm8.333,-0.088c1.004,95.633 -80.7,182.964 -127.301,219.397c-12.737,9.958 -26.943,39.988 -35.234,76.735c-11.838,52.47 -11.134,119.055 27.453,163.853c25.637,29.764 67.982,49.447 133.841,49.447c70.754,0 114.639,-21.197 141.167,-51.53c24.658,-28.195 34.241,-63.973 37.063,-96.679c4.313,-49.967 -7.219,-93.045 -7.219,-93.045c-0.74,-2.758 -0.017,-5.704 1.918,-7.805c1.934,-2.101 4.81,-3.065 7.62,-2.555c0,0 32.806,5.585 96.748,-17.373c63.404,-22.765 114.444,-66.047 115.038,-139.373c0.235,-29.065 -21.994,-60.162 -47.979,-87.437c-40.729,-42.752 -91.807,-75.688 -91.807,-75.688c-1.87,-1.206 -3.179,-3.109 -3.638,-5.286c0,0 -6.275,-29.786 -19.465,-86.707c-5.078,-21.914 -29.694,-55.236 -63.772,-89.721c-52.277,-52.903 -127.163,-107.969 -192.875,-127.556c-64.223,-19.143 -120.644,-10.032 -155.491,9.344c-20.926,11.636 -34.129,26.525 -34.13,41.175c-0.001,6.423 3.173,12.001 8.053,17.273c5.967,6.445 14.392,12.305 24.03,18.074c31.919,19.105 76.17,36.97 98.913,63.871c37.933,44.867 85.761,97.27 87.067,221.583Z" style="fill:#a99a8e;" /></g><g id="tables"><g id="table-12"><g id="table"><path class="seat" id="seat-12-5" d="M3674.437,1811.366c0,-8.317 6.752,-15.069 15.069,-15.069c8.317,0 15.069,6.752 15.069,15.069c0,8.317 -6.752,15.069 -15.069,15.069c-8.317,0 -15.069,-6.752 -15.069,-15.069Z" style="fill:#e8b7ae;fill-opacity:0.6;" /><path class="seat" id="seat-12-1" d="M3704.576,1638.293c0,8.317 -6.752,15.069 -15.069,15.069c-8.317,0 -15.069,-6.752 -15.069,-15.069c0,-8.317 6.752,-15.069 15.069,-15.069c8.317,0 15.069,6.752 15.069,15.069Z" style="fill:#e8b7ae;fill-opacity:0.6;" /><path class="seat" id="seat-12-6" d="M3617.66,1775.364c5.881,-5.881 15.43,-5.881 21.311,0c5.881,5.881 5.881,15.43 -0,21.311c-5.881,5.881 -15.43,5.881 -21.311,0c-5.881,-5.881 -5.881,-15.43 -0,-21.311Z" style="fill:#e8b7ae;fill-opacity:0.6;" /><path class="seat" id="seat-12-2" d="M3761.353,1674.294c-5.881,5.881 -15.43,5.881 -21.311,0c-5.881,-5.881 -5.881,-15.43 0,-21.311c5.881,-5.881 15.43,-5.881 21.311,0c5.881,5.881 5.881,15.43 0,21.311Z" style="fill:#e8b7ae;fill-opacity:0.6;" /><path class="seat" id="seat-12-7" d="M3602.97,1709.76c8.317,0 15.069,6.752 15.069,15.069c0,8.317 -6.752,15.069 -15.069,15.069c-8.317,0 -15.069,-6.752 -15.069,-15.069c0,-8.317 6.752,-15.069 15.069,-15.069Z" style="fill:#e8b7ae;fill-opacity:0.6;" /><path class="seat" id="seat-12-3" d="M3776.043,1739.899c-8.317,0 -15.069,-6.752 -15.069,-15.069c0,-8.317 6.752,-15.069 15.069,-15.069c8.317,0 15.069,6.752 15.069,15.069c0,8.317 -6.752,15.069 -15.069,15.069Z" style="fill:#e8b7ae;fill-opacity:0.6;" /><path class="seat" id="seat-12-8" d="M3638.971,1652.983c5.881,5.881 5.881,15.43 0,21.311c-5.881,5.881 -15.43,5.881 -21.311,-0c-5.881,-5.881 -5.881,-15.43 -0,-21.311c5.881,-5.881 15.43,-5.881 21.311,-0Z" style="fill:#e8b7ae;fill-opacity:0.6;" /><path class="seat" id="seat-12-4" d="M3740.041,1796.676c-5.881,-5.881 -5.881,-15.43 0,-21.311c5.881,-5.881 15.43,-5.881 21.311,0c5.881,5.881 5.881,15.43 0,21.311c-5.881,5.881 -15.43,5.881 -21.311,0Z" style="fill:#e8b7ae;fill-opacity:0.6;" /><path id="table-12-shape" d="M3626.688,1724.829c0,-34.67 28.148,-62.818 62.818,-62.818c34.67,0 62.818,28.148 62.818,62.818c0,34.67 -28.148,62.818 -62.818,62.818c-34.67,0 -62.818,-28.148 -62.818,-62.818Z" style="fill:#e8b7ae;" /></g></g><g id="table-11"><g id="table1" serif:id="table"><path class="seat" id="seat-11-5" d="M3684.327,2104.733c0,-8.317 6.752,-15.069 15.069,-15.069c8.317,0 15.069,6.752 15.069,15.069c0,8.317 -6.752,15.069 -15.069,15.069c-8.317,0 -15.069,-6.752 -15.069,-15.069Z" style="fill:#e8b7ae;fill-opacity:0.6;" /><path class="seat" id="seat-11-1" d="M3714.466,1931.66c0,8.317 -6.752,15.069 -15.069,15.069c-8.317,0 -15.069,-6.752 -15.069,-15.069c0,-8.317 6.752,-15.069 15.069,-15.069c8.317,0 15.069,6.752 15.069,15.069Z" style="fill:#e8b7ae;fill-opacity:0.6;" /><path class="seat" id="seat-11-6" d="M3627.55,2068.731c5.881,-5.881 15.43,-5.881 21.311,0c5.881,5.881 5.881,15.43 -0,21.311c-5.881,5.881 -15.43,5.881 -21.311,0c-5.881,-5.881 -5.881,-15.43 -0,-21.311Z" style="fill:#e8b7ae;fill-opacity:0.6;" /><path class="seat" id="seat-11-2" d="M3771.243,1967.661c-5.881,5.881 -15.43,5.881 -21.311,0c-5.881,-5.881 -5.881,-15.43 0,-21.311c5.881,-5.881 15.43,-5.881 21.311,0c5.881,5.881 5.881,15.43 0,21.311Z" style="fill:#e8b7ae;fill-opacity:0.6;" /><path class="seat" id="seat-11-7" d="M3612.86,2003.127c8.317,0 15.069,6.752 15.069,15.069c0,8.317 -6.752,15.069 -15.069,15.069c-8.317,0 -15.069,-6.752 -15.069,-15.069c0,-8.317 6.752,-15.069 15.069,-15.069Z" style="fill:#e8b7ae;fill-opacity:0.6;" /><path class="seat" id="seat-11-3" d="M3785.933,2033.266c-8.317,0 -15.069,-6.752 -15.069,-15.069c0,-8.317 6.752,-15.069 15.069,-15.069c8.317,0 15.069,6.752 15.069,15.069c0,8.317 -6.752,15.069 -15.069,15.069Z" style="fill:#e8b7ae;fill-opacity:0.6;" /><path class="seat" id="seat-11-8" d="M3648.861,1946.35c5.881,5.881 5.881,15.43 0,21.311c-5.881,5.881 -15.43,5.881 -21.311,-0c-5.881,-5.881 -5.881,-15.43 -0,-21.311c5.881,-5.881 15.43,-5.881 21.311,-0Z" style="fill:#e8b7ae;fill-opacity:0.6;" /><path class="seat" id="seat-11-4" d="M3749.931,2090.043c-5.881,-5.881 -5.881,-15.43 0,-21.311c5.881,-5.881 15.43,-5.881 21.311,0c5.881,5.881 5.881,15.43 0,21.311c-5.881,5.881 -15.43,5.881 -21.311,0Z" style="fill:#e8b7ae;fill-opacity:0.6;" /><path id="table-11-shape" d="M3636.578,2018.196c0,-34.67 28.148,-62.818 62.818,-62.818c34.67,0 62.818,28.148 62.818,62.818c0,34.67 -28.148,62.818 -62.818,62.818c-34.67,0 -62.818,-28.148 -62.818,-62.818Z" style="fill:#e8b7ae;" /></g></g><g id="table-10"><g id="table2" serif:id="table"><path class="seat" id="seat-10-5" d="M3396.642,1812.391c0,-8.317 6.752,-15.069 15.069,-15.069c8.317,0 15.069,6.752 15.069,15.069c0,8.317 -6.752,15.069 -15.069,15.069c-8.317,0 -15.069,-6.752 -15.069,-15.069Z" style="fill:#e8b7ae;fill-opacity:0.6;" /><path class="seat" id="seat-10-1" d="M3426.78,1639.317c0,8.317 -6.752,15.069 -15.069,15.069c-8.317,0 -15.069,-6.752 -15.069,-15.069c0,-8.317 6.752,-15.069 15.069,-15.069c8.317,0 15.069,6.752 15.069,15.069Z" style="fill:#e8b7ae;fill-opacity:0.6;" /><path class="seat" id="seat-10-6" d="M3339.865,1776.389c5.881,-5.881 15.43,-5.881 21.311,0c5.881,5.881 5.881,15.43 -0,21.311c-5.881,5.881 -15.43,5.881 -21.311,0c-5.881,-5.881 -5.881,-15.43 -0,-21.311Z" style="fill:#e8b7ae;fill-opacity:0.6;" /><path class="seat" id="seat-10-2" d="M3483.557,1675.319c-5.881,5.881 -15.43,5.881 -21.311,0c-5.881,-5.881 -5.881,-15.43 0,-21.311c5.881,-5.881 15.43,-5.881 21.311,0c5.881,5.881 5.881,15.43 0,21.311Z" style="fill:#e8b7ae;fill-opacity:0.6;" /><path class="seat" id="seat-10-7" d="M3325.174,1710.785c8.317,0 15.069,6.752 15.069,15.069c0,8.317 -6.752,15.069 -15.069,15.069c-8.317,0 -15.069,-6.752 -15.069,-15.069c0,-8.317 6.752,-15.069 15.069,-15.069Z" style="fill:#e8b7ae;fill-opacity:0.6;" /><path class="seat" id="seat-10-3" d="M3498.248,1740.923c-8.317,0 -15.069,-6.752 -15.069,-15.069c0,-8.317 6.752,-15.069 15.069,-15.069c8.317,0 15.069,6.752 15.069,15.069c0,8.317 -6.752,15.069 -15.069,15.069Z" style="fill:#e8b7ae;fill-opacity:0.6;" /><path class="seat" id="seat-10-8" d="M3361.176,1654.008c5.881,5.881 5.881,15.43 0,21.311c-5.881,5.881 -15.43,5.881 -21.311,-0c-5.881,-5.881 -5.881,-15.43 -0,-21.311c5.881,-5.881 15.43,-5.881 21.311,-0Z" style="fill:#e8b7ae;fill-opacity:0.6;" /><path class="seat" id="seat-10-4" d="M3462.246,1797.7c-5.881,-5.881 -5.881,-15.43 0,-21.311c5.881,-5.881 15.43,-5.881 21.311,0c5.881,5.881 5.881,15.43 0,21.311c-5.881,5.881 -15.43,5.881 -21.311,0Z" style="fill:#e8b7ae;fill-opacity:0.6;" /><path id="table-10-shape" d="M3348.893,1725.854c0,-34.67 28.148,-62.818 62.818,-62.818c34.67,0 62.818,28.148 62.818,62.818c0,34.67 -28.148,62.818 -62.818,62.818c-34.67,0 -62.818,-28.148 -62.818,-62.818Z" style="fill:#e8b7ae;" /></g></g><g id="table-9"><g id="table3" serif:id="table"><path class="seat" id="seat-9-5" d="M3396.179,2106.372c0,-8.317 6.752,-15.069 15.069,-15.069c8.317,0 15.069,6.752 15.069,15.069c0,8.317 -6.752,15.069 -15.069,15.069c-8.317,0 -15.069,-6.752 -15.069,-15.069Z" style="fill:#e8b7ae;fill-opacity:0.6;" /><path class="seat" id="seat-9-1" d="M3426.318,1933.299c0,8.317 -6.752,15.069 -15.069,15.069c-8.317,0 -15.069,-6.752 -15.069,-15.069c0,-8.317 6.752,-15.069 15.069,-15.069c8.317,0 15.069,6.752 15.069,15.069Z" style="fill:#e8b7ae;fill-opacity:0.6;" /><path class="seat" id="seat-9-6" d="M3339.402,2070.371c5.881,-5.881 15.43,-5.881 21.311,0c5.881,5.881 5.881,15.43 -0,21.311c-5.881,5.881 -15.43,5.881 -21.311,0c-5.881,-5.881 -5.881,-15.43 -0,-21.311Z" style="fill:#e8b7ae;fill-opacity:0.6;" /><path class="seat" id="seat-9-2" d="M3483.095,1969.301c-5.881,5.881 -15.43,5.881 -21.311,0c-5.881,-5.881 -5.881,-15.43 0,-21.311c5.881,-5.881 15.43,-5.881 21.311,0c5.881,5.881 5.881,15.43 0,21.311Z" style="fill:#e8b7ae;fill-opacity:0.6;" /><path class="seat" id="seat-9-7" d="M3324.712,2004.766c8.317,0 15.069,6.752 15.069,15.069c0,8.317 -6.752,15.069 -15.069,15.069c-8.317,0 -15.069,-6.752 -15.069,-15.069c0,-8.317 6.752,-15.069 15.069,-15.069Z" style="fill:#e8b7ae;fill-opacity:0.6;" /><path class="seat" id="seat-9-3" d="M3497.785,2034.905c-8.317,0 -15.069,-6.752 -15.069,-15.069c0,-8.317 6.752,-15.069 15.069,-15.069c8.317,0 15.069,6.752 15.069,15.069c0,8.317 -6.752,15.069 -15.069,15.069Z" style="fill:#e8b7ae;fill-opacity:0.6;" /><path class="seat" id="seat-9-8" d="M3360.713,1947.989c5.881,5.881 5.881,15.43 0,21.311c-5.881,5.881 -15.43,5.881 -21.311,-0c-5.881,-5.881 -5.881,-15.43 -0,-21.311c5.881,-5.881 15.43,-5.881 21.311,-0Z" style="fill:#e8b7ae;fill-opacity:0.6;" /><path class="seat" id="seat-9-4" d="M3461.783,2091.682c-5.881,-5.881 -5.881,-15.43 0,-21.311c5.881,-5.881 15.43,-5.881 21.311,0c5.881,5.881 5.881,15.43 0,21.311c-5.881,5.881 -15.43,5.881 -21.311,0Z" style="fill:#e8b7ae;fill-opacity:0.6;" /><path id="table-9-shape" d="M3348.43,2019.836c0,-34.67 28.148,-62.818 62.818,-62.818c34.67,0 62.818,28.148 62.818,62.818c0,34.67 -28.148,62.818 -62.818,62.818c-34.67,0 -62.818,-28.148 -62.818,-62.818Z" style="fill:#e8b7ae;" /></g></g><g id="table-8"><g id="table4" serif:id="table"><path class="seat" id="seat-8-5" d="M3131.724,1794.828c0,-8.317 6.752,-15.069 15.069,-15.069c8.317,0 15.069,6.752 15.069,15.069c0,8.317 -6.752,15.069 -15.069,15.069c-8.317,0 -15.069,-6.752 -15.069,-15.069Z" style="fill:#e8b7ae;fill-opacity:0.6;" /><path class="seat" id="seat-8-1" d="M3161.863,1621.754c0,8.317 -6.752,15.069 -15.069,15.069c-8.317,0 -15.069,-6.752 -15.069,-15.069c0,-8.317 6.752,-15.069 15.069,-15.069c8.317,0 15.069,6.752 15.069,15.069Z" style="fill:#e8b7ae;fill-opacity:0.6;" /><path class="seat" id="seat-8-6" d="M3074.947,1758.826c5.881,-5.881 15.43,-5.881 21.311,0c5.881,5.881 5.881,15.43 -0,21.311c-5.881,5.881 -15.43,5.881 -21.311,0c-5.881,-5.881 -5.881,-15.43 -0,-21.311Z" style="fill:#e8b7ae;fill-opacity:0.6;" /><path class="seat" id="seat-8-2" d="M3218.64,1657.756c-5.881,5.881 -15.43,5.881 -21.311,0c-5.881,-5.881 -5.881,-15.43 0,-21.311c5.881,-5.881 15.43,-5.881 21.311,0c5.881,5.881 5.881,15.43 0,21.311Z" style="fill:#e8b7ae;fill-opacity:0.6;" /><path class="seat" id="seat-8-7" d="M3060.257,1693.222c8.317,0 15.069,6.752 15.069,15.069c0,8.317 -6.752,15.069 -15.069,15.069c-8.317,0 -15.069,-6.752 -15.069,-15.069c0,-8.317 6.752,-15.069 15.069,-15.069Z" style="fill:#e8b7ae;fill-opacity:0.6;" /><path class="seat" id="seat-8-3" d="M3233.33,1723.36c-8.317,0 -15.069,-6.752 -15.069,-15.069c0,-8.317 6.752,-15.069 15.069,-15.069c8.317,0 15.069,6.752 15.069,15.069c0,8.317 -6.752,15.069 -15.069,15.069Z" style="fill:#e8b7ae;fill-opacity:0.6;" /><path class="seat" id="seat-8-8" d="M3096.258,1636.445c5.881,5.881 5.881,15.43 0,21.311c-5.881,5.881 -15.43,5.881 -21.311,-0c-5.881,-5.881 -5.881,-15.43 -0,-21.311c5.881,-5.881 15.43,-5.881 21.311,-0Z" style="fill:#e8b7ae;fill-opacity:0.6;" /><path class="seat" id="seat-8-4" d="M3197.328,1780.137c-5.881,-5.881 -5.881,-15.43 0,-21.311c5.881,-5.881 15.43,-5.881 21.311,0c5.881,5.881 5.881,15.43 0,21.311c-5.881,5.881 -15.43,5.881 -21.311,0Z" style="fill:#e8b7ae;fill-opacity:0.6;" /><path id="table-8-shape" d="M3083.975,1708.291c0,-34.67 28.148,-62.818 62.818,-62.818c34.67,0 62.818,28.148 62.818,62.818c0,34.67 -28.148,62.818 -62.818,62.818c-34.67,0 -62.818,-28.148 -62.818,-62.818Z" style="fill:#e8b7ae;" /></g></g><g id="table-7"><g id="table5" serif:id="table"><path class="seat" id="seat-7-5" d="M3130.248,2095.735c0,-8.317 6.752,-15.069 15.069,-15.069c8.317,0 15.069,6.752 15.069,15.069c0,8.317 -6.752,15.069 -15.069,15.069c-8.317,0 -15.069,-6.752 -15.069,-15.069Z" style="fill:#e8b7ae;fill-opacity:0.6;" /><path class="seat" id="seat-7-1" d="M3160.387,1922.662c0,8.317 -6.752,15.069 -15.069,15.069c-8.317,0 -15.069,-6.752 -15.069,-15.069c0,-8.317 6.752,-15.069 15.069,-15.069c8.317,0 15.069,6.752 15.069,15.069Z" style="fill:#e8b7ae;fill-opacity:0.6;" /><path class="seat" id="seat-7-6" d="M3073.471,2059.733c5.881,-5.881 15.43,-5.881 21.311,0c5.881,5.881 5.881,15.43 0,21.311c-5.881,5.881 -15.43,5.881 -21.311,0c-5.881,-5.881 -5.881,-15.43 -0,-21.311Z" style="fill:#e8b7ae;fill-opacity:0.6;" /><path class="seat" id="seat-7-2" d="M3217.164,1958.663c-5.881,5.881 -15.43,5.881 -21.311,0c-5.881,-5.881 -5.881,-15.43 0,-21.311c5.881,-5.881 15.43,-5.881 21.311,0c5.881,5.881 5.881,15.43 0,21.311Z" style="fill:#e8b7ae;fill-opacity:0.6;" /><path class="seat" id="seat-7-7" d="M3058.781,1994.129c8.317,0 15.069,6.752 15.069,15.069c0,8.317 -6.752,15.069 -15.069,15.069c-8.317,0 -15.069,-6.752 -15.069,-15.069c0,-8.317 6.752,-15.069 15.069,-15.069Z" style="fill:#e8b7ae;fill-opacity:0.6;" /><path class="seat" id="seat-7-3" d="M3231.854,2024.268c-8.317,0 -15.069,-6.752 -15.069,-15.069c0,-8.317 6.752,-15.069 15.069,-15.069c8.317,0 15.069,6.752 15.069,15.069c0,8.317 -6.752,15.069 -15.069,15.069Z" style="fill:#e8b7ae;fill-opacity:0.6;" /><path class="seat" id="seat-7-8" d="M3094.783,1937.352c5.881,5.881 5.881,15.43 0,21.311c-5.881,5.881 -15.43,5.881 -21.311,-0c-5.881,-5.881 -5.881,-15.43 -0,-21.311c5.881,-5.881 15.43,-5.881 21.311,-0Z" style="fill:#e8b7ae;fill-opacity:0.6;" /><path class="seat" id="seat-7-4" d="M3195.853,2081.045c-5.881,-5.881 -5.881,-15.43 0,-21.311c5.881,-5.881 15.43,-5.881 21.311,0c5.881,5.881 5.881,15.43 0,21.311c-5.881,5.881 -15.43,5.881 -21.311,0Z" style="fill:#e8b7ae;fill-opacity:0.6;" /><path id="table-7-shape" d="M3082.499,2009.198c0,-34.67 28.148,-62.818 62.818,-62.818c34.67,0 62.818,28.148 62.818,62.818c0,34.67 -28.148,62.818 -62.818,62.818c-34.67,0 -62.818,-28.148 -62.818,-62.818Z" style="fill:#e8b7ae;" /></g></g><g id="table-6"><g id="table6" serif:id="table"><path class="seat" id="seat-6-5" d="M2466.088,1798.196c0,-8.317 6.752,-15.069 15.069,-15.069c8.317,0 15.069,6.752 15.069,15.069c0,8.317 -6.752,15.069 -15.069,15.069c-8.317,0 -15.069,-6.752 -15.069,-15.069Z" style="fill:#e8b7ae;fill-opacity:0.6;" /><path class="seat" id="seat-6-1" d="M2496.227,1625.123c0,8.317 -6.752,15.069 -15.069,15.069c-8.317,0 -15.069,-6.752 -15.069,-15.069c0,-8.317 6.752,-15.069 15.069,-15.069c8.317,0 15.069,6.752 15.069,15.069Z" style="fill:#e8b7ae;fill-opacity:0.6;" /><path class="seat" id="seat-6-6" d="M2409.311,1762.194c5.881,-5.881 15.43,-5.881 21.311,0c5.881,5.881 5.881,15.43 -0,21.311c-5.881,5.881 -15.43,5.881 -21.311,0c-5.881,-5.881 -5.881,-15.43 -0,-21.311Z" style="fill:#e8b7ae;fill-opacity:0.6;" /><path class="seat" id="seat-6-2" d="M2553.004,1661.124c-5.881,5.881 -15.43,5.881 -21.311,0c-5.881,-5.881 -5.881,-15.43 0,-21.311c5.881,-5.881 15.43,-5.881 21.311,0c5.881,5.881 5.881,15.43 0,21.311Z" style="fill:#e8b7ae;fill-opacity:0.6;" /><path class="seat" id="seat-6-7" d="M2394.621,1696.59c8.317,0 15.069,6.752 15.069,15.069c0,8.317 -6.752,15.069 -15.069,15.069c-8.317,0 -15.069,-6.752 -15.069,-15.069c0,-8.317 6.752,-15.069 15.069,-15.069Z" style="fill:#e8b7ae;fill-opacity:0.6;" /><path class="seat" id="seat-6-3" d="M2567.694,1726.729c-8.317,0 -15.069,-6.752 -15.069,-15.069c0,-8.317 6.752,-15.069 15.069,-15.069c8.317,0 15.069,6.752 15.069,15.069c0,8.317 -6.752,15.069 -15.069,15.069Z" style="fill:#e8b7ae;fill-opacity:0.6;" /><path class="seat" id="seat-6-8" d="M2430.622,1639.813c5.881,5.881 5.881,15.43 0,21.311c-5.881,5.881 -15.43,5.881 -21.311,-0c-5.881,-5.881 -5.881,-15.43 -0,-21.311c5.881,-5.881 15.43,-5.881 21.311,-0Z" style="fill:#e8b7ae;fill-opacity:0.6;" /><path class="seat" id="seat-6-4" d="M2531.692,1783.506c-5.881,-5.881 -5.881,-15.43 0,-21.311c5.881,-5.881 15.43,-5.881 21.311,0c5.881,5.881 5.881,15.43 0,21.311c-5.881,5.881 -15.43,5.881 -21.311,0Z" style="fill:#e8b7ae;fill-opacity:0.6;" /><path id="table-6-shape" d="M2418.339,1711.659c0,-34.67 28.148,-62.818 62.818,-62.818c34.67,0 62.818,28.148 62.818,62.818c0,34.67 -28.148,62.818 -62.818,62.818c-34.67,0 -62.818,-28.148 -62.818,-62.818Z" style="fill:#e8b7ae;" /></g></g><g id="table-5"><g id="table7" serif:id="table"><path class="seat" id="seat-5-5" d="M2462.839,2106.88c0,-8.317 6.752,-15.069 15.069,-15.069c8.317,0 15.069,6.752 15.069,15.069c0,8.317 -6.752,15.069 -15.069,15.069c-8.317,0 -15.069,-6.752 -15.069,-15.069Z" style="fill:#e8b7ae;fill-opacity:0.6;" /><path class="seat" id="seat-5-1" d="M2492.978,1933.807c0,8.317 -6.752,15.069 -15.069,15.069c-8.317,0 -15.069,-6.752 -15.069,-15.069c0,-8.317 6.752,-15.069 15.069,-15.069c8.317,0 15.069,6.752 15.069,15.069Z" style="fill:#e8b7ae;fill-opacity:0.6;" /><path class="seat" id="seat-5-6" d="M2406.063,2070.879c5.881,-5.881 15.43,-5.881 21.311,0c5.881,5.881 5.881,15.43 -0,21.311c-5.881,5.881 -15.43,5.881 -21.311,0c-5.881,-5.881 -5.881,-15.43 -0,-21.311Z" style="fill:#e8b7ae;fill-opacity:0.6;" /><path class="seat" id="seat-5-2" d="M2549.755,1969.809c-5.881,5.881 -15.43,5.881 -21.311,0c-5.881,-5.881 -5.881,-15.43 0,-21.311c5.881,-5.881 15.43,-5.881 21.311,0c5.881,5.881 5.881,15.43 0,21.311Z" style="fill:#e8b7ae;fill-opacity:0.6;" /><path class="seat" id="seat-5-7" d="M2391.372,2005.274c8.317,0 15.069,6.752 15.069,15.069c0,8.317 -6.752,15.069 -15.069,15.069c-8.317,0 -15.069,-6.752 -15.069,-15.069c0,-8.317 6.752,-15.069 15.069,-15.069Z" style="fill:#e8b7ae;fill-opacity:0.6;" /><path class="seat" id="seat-5-3" d="M2564.446,2035.413c-8.317,0 -15.069,-6.752 -15.069,-15.069c0,-8.317 6.752,-15.069 15.069,-15.069c8.317,0 15.069,6.752 15.069,15.069c0,8.317 -6.752,15.069 -15.069,15.069Z" style="fill:#e8b7ae;fill-opacity:0.6;" /><path class="seat" id="seat-5-8" d="M2427.374,1948.497c5.881,5.881 5.881,15.43 0,21.311c-5.881,5.881 -15.43,5.881 -21.311,-0c-5.881,-5.881 -5.881,-15.43 -0,-21.311c5.881,-5.881 15.43,-5.881 21.311,-0Z" style="fill:#e8b7ae;fill-opacity:0.6;" /><path class="seat" id="seat-5-4" d="M2528.444,2092.19c-5.881,-5.881 -5.881,-15.43 0,-21.311c5.881,-5.881 15.43,-5.881 21.311,0c5.881,5.881 5.881,15.43 0,21.311c-5.881,5.881 -15.43,5.881 -21.311,0Z" style="fill:#e8b7ae;fill-opacity:0.6;" /><path id="table-5-shape" d="M2415.091,2020.344c0,-34.67 28.148,-62.818 62.818,-62.818c34.67,0 62.818,28.148 62.818,62.818c0,34.67 -28.148,62.818 -62.818,62.818c-34.67,0 -62.818,-28.148 -62.818,-62.818Z" style="fill:#e8b7ae;" /></g></g><g id="table-4"><g id="table8" serif:id="table"><path class="seat" id="seat-4-5" d="M2196.732,1795.546c0,-8.317 6.752,-15.069 15.069,-15.069c8.317,0 15.069,6.752 15.069,15.069c0,8.317 -6.752,15.069 -15.069,15.069c-8.317,0 -15.069,-6.752 -15.069,-15.069Z" style="fill:#e8b7ae;fill-opacity:0.6;" /><path class="seat" id="seat-4-1" d="M2226.871,1622.472c0,8.317 -6.752,15.069 -15.069,15.069c-8.317,0 -15.069,-6.752 -15.069,-15.069c0,-8.317 6.752,-15.069 15.069,-15.069c8.317,0 15.069,6.752 15.069,15.069Z" style="fill:#e8b7ae;fill-opacity:0.6;" /><path class="seat" id="seat-4-6" d="M2139.955,1759.544c5.881,-5.881 15.43,-5.881 21.311,0c5.881,5.881 5.881,15.43 -0,21.311c-5.881,5.881 -15.43,5.881 -21.311,0c-5.881,-5.881 -5.881,-15.43 -0,-21.311Z" style="fill:#e8b7ae;fill-opacity:0.6;" /><path class="seat" id="seat-4-2" d="M2283.648,1658.474c-5.881,5.881 -15.43,5.881 -21.311,0c-5.881,-5.881 -5.881,-15.43 0,-21.311c5.881,-5.881 15.43,-5.881 21.311,0c5.881,5.881 5.881,15.43 0,21.311Z" style="fill:#e8b7ae;fill-opacity:0.6;" /><path class="seat" id="seat-4-7" d="M2125.264,1693.94c8.317,0 15.069,6.752 15.069,15.069c0,8.317 -6.752,15.069 -15.069,15.069c-8.317,0 -15.069,-6.752 -15.069,-15.069c0,-8.317 6.752,-15.069 15.069,-15.069Z" style="fill:#e8b7ae;fill-opacity:0.6;" /><path class="seat" id="seat-4-3" d="M2298.338,1724.078c-8.317,0 -15.069,-6.752 -15.069,-15.069c0,-8.317 6.752,-15.069 15.069,-15.069c8.317,0 15.069,6.752 15.069,15.069c0,8.317 -6.752,15.069 -15.069,15.069Z" style="fill:#e8b7ae;fill-opacity:0.6;" /><path class="seat" id="seat-4-8" d="M2161.266,1637.163c5.881,5.881 5.881,15.43 0,21.311c-5.881,5.881 -15.43,5.881 -21.311,-0c-5.881,-5.881 -5.881,-15.43 -0,-21.311c5.881,-5.881 15.43,-5.881 21.311,-0Z" style="fill:#e8b7ae;fill-opacity:0.6;" /><path class="seat" id="seat-4-4" d="M2262.336,1780.855c-5.881,-5.881 -5.881,-15.43 0,-21.311c5.881,-5.881 15.43,-5.881 21.311,0c5.881,5.881 5.881,15.43 0,21.311c-5.881,5.881 -15.43,5.881 -21.311,0Z" style="fill:#e8b7ae;fill-opacity:0.6;" /><path id="table-4-shape" d="M2148.983,1709.009c0,-34.67 28.148,-62.818 62.818,-62.818c34.67,0 62.818,28.148 62.818,62.818c0,34.67 -28.148,62.818 -62.818,62.818c-34.67,0 -62.818,-28.148 -62.818,-62.818Z" style="fill:#e8b7ae;" /></g></g><g id="table-3"><g id="table9" serif:id="table"><path class="seat" id="seat-3-5" d="M2186.097,2096.479c0,-8.317 6.752,-15.069 15.069,-15.069c8.317,0 15.069,6.752 15.069,15.069c0,8.317 -6.752,15.069 -15.069,15.069c-8.317,0 -15.069,-6.752 -15.069,-15.069Z" style="fill:#e8b7ae;fill-opacity:0.6;" /><path class="seat" id="seat-3-1" d="M2216.236,1923.405c0,8.317 -6.752,15.069 -15.069,15.069c-8.317,0 -15.069,-6.752 -15.069,-15.069c0,-8.317 6.752,-15.069 15.069,-15.069c8.317,0 15.069,6.752 15.069,15.069Z" style="fill:#e8b7ae;fill-opacity:0.6;" /><path class="seat" id="seat-3-6" d="M2129.32,2060.477c5.881,-5.881 15.43,-5.881 21.311,0c5.881,5.881 5.881,15.43 -0,21.311c-5.881,5.881 -15.43,5.881 -21.311,0c-5.881,-5.881 -5.881,-15.43 -0,-21.311Z" style="fill:#e8b7ae;fill-opacity:0.6;" /><path class="seat" id="seat-3-2" d="M2273.013,1959.407c-5.881,5.881 -15.43,5.881 -21.311,0c-5.881,-5.881 -5.881,-15.43 0,-21.311c5.881,-5.881 15.43,-5.881 21.311,0c5.881,5.881 5.881,15.43 0,21.311Z" style="fill:#e8b7ae;fill-opacity:0.6;" /><path class="seat" id="seat-3-7" d="M2114.63,1994.873c8.317,0 15.069,6.752 15.069,15.069c0,8.317 -6.752,15.069 -15.069,15.069c-8.317,0 -15.069,-6.752 -15.069,-15.069c0,-8.317 6.752,-15.069 15.069,-15.069Z" style="fill:#e8b7ae;fill-opacity:0.6;" /><path class="seat" id="seat-3-3" d="M2287.703,2025.012c-8.317,0 -15.069,-6.752 -15.069,-15.069c0,-8.317 6.752,-15.069 15.069,-15.069c8.317,0 15.069,6.752 15.069,15.069c0,8.317 -6.752,15.069 -15.069,15.069Z" style="fill:#e8b7ae;fill-opacity:0.6;" /><path class="seat" id="seat-3-8" d="M2150.631,1938.096c5.881,5.881 5.881,15.43 0,21.311c-5.881,5.881 -15.43,5.881 -21.311,-0c-5.881,-5.881 -5.881,-15.43 -0,-21.311c5.881,-5.881 15.43,-5.881 21.311,-0Z" style="fill:#e8b7ae;fill-opacity:0.6;" /><path class="seat" id="seat-3-4" d="M2251.701,2081.789c-5.881,-5.881 -5.881,-15.43 0,-21.311c5.881,-5.881 15.43,-5.881 21.311,0c5.881,5.881 5.881,15.43 0,21.311c-5.881,5.881 -15.43,5.881 -21.311,0Z" style="fill:#e8b7ae;fill-opacity:0.6;" /><path id="table-3-shape" d="M2138.348,2009.942c0,-34.67 28.148,-62.818 62.818,-62.818c34.67,0 62.818,28.148 62.818,62.818c0,34.67 -28.148,62.818 -62.818,62.818c-34.67,0 -62.818,-28.148 -62.818,-62.818Z" style="fill:#e8b7ae;" /></g></g><g id="table-2"><g id="table10" serif:id="table"><path class="seat" id="seat-2-5" d="M1944.341,1705.02c0,-8.317 6.752,-15.069 15.069,-15.069c8.317,0 15.069,6.752 15.069,15.069c0,8.317 -6.752,15.069 -15.069,15.069c-8.317,0 -15.069,-6.752 -15.069,-15.069Z" style="fill:#e8b7ae;fill-opacity:0.6;" /><path class="seat" id="seat-2-1" d="M1974.48,1531.947c0,8.317 -6.752,15.069 -15.069,15.069c-8.317,0 -15.069,-6.752 -15.069,-15.069c0,-8.317 6.752,-15.069 15.069,-15.069c8.317,0 15.069,6.752 15.069,15.069Z" style="fill:#e8b7ae;fill-opacity:0.6;" /><path class="seat" id="seat-2-6" d="M1887.564,1669.018c5.881,-5.881 15.43,-5.881 21.311,0c5.881,5.881 5.881,15.43 -0,21.311c-5.881,5.881 -15.43,5.881 -21.311,0c-5.881,-5.881 -5.881,-15.43 -0,-21.311Z" style="fill:#e8b7ae;fill-opacity:0.6;" /><path class="seat" id="seat-2-2" d="M2031.256,1567.948c-5.881,5.881 -15.43,5.881 -21.311,0c-5.881,-5.881 -5.881,-15.43 0,-21.311c5.881,-5.881 15.43,-5.881 21.311,0c5.881,5.881 5.881,15.43 0,21.311Z" style="fill:#e8b7ae;fill-opacity:0.6;" /><path class="seat" id="seat-2-7" d="M1872.873,1603.414c8.317,0 15.069,6.752 15.069,15.069c0,8.317 -6.752,15.069 -15.069,15.069c-8.317,0 -15.069,-6.752 -15.069,-15.069c0,-8.317 6.752,-15.069 15.069,-15.069Z" style="fill:#e8b7ae;fill-opacity:0.6;" /><path class="seat" id="seat-2-3" d="M2045.947,1633.553c-8.317,0 -15.069,-6.752 -15.069,-15.069c0,-8.317 6.752,-15.069 15.069,-15.069c8.317,0 15.069,6.752 15.069,15.069c0,8.317 -6.752,15.069 -15.069,15.069Z" style="fill:#e8b7ae;fill-opacity:0.6;" /><path class="seat" id="seat-2-8" d="M1908.875,1546.637c5.881,5.881 5.881,15.43 0,21.311c-5.881,5.881 -15.43,5.881 -21.311,-0c-5.881,-5.881 -5.881,-15.43 -0,-21.311c5.881,-5.881 15.43,-5.881 21.311,-0Z" style="fill:#e8b7ae;fill-opacity:0.6;" /><path class="seat" id="seat-2-4" d="M2009.945,1690.33c-5.881,-5.881 -5.881,-15.43 0,-21.311c5.881,-5.881 15.43,-5.881 21.311,0c5.881,5.881 5.881,15.43 0,21.311c-5.881,5.881 -15.43,5.881 -21.311,0Z" style="fill:#e8b7ae;fill-opacity:0.6;" /><path id="table-2-shape" d="M1896.592,1618.483c0,-34.67 28.148,-62.818 62.818,-62.818c34.67,0 62.818,28.148 62.818,62.818c0,34.67 -28.148,62.818 -62.818,62.818c-34.67,0 -62.818,-28.148 -62.818,-62.818Z" style="fill:#e8b7ae;" /></g></g><g id="table-1"><g id="table11" serif:id="table"><path class="seat" id="seat-1-5" d="M1928.429,1996.645c0,-8.317 6.752,-15.069 15.069,-15.069c8.317,0 15.069,6.752 15.069,15.069c0,8.317 -6.752,15.069 -15.069,15.069c-8.317,0 -15.069,-6.752 -15.069,-15.069Z" style="fill:#e8b7ae;fill-opacity:0.6;" /><path class="seat" id="seat-1-1" d="M1958.568,1823.572c0,8.317 -6.752,15.069 -15.069,15.069c-8.317,0 -15.069,-6.752 -15.069,-15.069c0,-8.317 6.752,-15.069 15.069,-15.069c8.317,0 15.069,6.752 15.069,15.069Z" style="fill:#e8b7ae;fill-opacity:0.6;" /><path class="seat" id="seat-1-6" d="M1871.652,1960.643c5.881,-5.881 15.43,-5.881 21.311,0c5.881,5.881 5.881,15.43 -0,21.311c-5.881,5.881 -15.43,5.881 -21.311,0c-5.881,-5.881 -5.881,-15.43 -0,-21.311Z" style="fill:#e8b7ae;fill-opacity:0.6;" /><path class="seat" id="seat-1-2" d="M2015.345,1859.573c-5.881,5.881 -15.43,5.881 -21.311,0c-5.881,-5.881 -5.881,-15.43 0,-21.311c5.881,-5.881 15.43,-5.881 21.311,0c5.881,5.881 5.881,15.43 0,21.311Z" style="fill:#e8b7ae;fill-opacity:0.6;" /><path class="seat" id="seat-1-7" d="M1856.962,1895.039c8.317,0 15.069,6.752 15.069,15.069c0,8.317 -6.752,15.069 -15.069,15.069c-8.317,0 -15.069,-6.752 -15.069,-15.069c0,-8.317 6.752,-15.069 15.069,-15.069Z" style="fill:#e8b7ae;fill-opacity:0.6;" /><path class="seat" id="seat-1-3" d="M2030.035,1925.178c-8.317,0 -15.069,-6.752 -15.069,-15.069c0,-8.317 6.752,-15.069 15.069,-15.069c8.317,0 15.069,6.752 15.069,15.069c0,8.317 -6.752,15.069 -15.069,15.069Z" style="fill:#e8b7ae;fill-opacity:0.6;" /><path class="seat" id="seat-1-8" d="M1892.963,1838.262c5.881,5.881 5.881,15.43 0,21.311c-5.881,5.881 -15.43,5.881 -21.311,-0c-5.881,-5.881 -5.881,-15.43 -0,-21.311c5.881,-5.881 15.43,-5.881 21.311,-0Z" style="fill:#e8b7ae;fill-opacity:0.6;" /><path class="seat" id="seat-1-4" d="M1994.033,1981.955c-5.881,-5.881 -5.881,-15.43 0,-21.311c5.881,-5.881 15.43,-5.881 21.311,0c5.881,5.881 5.881,15.43 0,21.311c-5.881,5.881 -15.43,5.881 -21.311,0Z" style="fill:#e8b7ae;fill-opacity:0.6;" /><path id="table-1-shape" d="M1880.68,1910.108c0,-34.67 28.148,-62.818 62.818,-62.818c34.67,0 62.818,28.148 62.818,62.818c0,34.67 -28.148,62.818 -62.818,62.818c-34.67,0 -62.818,-28.148 -62.818,-62.818Z" style="fill:#e8b7ae;" /></g></g></g><g id="ceremony_seating"><g><g><g id="chair"><path d="M3325.218,756.576c-2.241,-8.364 -10.85,-13.336 -19.215,-11.096c-8.364,2.241 -13.336,10.85 -11.096,19.215c2.241,8.364 10.85,13.336 19.215,11.096c8.364,-2.241 13.336,-10.85 11.096,-19.215Z" style="fill:#fff;" /></g><g id="chair1" serif:id="chair"><path d="M3273.492,770.432c-2.241,-8.364 -10.85,-13.336 -19.215,-11.096c-8.364,2.241 -13.336,10.85 -11.096,19.215c2.241,8.364 10.85,13.336 19.215,11.096c8.364,-2.241 13.336,-10.85 11.096,-19.215Z" style="fill:#fff;" /></g><g id="chair2" serif:id="chair"><path d="M3016.275,841.118c-2.241,-8.364 -10.85,-13.336 -19.215,-11.096c-8.364,2.241 -13.336,10.85 -11.096,19.215c2.241,8.364 10.85,13.336 19.215,11.096c8.364,-2.241 13.336,-10.85 11.096,-19.215Z" style="fill:#fff;" /></g><g id="chair3" serif:id="chair"><path d="M3068,827.262c-2.241,-8.364 -10.85,-13.336 -19.215,-11.096c-8.364,2.241 -13.336,10.85 -11.096,19.215c2.241,8.364 10.85,13.336 19.215,11.096c8.364,-2.241 13.336,-10.85 11.096,-19.215Z" style="fill:#fff;" /></g><g id="chair4" serif:id="chair"><path d="M3119.725,813.407c-2.241,-8.364 -10.85,-13.336 -19.215,-11.096c-8.364,2.241 -13.336,10.85 -11.096,19.215c2.241,8.364 10.85,13.336 19.215,11.096c8.364,-2.241 13.336,-10.85 11.096,-19.215Z" style="fill:#fff;" /></g><g id="chair5" serif:id="chair"><path d="M3170.042,798.143c-2.241,-8.364 -10.85,-13.336 -19.215,-11.096c-8.364,2.241 -13.336,10.85 -11.096,19.215c2.241,8.364 10.85,13.336 19.215,11.096c8.364,-2.241 13.336,-10.85 11.096,-19.215Z" style="fill:#fff;" /></g><g id="chair6" serif:id="chair"><path d="M3221.767,784.287c-2.241,-8.364 -10.85,-13.336 -19.215,-11.096c-8.364,2.241 -13.336,10.85 -11.096,19.215c2.241,8.364 10.85,13.336 19.215,11.096c8.364,-2.241 13.336,-10.85 11.096,-19.215Z" style="fill:#fff;" /></g></g><g><g id="chair7" serif:id="chair"><path d="M3318.126,683.303c-2.241,-8.364 -10.85,-13.336 -19.215,-11.096c-8.364,2.241 -13.336,10.85 -11.096,19.215c2.241,8.364 10.85,13.336 19.215,11.096c8.364,-2.241 13.336,-10.85 11.096,-19.215Z" style="fill:#fff;" /></g><g id="chair8" serif:id="chair"><path d="M3266.401,697.158c-2.241,-8.364 -10.85,-13.336 -19.215,-11.096c-8.364,2.241 -13.336,10.85 -11.096,19.215c2.241,8.364 10.85,13.336 19.215,11.096c8.364,-2.241 13.336,-10.85 11.096,-19.215Z" style="fill:#fff;" /></g><g id="chair9" serif:id="chair"><path d="M3009.183,767.844c-2.241,-8.364 -10.85,-13.336 -19.215,-11.096c-8.364,2.241 -13.336,10.85 -11.096,19.215c2.241,8.364 10.85,13.336 19.215,11.096c8.364,-2.241 13.336,-10.85 11.096,-19.215Z" style="fill:#fff;" /></g><g id="chair10" serif:id="chair"><path d="M3060.909,753.989c-2.241,-8.364 -10.85,-13.336 -19.215,-11.096c-8.364,2.241 -13.336,10.85 -11.096,19.215c2.241,8.364 10.85,13.336 19.215,11.096c8.364,-2.241 13.336,-10.85 11.096,-19.215Z" style="fill:#fff;" /></g><g id="chair11" serif:id="chair"><path d="M3112.634,740.133c-2.241,-8.364 -10.85,-13.336 -19.215,-11.096c-8.364,2.241 -13.336,10.85 -11.096,19.215c2.241,8.364 10.85,13.336 19.215,11.096c8.364,-2.241 13.336,-10.85 11.096,-19.215Z" style="fill:#fff;" /></g><g id="chair12" serif:id="chair"><path d="M3162.95,724.869c-2.241,-8.364 -10.85,-13.336 -19.215,-11.096c-8.364,2.241 -13.336,10.85 -11.096,19.215c2.241,8.364 10.85,13.336 19.215,11.096c8.364,-2.241 13.336,-10.85 11.096,-19.215Z" style="fill:#fff;" /></g><g id="chair13" serif:id="chair"><path d="M3214.676,711.014c-2.241,-8.364 -10.85,-13.336 -19.215,-11.096c-8.364,2.241 -13.336,10.85 -11.096,19.215c2.241,8.364 10.85,13.336 19.215,11.096c8.364,-2.241 13.336,-10.85 11.096,-19.215Z" style="fill:#fff;" /></g></g><g><g id="chair14" serif:id="chair"><path d="M3311.007,607.654c-2.241,-8.364 -10.85,-13.336 -19.215,-11.096c-8.364,2.241 -13.336,10.85 -11.096,19.215c2.241,8.364 10.85,13.336 19.215,11.096c8.364,-2.241 13.336,-10.85 11.096,-19.215Z" style="fill:#fff;" /></g><g id="chair15" serif:id="chair"><path d="M3259.282,621.51c-2.241,-8.364 -10.85,-13.336 -19.215,-11.096c-8.364,2.241 -13.336,10.85 -11.096,19.215c2.241,8.364 10.85,13.336 19.215,11.096c8.364,-2.241 13.336,-10.85 11.096,-19.215Z" style="fill:#fff;" /></g><g id="chair16" serif:id="chair"><path d="M3002.064,692.196c-2.241,-8.364 -10.85,-13.336 -19.215,-11.096c-8.364,2.241 -13.336,10.85 -11.096,19.215c2.241,8.364 10.85,13.336 19.215,11.096c8.364,-2.241 13.336,-10.85 11.096,-19.215Z" style="fill:#fff;" /></g><g id="chair17" serif:id="chair"><path d="M3053.789,678.34c-2.241,-8.364 -10.85,-13.336 -19.215,-11.096c-8.364,2.241 -13.336,10.85 -11.096,19.215c2.241,8.364 10.85,13.336 19.215,11.096c8.364,-2.241 13.336,-10.85 11.096,-19.215Z" style="fill:#fff;" /></g><g id="chair18" serif:id="chair"><path d="M3105.515,664.485c-2.241,-8.364 -10.85,-13.336 -19.215,-11.096c-8.364,2.241 -13.336,10.85 -11.096,19.215c2.241,8.364 10.85,13.336 19.215,11.096c8.364,-2.241 13.336,-10.85 11.096,-19.215Z" style="fill:#fff;" /></g><g id="chair19" serif:id="chair"><path d="M3155.831,649.22c-2.241,-8.364 -10.85,-13.336 -19.215,-11.096c-8.364,2.241 -13.336,10.85 -11.096,19.215c2.241,8.364 10.85,13.336 19.215,11.096c8.364,-2.241 13.336,-10.85 11.096,-19.215Z" style="fill:#fff;" /></g><g id="chair20" serif:id="chair"><path d="M3207.556,635.365c-2.241,-8.364 -10.85,-13.336 -19.215,-11.096c-8.364,2.241 -13.336,10.85 -11.096,19.215c2.241,8.364 10.85,13.336 19.215,11.096c8.364,-2.241 13.336,-10.85 11.096,-19.215Z" style="fill:#fff;" /></g></g><g><g id="chair21" serif:id="chair"><path d="M3303.89,536.798c-2.241,-8.364 -10.85,-13.336 -19.215,-11.096c-8.364,2.241 -13.336,10.85 -11.096,19.215c2.241,8.364 10.85,13.336 19.215,11.096c8.364,-2.241 13.336,-10.85 11.096,-19.215Z" style="fill:#fff;" /></g><g id="chair22" serif:id="chair"><path d="M3252.164,550.654c-2.241,-8.364 -10.85,-13.336 -19.215,-11.096c-8.364,2.241 -13.336,10.85 -11.096,19.215c2.241,8.364 10.85,13.336 19.215,11.096c8.364,-2.241 13.336,-10.85 11.096,-19.215Z" style="fill:#fff;" /></g><g id="chair23" serif:id="chair"><path d="M2994.947,621.34c-2.241,-8.364 -10.85,-13.336 -19.215,-11.096c-8.364,2.241 -13.336,10.85 -11.096,19.215c2.241,8.364 10.85,13.336 19.215,11.096c8.364,-2.241 13.336,-10.85 11.096,-19.215Z" style="fill:#fff;" /></g><g id="chair24" serif:id="chair"><path d="M3046.672,607.484c-2.241,-8.364 -10.85,-13.336 -19.215,-11.096c-8.364,2.241 -13.336,10.85 -11.096,19.215c2.241,8.364 10.85,13.336 19.215,11.096c8.364,-2.241 13.336,-10.85 11.096,-19.215Z" style="fill:#fff;" /></g><g id="chair25" serif:id="chair"><path d="M3098.398,593.629c-2.241,-8.364 -10.85,-13.336 -19.215,-11.096c-8.364,2.241 -13.336,10.85 -11.096,19.215c2.241,8.364 10.85,13.336 19.215,11.096c8.364,-2.241 13.336,-10.85 11.096,-19.215Z" style="fill:#fff;" /></g><g id="chair26" serif:id="chair"><path d="M3148.714,578.365c-2.241,-8.364 -10.85,-13.336 -19.215,-11.096c-8.364,2.241 -13.336,10.85 -11.096,19.215c2.241,8.364 10.85,13.336 19.215,11.096c8.364,-2.241 13.336,-10.85 11.096,-19.215Z" style="fill:#fff;" /></g><g id="chair27" serif:id="chair"><path d="M3200.439,564.509c-2.241,-8.364 -10.85,-13.336 -19.215,-11.096c-8.364,2.241 -13.336,10.85 -11.096,19.215c2.241,8.364 10.85,13.336 19.215,11.096c8.364,-2.241 13.336,-10.85 11.096,-19.215Z" style="fill:#fff;" /></g></g><g><g id="chair28" serif:id="chair"><path d="M3296.798,460.565c-2.241,-8.364 -10.85,-13.336 -19.215,-11.096c-8.364,2.241 -13.336,10.85 -11.096,19.215c2.241,8.364 10.85,13.336 19.215,11.096c8.364,-2.241 13.336,-10.85 11.096,-19.215Z" style="fill:#fff;" /></g><g id="chair29" serif:id="chair"><path d="M3245.073,474.42c-2.241,-8.364 -10.85,-13.336 -19.215,-11.096c-8.364,2.241 -13.336,10.85 -11.096,19.215c2.241,8.364 10.85,13.336 19.215,11.096c8.364,-2.241 13.336,-10.85 11.096,-19.215Z" style="fill:#fff;" /></g><g id="chair30" serif:id="chair"><path d="M2987.856,545.106c-2.241,-8.364 -10.85,-13.336 -19.215,-11.096c-8.364,2.241 -13.336,10.85 -11.096,19.215c2.241,8.364 10.85,13.336 19.215,11.096c8.364,-2.241 13.336,-10.85 11.096,-19.215Z" style="fill:#fff;" /></g><g id="chair31" serif:id="chair"><path d="M3039.581,531.251c-2.241,-8.364 -10.85,-13.336 -19.215,-11.096c-8.364,2.241 -13.336,10.85 -11.096,19.215c2.241,8.364 10.85,13.336 19.215,11.096c8.364,-2.241 13.336,-10.85 11.096,-19.215Z" style="fill:#fff;" /></g><g id="chair32" serif:id="chair"><path d="M3091.306,517.395c-2.241,-8.364 -10.85,-13.336 -19.215,-11.096c-8.364,2.241 -13.336,10.85 -11.096,19.215c2.241,8.364 10.85,13.336 19.215,11.096c8.364,-2.241 13.336,-10.85 11.096,-19.215Z" style="fill:#fff;" /></g><g id="chair33" serif:id="chair"><path d="M3141.622,502.131c-2.241,-8.364 -10.85,-13.336 -19.215,-11.096c-8.364,2.241 -13.336,10.85 -11.096,19.215c2.241,8.364 10.85,13.336 19.215,11.096c8.364,-2.241 13.336,-10.85 11.096,-19.215Z" style="fill:#fff;" /></g><g id="chair34" serif:id="chair"><path d="M3193.348,488.276c-2.241,-8.364 -10.85,-13.336 -19.215,-11.096c-8.364,2.241 -13.336,10.85 -11.096,19.215c2.241,8.364 10.85,13.336 19.215,11.096c8.364,-2.241 13.336,-10.85 11.096,-19.215Z" style="fill:#fff;" /></g></g><g><g id="chair35" serif:id="chair"><path d="M3286.161,386.104c-2.241,-8.364 -10.85,-13.336 -19.215,-11.096c-8.364,2.241 -13.336,10.85 -11.096,19.215c2.241,8.364 10.85,13.336 19.215,11.096c8.364,-2.241 13.336,-10.85 11.096,-19.215Z" style="fill:#fff;" /></g><g id="chair36" serif:id="chair"><path d="M3234.436,399.96c-2.241,-8.364 -10.85,-13.336 -19.215,-11.096c-8.364,2.241 -13.336,10.85 -11.096,19.215c2.241,8.364 10.85,13.336 19.215,11.096c8.364,-2.241 13.336,-10.85 11.096,-19.215Z" style="fill:#fff;" /></g><g id="chair37" serif:id="chair"><path d="M2977.218,470.646c-2.241,-8.364 -10.85,-13.336 -19.215,-11.096c-8.364,2.241 -13.336,10.85 -11.096,19.215c2.241,8.364 10.85,13.336 19.215,11.096c8.364,-2.241 13.336,-10.85 11.096,-19.215Z" style="fill:#fff;" /></g><g id="chair38" serif:id="chair"><path d="M3028.944,456.79c-2.241,-8.364 -10.85,-13.336 -19.215,-11.096c-8.364,2.241 -13.336,10.85 -11.096,19.215c2.241,8.364 10.85,13.336 19.215,11.096c8.364,-2.241 13.336,-10.85 11.096,-19.215Z" style="fill:#fff;" /></g><g id="chair39" serif:id="chair"><path d="M3080.669,442.935c-2.241,-8.364 -10.85,-13.336 -19.215,-11.096c-8.364,2.241 -13.336,10.85 -11.096,19.215c2.241,8.364 10.85,13.336 19.215,11.096c8.364,-2.241 13.336,-10.85 11.096,-19.215Z" style="fill:#fff;" /></g><g id="chair40" serif:id="chair"><path d="M3130.985,427.67c-2.241,-8.364 -10.85,-13.336 -19.215,-11.096c-8.364,2.241 -13.336,10.85 -11.096,19.215c2.241,8.364 10.85,13.336 19.215,11.096c8.364,-2.241 13.336,-10.85 11.096,-19.215Z" style="fill:#fff;" /></g><g id="chair41" serif:id="chair"><path d="M3182.71,413.815c-2.241,-8.364 -10.85,-13.336 -19.215,-11.096c-8.364,2.241 -13.336,10.85 -11.096,19.215c2.241,8.364 10.85,13.336 19.215,11.096c8.364,-2.241 13.336,-10.85 11.096,-19.215Z" style="fill:#fff;" /></g></g></g><g><g><g id="chair42" serif:id="chair"><path d="M2480.413,832.719c0.696,-8.631 8.269,-15.074 16.9,-14.378c8.631,0.696 15.074,8.269 14.378,16.9c-0.696,8.631 -8.269,15.074 -16.9,14.378c-8.631,-0.696 -15.074,-8.269 -14.378,-16.9Z" style="fill:#fff;" /></g><g id="chair43" serif:id="chair"><path d="M2533.788,837.024c0.696,-8.631 8.269,-15.074 16.9,-14.378c8.631,0.696 15.074,8.269 14.378,16.9c-0.696,8.631 -8.269,15.074 -16.9,14.378c-8.631,-0.696 -15.074,-8.269 -14.378,-16.9Z" style="fill:#fff;" /></g><g id="chair44" serif:id="chair"><path d="M2799.534,860.187c0.696,-8.631 8.269,-15.074 16.9,-14.378c8.631,0.696 15.074,8.269 14.378,16.9c-0.696,8.631 -8.269,15.074 -16.9,14.378c-8.631,-0.696 -15.074,-8.269 -14.378,-16.9Z" style="fill:#fff;" /></g><g id="chair45" serif:id="chair"><path d="M2746.159,855.882c0.696,-8.631 8.269,-15.074 16.9,-14.378c8.631,0.696 15.074,8.269 14.378,16.9c-0.696,8.631 -8.269,15.074 -16.9,14.378c-8.631,-0.696 -15.074,-8.269 -14.378,-16.9Z" style="fill:#fff;" /></g><g id="chair46" serif:id="chair"><path d="M2692.783,851.578c0.696,-8.631 8.269,-15.074 16.9,-14.378c8.631,0.696 15.074,8.269 14.378,16.9c-0.696,8.631 -8.269,15.074 -16.9,14.378c-8.631,-0.696 -15.074,-8.269 -14.378,-16.9Z" style="fill:#fff;" /></g><g id="chair47" serif:id="chair"><path d="M2640.539,845.633c0.696,-8.631 8.269,-15.074 16.9,-14.378c8.631,0.696 15.074,8.269 14.378,16.9c-0.696,8.631 -8.269,15.074 -16.9,14.378c-8.631,-0.696 -15.074,-8.269 -14.378,-16.9Z" style="fill:#fff;" /></g><g id="chair48" serif:id="chair"><path d="M2587.164,841.328c0.696,-8.631 8.269,-15.074 16.9,-14.378c8.631,0.696 15.074,8.269 14.378,16.9c-0.696,8.631 -8.269,15.074 -16.9,14.378c-8.631,-0.696 -15.074,-8.269 -14.378,-16.9Z" style="fill:#fff;" /></g></g><g><g id="chair49" serif:id="chair"><path d="M2474.18,759.367c0.696,-8.631 8.269,-15.074 16.9,-14.378c8.631,0.696 15.074,8.269 14.378,16.9c-0.696,8.631 -8.269,15.074 -16.9,14.378c-8.631,-0.696 -15.074,-8.269 -14.378,-16.9Z" style="fill:#fff;" /></g><g id="chair50" serif:id="chair"><path d="M2527.556,763.672c0.696,-8.631 8.269,-15.074 16.9,-14.378c8.631,0.696 15.074,8.269 14.378,16.9c-0.696,8.631 -8.269,15.074 -16.9,14.378c-8.631,-0.696 -15.074,-8.269 -14.378,-16.9Z" style="fill:#fff;" /></g><g id="chair51" serif:id="chair"><path d="M2793.302,786.836c0.696,-8.631 8.269,-15.074 16.9,-14.378c8.631,0.696 15.074,8.269 14.378,16.9c-0.696,8.631 -8.269,15.074 -16.9,14.378c-8.631,-0.696 -15.074,-8.269 -14.378,-16.9Z" style="fill:#fff;" /></g><g id="chair52" serif:id="chair"><path d="M2739.926,782.531c0.696,-8.631 8.269,-15.074 16.9,-14.378c8.631,0.696 15.074,8.269 14.378,16.9c-0.696,8.631 -8.269,15.074 -16.9,14.378c-8.631,-0.696 -15.074,-8.269 -14.378,-16.9Z" style="fill:#fff;" /></g><g id="chair53" serif:id="chair"><path d="M2686.551,778.226c0.696,-8.631 8.269,-15.074 16.9,-14.378c8.631,0.696 15.074,8.269 14.378,16.9c-0.696,8.631 -8.269,15.074 -16.9,14.378c-8.631,-0.696 -15.074,-8.269 -14.378,-16.9Z" style="fill:#fff;" /></g><g id="chair54" serif:id="chair"><path d="M2634.307,772.282c0.696,-8.631 8.269,-15.074 16.9,-14.378c8.631,0.696 15.074,8.269 14.378,16.9c-0.696,8.631 -8.269,15.074 -16.9,14.378c-8.631,-0.696 -15.074,-8.269 -14.378,-16.9Z" style="fill:#fff;" /></g><g id="chair55" serif:id="chair"><path d="M2580.931,767.977c0.696,-8.631 8.269,-15.074 16.9,-14.378c8.631,0.696 15.074,8.269 14.378,16.9c-0.696,8.631 -8.269,15.074 -16.9,14.378c-8.631,-0.696 -15.074,-8.269 -14.378,-16.9Z" style="fill:#fff;" /></g></g><g><g id="chair56" serif:id="chair"><path d="M2467.547,683.675c0.696,-8.631 8.269,-15.074 16.9,-14.378c8.631,0.696 15.074,8.269 14.378,16.9c-0.696,8.631 -8.269,15.074 -16.9,14.378c-8.631,-0.696 -15.074,-8.269 -14.378,-16.9Z" style="fill:#fff;" /></g><g id="chair57" serif:id="chair"><path d="M2520.923,687.979c0.696,-8.631 8.269,-15.074 16.9,-14.378c8.631,0.696 15.074,8.269 14.378,16.9c-0.696,8.631 -8.269,15.074 -16.9,14.378c-8.631,-0.696 -15.074,-8.269 -14.378,-16.9Z" style="fill:#fff;" /></g><g id="chair58" serif:id="chair"><path d="M2786.668,711.143c0.696,-8.631 8.269,-15.074 16.9,-14.378c8.631,0.696 15.074,8.269 14.378,16.9c-0.696,8.631 -8.269,15.074 -16.9,14.378c-8.631,-0.696 -15.074,-8.269 -14.378,-16.9Z" style="fill:#fff;" /></g><g id="chair59" serif:id="chair"><path d="M2733.293,706.838c0.696,-8.631 8.269,-15.074 16.9,-14.378c8.631,0.696 15.074,8.269 14.378,16.9c-0.696,8.631 -8.269,15.074 -16.9,14.378c-8.631,-0.696 -15.074,-8.269 -14.378,-16.9Z" style="fill:#fff;" /></g><g id="chair60" serif:id="chair"><path d="M2679.917,702.533c0.696,-8.631 8.269,-15.074 16.9,-14.378c8.631,0.696 15.074,8.269 14.378,16.9c-0.696,8.631 -8.269,15.074 -16.9,14.378c-8.631,-0.696 -15.074,-8.269 -14.378,-16.9Z" style="fill:#fff;" /></g><g id="chair61" serif:id="chair"><path d="M2627.674,696.589c0.696,-8.631 8.269,-15.074 16.9,-14.378c8.631,0.696 15.074,8.269 14.378,16.9c-0.696,8.631 -8.269,15.074 -16.9,14.378c-8.631,-0.696 -15.074,-8.269 -14.378,-16.9Z" style="fill:#fff;" /></g><g id="chair62" serif:id="chair"><path d="M2574.298,692.284c0.696,-8.631 8.269,-15.074 16.9,-14.378c8.631,0.696 15.074,8.269 14.378,16.9c-0.696,8.631 -8.269,15.074 -16.9,14.378c-8.631,-0.696 -15.074,-8.269 -14.378,-16.9Z" style="fill:#fff;" /></g></g><g><g id="chair63" serif:id="chair"><path d="M2461.776,612.696c0.696,-8.631 8.269,-15.074 16.9,-14.378c8.631,0.696 15.074,8.269 14.378,16.9c-0.696,8.631 -8.269,15.074 -16.9,14.378c-8.631,-0.696 -15.074,-8.269 -14.378,-16.9Z" style="fill:#fff;" /></g><g id="chair64" serif:id="chair"><path d="M2515.151,617.001c0.696,-8.631 8.269,-15.074 16.9,-14.378c8.631,0.696 15.074,8.269 14.378,16.9c-0.696,8.631 -8.269,15.074 -16.9,14.378c-8.631,-0.696 -15.074,-8.269 -14.378,-16.9Z" style="fill:#fff;" /></g><g id="chair65" serif:id="chair"><path d="M2780.897,640.165c0.696,-8.631 8.269,-15.074 16.9,-14.378c8.631,0.696 15.074,8.269 14.378,16.9c-0.696,8.631 -8.269,15.074 -16.9,14.378c-8.631,-0.696 -15.074,-8.269 -14.378,-16.9Z" style="fill:#fff;" /></g><g id="chair66" serif:id="chair"><path d="M2727.521,635.86c0.696,-8.631 8.269,-15.074 16.9,-14.378c8.631,0.696 15.074,8.269 14.378,16.9c-0.696,8.631 -8.269,15.074 -16.9,14.378c-8.631,-0.696 -15.074,-8.269 -14.378,-16.9Z" style="fill:#fff;" /></g><g id="chair67" serif:id="chair"><path d="M2674.146,631.555c0.696,-8.631 8.269,-15.074 16.9,-14.378c8.631,0.696 15.074,8.269 14.378,16.9c-0.696,8.631 -8.269,15.074 -16.9,14.378c-8.631,-0.696 -15.074,-8.269 -14.378,-16.9Z" style="fill:#fff;" /></g><g id="chair68" serif:id="chair"><path d="M2621.902,625.611c0.696,-8.631 8.269,-15.074 16.9,-14.378c8.631,0.696 15.074,8.269 14.378,16.9c-0.696,8.631 -8.269,15.074 -16.9,14.378c-8.631,-0.696 -15.074,-8.269 -14.378,-16.9Z" style="fill:#fff;" /></g><g id="chair69" serif:id="chair"><path d="M2568.527,621.306c0.696,-8.631 8.269,-15.074 16.9,-14.378c8.631,0.696 15.074,8.269 14.378,16.9c-0.696,8.631 -8.269,15.074 -16.9,14.378c-8.631,-0.696 -15.074,-8.269 -14.378,-16.9Z" style="fill:#fff;" /></g></g><g><g id="chair70" serif:id="chair"><path d="M2455.01,536.433c0.696,-8.631 8.269,-15.074 16.9,-14.378c8.631,0.696 15.074,8.269 14.378,16.9c-0.696,8.631 -8.269,15.074 -16.9,14.378c-8.631,-0.696 -15.074,-8.269 -14.378,-16.9Z" style="fill:#fff;" /></g><g id="chair71" serif:id="chair"><path d="M2508.385,540.738c0.696,-8.631 8.269,-15.074 16.9,-14.378c8.631,0.696 15.074,8.269 14.378,16.9c-0.696,8.631 -8.269,15.074 -16.9,14.378c-8.631,-0.696 -15.074,-8.269 -14.378,-16.9Z" style="fill:#fff;" /></g><g id="chair72" serif:id="chair"><path d="M2774.131,563.902c0.696,-8.631 8.269,-15.074 16.9,-14.378c8.631,0.696 15.074,8.269 14.378,16.9c-0.696,8.631 -8.269,15.074 -16.9,14.378c-8.631,-0.696 -15.074,-8.269 -14.378,-16.9Z" style="fill:#fff;" /></g><g id="chair73" serif:id="chair"><path d="M2720.755,559.597c0.696,-8.631 8.269,-15.074 16.9,-14.378c8.631,0.696 15.074,8.269 14.378,16.9c-0.696,8.631 -8.269,15.074 -16.9,14.378c-8.631,-0.696 -15.074,-8.269 -14.378,-16.9Z" style="fill:#fff;" /></g><g id="chair74" serif:id="chair"><path d="M2667.38,555.292c0.696,-8.631 8.269,-15.074 16.9,-14.378c8.631,0.696 15.074,8.269 14.378,16.9c-0.696,8.631 -8.269,15.074 -16.9,14.378c-8.631,-0.696 -15.074,-8.269 -14.378,-16.9Z" style="fill:#fff;" /></g><g id="chair75" serif:id="chair"><path d="M2615.136,549.348c0.696,-8.631 8.269,-15.074 16.9,-14.378c8.631,0.696 15.074,8.269 14.378,16.9c-0.696,8.631 -8.269,15.074 -16.9,14.378c-8.631,-0.696 -15.074,-8.269 -14.378,-16.9Z" style="fill:#fff;" /></g><g id="chair76" serif:id="chair"><path d="M2561.761,545.043c0.696,-8.631 8.269,-15.074 16.9,-14.378c8.631,0.696 15.074,8.269 14.378,16.9c-0.696,8.631 -8.269,15.074 -16.9,14.378c-8.631,-0.696 -15.074,-8.269 -14.378,-16.9Z" style="fill:#fff;" /></g></g><g><g id="chair77" serif:id="chair"><path d="M2452.051,461.275c0.696,-8.631 8.269,-15.074 16.9,-14.378c8.631,0.696 15.074,8.269 14.378,16.9c-0.696,8.631 -8.269,15.074 -16.9,14.378c-8.631,-0.696 -15.074,-8.269 -14.378,-16.9Z" style="fill:#fff;" /></g><g id="chair78" serif:id="chair"><path d="M2505.426,465.58c0.696,-8.631 8.269,-15.074 16.9,-14.378c8.631,0.696 15.074,8.269 14.378,16.9c-0.696,8.631 -8.269,15.074 -16.9,14.378c-8.631,-0.696 -15.074,-8.269 -14.378,-16.9Z" style="fill:#fff;" /></g><g id="chair79" serif:id="chair"><path d="M2771.172,488.743c0.696,-8.631 8.269,-15.074 16.9,-14.378c8.631,0.696 15.074,8.269 14.378,16.9c-0.696,8.631 -8.269,15.074 -16.9,14.378c-8.631,-0.696 -15.074,-8.269 -14.378,-16.9Z" style="fill:#fff;" /></g><g id="chair80" serif:id="chair"><path d="M2717.797,484.439c0.696,-8.631 8.269,-15.074 16.9,-14.378c8.631,0.696 15.074,8.269 14.378,16.9c-0.696,8.631 -8.269,15.074 -16.9,14.378c-8.631,-0.696 -15.074,-8.269 -14.378,-16.9Z" style="fill:#fff;" /></g><g id="chair81" serif:id="chair"><path d="M2664.421,480.134c0.696,-8.631 8.269,-15.074 16.9,-14.378c8.631,0.696 15.074,8.269 14.378,16.9c-0.696,8.631 -8.269,15.074 -16.9,14.378c-8.631,-0.696 -15.074,-8.269 -14.378,-16.9Z" style="fill:#fff;" /></g><g id="chair82" serif:id="chair"><path d="M2612.177,474.189c0.696,-8.631 8.269,-15.074 16.9,-14.378c8.631,0.696 15.074,8.269 14.378,16.9c-0.696,8.631 -8.269,15.074 -16.9,14.378c-8.631,-0.696 -15.074,-8.269 -14.378,-16.9Z" style="fill:#fff;" /></g><g id="chair83" serif:id="chair"><path d="M2558.802,469.884c0.696,-8.631 8.269,-15.074 16.9,-14.378c8.631,0.696 15.074,8.269 14.378,16.9c-0.696,8.631 -8.269,15.074 -16.9,14.378c-8.631,-0.696 -15.074,-8.269 -14.378,-16.9Z" style="fill:#fff;" /></g></g></g></g><g id="sweetheart_table"><g><g><g><path d="M2855.397,1365.973c2.153,8.034 10.423,12.808 18.456,10.656c8.034,-2.153 12.808,-10.423 10.656,-18.456c-2.153,-8.034 -10.423,-12.808 -18.456,-10.656c-8.034,2.153 -12.808,10.423 -10.656,18.456Z" style="fill:#e8b7ae;fill-opacity:0.6;" /><path d="M2946.559,1365.973c-2.153,8.034 -10.423,12.808 -18.456,10.656c-8.034,-2.153 -12.808,-10.423 -10.656,-18.456c2.153,-8.034 10.423,-12.808 18.456,-10.656c8.034,2.153 12.808,10.423 10.656,18.456Z" style="fill:#e8b7ae;fill-opacity:0.6;" /></g></g></g><circle cx="2900.978" cy="1420.942" r="45.786" style="fill:#e8b7ae;" /></g><g id="activities"><path id="bar" d="M2254.927,1479.313c0,0 74.907,58.847 108.145,60.278c33.238,1.43 79.404,1.686 117.01,-37.23c37.606,-38.916 97.348,-68.004 124.101,-124.101c26.753,-56.097 23.934,-45.799 28.366,-63.823c3.531,-14.358 -11.681,-22.768 -1.773,-44.322c9.908,-21.554 24.525,-26.002 23.047,-35.457c-1.477,-9.455 -13.442,-15.178 -31.912,-21.274c-18.469,-6.096 -26.593,-8.864 -26.593,-8.864c0,0 -23.454,-52.981 -67.369,-76.234c-43.915,-23.252 -72.688,-28.366 -72.688,-28.366c0,0 -16.815,5.15 -26.593,-3.546c-9.778,-8.696 -9.495,-7.194 -14.183,-5.319c-5.91,2.364 -15.863,10.324 -21.274,19.502c-5.412,9.177 -10.637,12.41 -10.637,12.41c0,0 -74.565,50.145 -101.054,90.416c-26.488,40.271 -36.409,96.099 -37.23,132.965c-0.821,36.867 -3.546,39.003 -3.546,39.003c0,0 -37.692,64.434 -37.23,78.006c0.461,13.572 12.41,15.956 12.41,15.956l39.003,0Z" style="fill:#a99a8e;" /><path id="welcome_table" d="M1344.959,1918.357l41.146,35.477c2.839,2.448 3.156,6.739 0.709,9.578l-132.065,153.167c-2.448,2.839 -6.739,3.156 -9.578,0.709l-41.146,-35.477c-2.839,-2.448 -3.156,-6.739 -0.709,-9.578l132.065,-153.167c2.448,-2.839 6.739,-3.156 9.578,-0.709Z" style="fill:#a99a8e;" /><path id="dj" d="M3021.702,2183.118l-2.271,54.281c-0.157,3.745 -3.324,6.658 -7.069,6.501l-202.064,-8.454c-3.745,-0.157 -6.658,-3.324 -6.501,-7.069l2.271,-54.281c0.157,-3.745 3.324,-6.658 7.069,-6.501l202.064,8.454c3.745,0.157 6.658,3.324 6.501,7.069Z" style="fill:#a99a8e;" /><g id="guest_artist"><path d="M3490.201,1242.48l-35.354,41.252c-2.439,2.846 -6.73,3.176 -9.576,0.737l-153.562,-131.606c-2.846,-2.439 -3.176,-6.73 -0.737,-9.576l35.354,-41.252c2.439,-2.846 6.73,-3.176 9.576,-0.737l153.562,131.606c2.846,2.439 3.176,6.73 0.737,9.576Z" style="fill:#a99a8e;" /><path d="M3436.474,1162.734c-5.478,6.259 -15.006,6.893 -21.264,1.415c-6.259,-5.478 -6.893,-15.006 -1.415,-21.264c5.478,-6.259 15.006,-6.893 21.264,-1.415c6.259,5.478 6.893,15.006 1.415,21.264Z" style="fill:#a99a8e;fill-opacity:0.6;" /><path d="M3484.6,1204.267c-5.478,6.259 -15.006,6.893 -21.264,1.415c-6.259,-5.478 -6.893,-15.006 -1.415,-21.264c5.478,-6.259 15.006,-6.893 21.264,-1.415c6.259,5.478 6.893,15.006 1.415,21.264Z" style="fill:#a99a8e;fill-opacity:0.6;" /><path d="M3387.114,1122.125c-5.478,6.259 -15.006,6.893 -21.264,1.415c-6.259,-5.478 -6.893,-15.006 -1.415,-21.264c5.478,-6.259 15.006,-6.893 21.264,-1.415c6.259,5.478 6.893,15.006 1.415,21.264Z" style="fill:#a99a8e;fill-opacity:0.6;" /></g><path id="gift_table" d="M1688.042,2118.041l41.146,35.477c2.839,2.448 3.156,6.739 0.709,9.578l-132.065,153.167c-2.448,2.839 -6.739,3.156 -9.578,0.709l-41.146,-35.477c-2.839,-2.448 -3.156,-6.739 -0.709,-9.578l132.065,-153.167c2.448,-2.839 6.739,-3.156 9.578,-0.709Z" style="fill:#a99a8e;" /></g></g></g></svg>